{
  "accessors": [
    {
      "bufferView": 2,
      "componentType": 5126,
      "count": 39277,
      "max": [
        21.420133590698242,
        7.081648826599121,
        11.05082893371582
      ],
      "min": [
        -19.543682098388672,
        -7.101809501647949,
        -11.035021781921387
      ],
      "type": "VEC3"
    },
    {
      "bufferView": 2,
      "byteOffset": 471324,
      "componentType": 5126,
      "count": 39277,
      "max": [
        0.9991937279701233,
        1.0,
        0.9999784231185913
      ],
      "min": [
        -0.9999796152114868,
        -0.9999819993972778,
        -0.9999668598175049
      ],
      "type": "VEC3"
    },
    {
      "bufferView": 1,
      "componentType": 5126,
      "count": 39277,
      "max": [
        0.9955759048461914,
        0.9952489733695984
      ],
      "min": [
        0.0,
        0.0
      ],
      "type": "VEC2"
    },
    {
      "bufferView": 0,
      "componentType": 5125,
      "count": 183954,
      "type": "SCALAR"
    },
    {
      "bufferView": 2,
      "byteOffset": 942648,
      "componentType": 5126,
      "count": 49196,
      "max": [
        19.320886611938477,
        7.352014541625977,
        11.114801406860352
      ],
      "min": [
        -21.532331466674805,
        -7.340851783752441,
        -11.539872169494629
      ],
      "type": "VEC3"
    },
    {
      "bufferView": 2,
      "byteOffset": 1533000,
      "componentType": 5126,
      "count": 49196,
      "max": [
        0.9993160963058472,
        1.0,
        0.999995768070221
      ],
      "min": [
        -0.9999898076057434,
        -1.0,
        -0.9998052716255188
      ],
      "type": "VEC3"
    },
    {
      "bufferView": 1,
      "byteOffset": 314216,
      "componentType": 5126,
      "count": 49196,
      "max": [
        0.9955354928970337,
        0.9955228567123413
      ],
      "min": [
        0.0041544437408447266,
        0.004161326680332422
      ],
      "type": "VEC2"
    },
    {
      "bufferView": 0,
      "byteOffset": 735816,
      "componentType": 5125,
      "count": 219594,
      "type": "SCALAR"
    },
    {
      "bufferView": 2,
      "byteOffset": 2123352,
      "componentType": 5126,
      "count": 44231,
      "max": [
        21.296594619750977,
        7.350717544555664,
        10.864433288574219
      ],
      "min": [
        -21.159408569335938,
        -7.286552429199219,
        -11.809576988220215
      ],
      "type": "VEC3"
    },
    {
      "bufferView": 2,
      "byteOffset": 2654124,
      "componentType": 5126,
      "count": 44231,
      "max": [
        0.9998300671577454,
        1.0,
        0.9999896883964539
      ],
      "min": [
        -0.9999465346336365,
        -1.0,
        -0.9995721578598022
      ],
      "type": "VEC3"
    },
    {
      "bufferView": 1,
      "byteOffset": 707784,
      "componentType": 5126,
      "count": 44231,
      "max": [
        0.9955733418464661,
        0.9956638813018799
      ],
      "min": [
        0.004203632473945618,
        0.0041558267548680305
      ],
      "type": "VEC2"
    },
    {
      "bufferView": 0,
      "byteOffset": 1614192,
      "componentType": 5125,
      "count": 188940,
      "type": "SCALAR"
    },
    {
      "bufferView": 2,
      "byteOffset": 3184896,
      "componentType": 5126,
      "count": 46687,
      "max": [
        19.92380714416504,
        7.350777626037598,
        11.809576988220215
      ],
      "min": [
        -21.431781768798828,
        -7.344404697418213,
        -11.74001407623291
      ],
      "type": "VEC3"
    },
    {
      "bufferView": 2,
      "byteOffset": 3745140,
      "componentType": 5126,
      "count": 46687,
      "max": [
        0.9998189210891724,
        1.0,
        0.9999951124191284
      ],
      "min": [
        -0.9999136328697205,
        -1.0,
        -0.9999053478240967
      ],
      "type": "VEC3"
    },
    {
      "bufferView": 1,
      "byteOffset": 1061632,
      "componentType": 5126,
      "count": 46687,
      "max": [
        0.9952303171157837,
        0.9955928325653076
      ],
      "min": [
        0.004183277487754822,
        0.004157748073339462
      ],
      "type": "VEC2"
    },
    {
      "bufferView": 0,
      "byteOffset": 2369952,
      "componentType": 5125,
      "count": 196290,
      "type": "SCALAR"
    },
    {
      "bufferView": 2,
      "byteOffset": 4305384,
      "componentType": 5126,
      "count": 41461,
      "max": [
        21.532331466674805,
        7.350580215454102,
        11.809576988220215
      ],
      "min": [
        -21.532331466674805,
        -7.352014541625977,
        -11.809576988220215
      ],
      "type": "VEC3"
    },
    {
      "bufferView": 2,
      "byteOffset": 4802916,
      "componentType": 5126,
      "count": 41461,
      "max": [
        0.9999740719795227,
        1.0,
        0.9999881982803345
      ],
      "min": [
        -0.9997491240501404,
        -1.0,
        -0.9998807907104492
      ],
      "type": "VEC3"
    },
    {
      "bufferView": 1,
      "byteOffset": 1435128,
      "componentType": 5126,
      "count": 41461,
      "max": [
        0.9979065656661987,
        0.9770150780677795
      ],
      "min": [
        0.004150390625,
        0.004152619279921055
      ],
      "type": "VEC2"
    },
    {
      "bufferView": 0,
      "byteOffset": 3155112,
      "componentType": 5125,
      "count": 88875,
      "type": "SCALAR"
    }
  ],
  "asset": {
    "extras": {
      "author": "Austin Beaulier (https://sketchfab.com/Austin.Beaulier)",
      "license": "SKETCHFAB Standard (https://sketchfab.com/licenses)",
      "source": "https://sketchfab.com/3d-models/fort-tryon-park-staircase-6d19979112b541aea02f9b68a66fbf7d",
      "title": "Fort Tryon Park Staircase"
    },
    "generator": "Sketchfab-15.49.0",
    "version": "2.0"
  },
  "bufferViews": [
    {
      "buffer": 0,
      "byteLength": 3510612,
      "name": "floatBufferViews",
      "target": 34963
    },
    {
      "buffer": 0,
      "byteLength": 1766816,
      "byteOffset": 3510612,
      "byteStride": 8,
      "name": "floatBufferViews",
      "target": 34962
    },
    {
      "buffer": 0,
      "byteLength": 5300448,
      "byteOffset": 5277428,
      "byteStride": 12,
      "name": "floatBufferViews",
      "target": 34962
    }
  ],
  "buffers": [
    {
      "byteLength": 10577876,
      "uri": "scene.bin"
    }
  ],
  "extensionsUsed": [
    "KHR_materials_unlit"
  ],
  "images": [
    {
      "uri": "textures/material_0_baseColor.jpeg"
    },
    {
      "uri": "textures/material_1_baseColor.jpeg"
    },
    {
      "uri": "textures/material_2_baseColor.jpeg"
    },
    {
      "uri": "textures/material_3_baseColor.jpeg"
    },
    {
      "uri": "textures/material_4_baseColor.jpeg"
    }
  ],
  "materials": [
    {
      "extensions": {
        "KHR_materials_unlit": {}
      },
      "name": "material_0",
      "pbrMetallicRoughness": {
        "baseColorTexture": {
          "index": 0
        },
        "metallicFactor": 0.0
      }
    },
    {
      "extensions": {
        "KHR_materials_unlit": {}
      },
      "name": "material_1",
      "pbrMetallicRoughness": {
        "baseColorTexture": {
          "index": 1
        },
        "metallicFactor": 0.0
      }
    },
    {
      "extensions": {
        "KHR_materials_unlit": {}
      },
      "name": "material_2",
      "pbrMetallicRoughness": {
        "baseColorTexture": {
          "index": 2
        },
        "metallicFactor": 0.0
      }
    },
    {
      "extensions": {
        "KHR_materials_unlit": {}
      },
      "name": "material_3",
      "pbrMetallicRoughness": {
        "baseColorTexture": {
          "index": 3
        },
        "metallicFactor": 0.0
      }
    },
    {
      "extensions": {
        "KHR_materials_unlit": {}
      },
      "name": "material_4",
      "pbrMetallicRoughness": {
        "baseColorTexture": {
          "index": 4
        },
        "metallicFactor": 0.0
      }
    }
  ],
  "meshes": [
    {
      "name": "Object_0",
      "primitives": [
        {
          "attributes": {
            "NORMAL": 1,
            "POSITION": 0,
            "TEXCOORD_0": 2
          },
          "indices": 3,
          "material": 0,
          "mode": 4
        }
      ]
    },
    {
      "name": "Object_1",
      "primitives": [
        {
          "attributes": {
            "NORMAL": 5,
            "POSITION": 4,
            "TEXCOORD_0": 6
          },
          "indices": 7,
          "material": 1,
          "mode": 4
        }
      ]
    },
    {
      "name": "Object_2",
      "primitives": [
        {
          "attributes": {
            "NORMAL": 9,
            "POSITION": 8,
            "TEXCOORD_0": 10
          },
          "indices": 11,
          "material": 2,
          "mode": 4
        }
      ]
    },
    {
      "name": "Object_3",
      "primitives": [
        {
          "attributes": {
            "NORMAL": 13,
            "POSITION": 12,
            "TEXCOORD_0": 14
          },
          "indices": 15,
          "material": 3,
          "mode": 4
        }
      ]
    },
    {
      "name": "Object_4",
      "primitives": [
        {
          "attributes": {
            "NORMAL": 17,
            "POSITION": 16,
            "TEXCOORD_0": 18
          },
          "indices": 19,
          "material": 4,
          "mode": 4
        }
      ]
    }
  ],
  "nodes": [
    {
      "children": [
        1
      ],
      "matrix": [
        1.0,
        0.0,
        0.0,
        0.0,
        0.0,
        2.220446049250313e-16,
        -1.0,
        0.0,
        0.0,
        1.0,
        2.220446049250313e-16,
        0.0,
        0.0,
        0.0,
        0.0,
        1.0
      ],
      "name": "Sketchfab_model"
    },
    {
      "children": [
        2
      ],
      "name": "root"
    },
    {
      "children": [
        3
      ],
      "matrix": [
        1.0,
        0.0,
        0.0,
        0.0,
        0.0,
        2.220446049250313e-16,
        1.0,
        0.0,
        0.0,
        -1.0,
        2.220446049250313e-16,
        0.0,
        0.0,
        0.0,
        0.0,
        1.0
      ],
      "name": "GLTF_SceneRootNode"
    },
    {
      "children": [
        4,
        5,
        6,
        7,
        8
      ],
      "name": "_0"
    },
    {
      "mesh": 0,
      "name": "Object_4"
    },
    {
      "mesh": 1,
      "name": "Object_5"
    },
    {
      "mesh": 2,
      "name": "Object_6"
    },
    {
      "mesh": 3,
      "name": "Object_7"
    },
    {
      "mesh": 4,
      "name": "Object_8"
    }
  ],
  "samplers": [
    {
      "magFilter": 9729,
      "minFilter": 9987,
      "wrapS": 10497,
      "wrapT": 10497
    }
  ],
  "scene": 0,
  "scenes": [
    {
      "name": "Sketchfab_Scene",
      "nodes": [
        0
      ]
    }
  ],
  "textures": [
    {
      "sampler": 0,
      "source": 0
    },
    {
      "sampler": 0,
      "source": 1
    },
    {
      "sampler": 0,
      "source": 2
    },
    {
      "sampler": 0,
      "source": 3
    },
    {
      "sampler": 0,
      "source": 4
    }
  ]
}
