{
  "accessors": [
    {
      "bufferView": 2,
      "componentType": 5126,
      "count": 65532,
      "max": [
        7.287593841552734,
        26.503583908081055,
        8.011405944824219
      ],
      "min": [
        -6.352295875549316,
        -15.518375396728516,
        -0.07427516579627991
      ],
      "type": "VEC3"
    },
    {
      "bufferView": 2,
      "byteOffset": 786384,
      "componentType": 5126,
      "count": 65532,
      "max": [
        1.0,
        1.0,
        1.0
      ],
      "min": [
        -1.0,
        -1.0,
        -1.0
      ],
      "type": "VEC3"
    },
    {
      "bufferView": 3,
      "componentType": 5126,
      "count": 65532,
      "max": [
        1.0,
        1.0,
        1.0,
        1.0
      ],
      "min": [
        -1.0,
        -1.0,
        -1.0,
        -1.0
      ],
      "type": "VEC4"
    },
    {
      "bufferView": 1,
      "componentType": 5126,
      "count": 65532,
      "max": [
        0.6411482691764832,
        1.2694907188415527
      ],
      "min": [
        -0.03966503590345383,
        0.35401883721351624
      ],
      "type": "VEC2"
    },
    {
      "bufferView": 1,
      "byteOffset": 524256,
      "componentType": 5126,
      "count": 65532,
      "max": [
        0.6411482691764832,
        1.2694907188415527
      ],
      "min": [
        -0.03966503590345383,
        0.35401883721351624
      ],
      "type": "VEC2"
    },
    {
      "bufferView": 1,
      "byteOffset": 1048512,
      "componentType": 5126,
      "count": 65532,
      "max": [
        0.6411482691764832,
        1.2694907188415527
      ],
      "min": [
        -0.03966503590345383,
        0.35401883721351624
      ],
      "type": "VEC2"
    },
    {
      "bufferView": 0,
      "componentType": 5125,
      "count": 113331,
      "type": "SCALAR"
    },
    {
      "bufferView": 2,
      "byteOffset": 1572768,
      "componentType": 5126,
      "count": 65532,
      "max": [
        7.33774471282959,
        24.717655181884766,
        8.011396408081055
      ],
      "min": [
        -6.402446269989014,
        -15.518390655517578,
        0.011546701192855835
      ],
      "type": "VEC3"
    },
    {
      "bufferView": 2,
      "byteOffset": 2359152,
      "componentType": 5126,
      "count": 65532,
      "max": [
        1.0,
        1.0,
        1.0
      ],
      "min": [
        -1.0,
        -1.0,
        -1.0
      ],
      "type": "VEC3"
    },
    {
      "bufferView": 3,
      "byteOffset": 1048512,
      "componentType": 5126,
      "count": 65532,
      "max": [
        1.0,
        1.0,
        1.0,
        1.0
      ],
      "min": [
        -1.0,
        -1.0,
        -1.0,
        -1.0
      ],
      "type": "VEC4"
    },
    {
      "bufferView": 1,
      "byteOffset": 1572768,
      "componentType": 5126,
      "count": 65532,
      "max": [
        0.5855375528335571,
        1.0343791246414185
      ],
      "min": [
        0.09150330722332001,
        0.34588655829429626
      ],
      "type": "VEC2"
    },
    {
      "bufferView": 1,
      "byteOffset": 2097024,
      "componentType": 5126,
      "count": 65532,
      "max": [
        0.5855375528335571,
        1.0343791246414185
      ],
      "min": [
        0.09150330722332001,
        0.34588655829429626
      ],
      "type": "VEC2"
    },
    {
      "bufferView": 1,
      "byteOffset": 2621280,
      "componentType": 5126,
      "count": 65532,
      "max": [
        0.5855375528335571,
        1.0343791246414185
      ],
      "min": [
        0.09150330722332001,
        0.34588655829429626
      ],
      "type": "VEC2"
    },
    {
      "bufferView": 0,
      "byteOffset": 453324,
      "componentType": 5125,
      "count": 105888,
      "type": "SCALAR"
    },
    {
      "bufferView": 2,
      "byteOffset": 3145536,
      "componentType": 5126,
      "count": 65532,
      "max": [
        7.335881233215332,
        26.349401473999023,
        7.7132768630981445
      ],
      "min": [
        -6.402446269989014,
        -15.518386840820313,
        -0.07427510619163513
      ],
      "type": "VEC3"
    },
    {
      "bufferView": 2,
      "byteOffset": 3931920,
      "componentType": 5126,
      "count": 65532,
      "max": [
        1.0,
        1.1830526091216598e-05,
        1.0
      ],
      "min": [
        -1.0,
        -1.0,
        -1.0
      ],
      "type": "VEC3"
    },
    {
      "bufferView": 3,
      "byteOffset": 2097024,
      "componentType": 5126,
      "count": 65532,
      "max": [
        1.0,
        1.0,
        0.9999985098838806,
        1.0
      ],
      "min": [
        -1.0,
        -1.0,
        -0.9999979734420776,
        -1.0
      ],
      "type": "VEC4"
    },
    {
      "bufferView": 1,
      "byteOffset": 3145536,
      "componentType": 5126,
      "count": 65532,
      "max": [
        0.5761010050773621,
        0.515153169631958
      ],
      "min": [
        -0.08730579167604446,
        -0.0747896283864975
      ],
      "type": "VEC2"
    },
    {
      "bufferView": 1,
      "byteOffset": 3669792,
      "componentType": 5126,
      "count": 65532,
      "max": [
        0.5761010050773621,
        0.515153169631958
      ],
      "min": [
        -0.08730579167604446,
        -0.0747896283864975
      ],
      "type": "VEC2"
    },
    {
      "bufferView": 1,
      "byteOffset": 4194048,
      "componentType": 5126,
      "count": 65532,
      "max": [
        0.5761010050773621,
        0.515153169631958
      ],
      "min": [
        -0.08730579167604446,
        -0.0747896283864975
      ],
      "type": "VEC2"
    },
    {
      "bufferView": 0,
      "byteOffset": 876876,
      "componentType": 5125,
      "count": 114237,
      "type": "SCALAR"
    },
    {
      "bufferView": 2,
      "byteOffset": 4718304,
      "componentType": 5126,
      "count": 65532,
      "max": [
        2.7678651809692383,
        26.503589630126953,
        8.011412620544434
      ],
      "min": [
        -6.402446269989014,
        -15.518386840820313,
        -0.04562675952911377
      ],
      "type": "VEC3"
    },
    {
      "bufferView": 2,
      "byteOffset": 5504688,
      "componentType": 5126,
      "count": 65532,
      "max": [
        1.0,
        1.0,
        1.0
      ],
      "min": [
        -1.0,
        -1.0,
        -1.0
      ],
      "type": "VEC3"
    },
    {
      "bufferView": 3,
      "byteOffset": 3145536,
      "componentType": 5126,
      "count": 65532,
      "max": [
        1.0,
        1.0,
        1.0,
        1.0
      ],
      "min": [
        -1.0,
        -1.0,
        -1.0,
        -1.0
      ],
      "type": "VEC4"
    },
    {
      "bufferView": 1,
      "byteOffset": 4718304,
      "componentType": 5126,
      "count": 65532,
      "max": [
        1.0367083549499512,
        1.3119477033615112
      ],
      "min": [
        -0.10557352006435394,
        -0.0988350510597229
      ],
      "type": "VEC2"
    },
    {
      "bufferView": 1,
      "byteOffset": 5242560,
      "componentType": 5126,
      "count": 65532,
      "max": [
        1.0367083549499512,
        1.3119477033615112
      ],
      "min": [
        -0.10557352006435394,
        -0.0988350510597229
      ],
      "type": "VEC2"
    },
    {
      "bufferView": 1,
      "byteOffset": 5766816,
      "componentType": 5126,
      "count": 65532,
      "max": [
        1.0367083549499512,
        1.3119477033615112
      ],
      "min": [
        -0.10557352006435394,
        -0.0988350510597229
      ],
      "type": "VEC2"
    },
    {
      "bufferView": 0,
      "byteOffset": 1333824,
      "componentType": 5125,
      "count": 100020,
      "type": "SCALAR"
    },
    {
      "bufferView": 2,
      "byteOffset": 6291072,
      "componentType": 5126,
      "count": 65533,
      "max": [
        2.7678651809692383,
        26.503591537475586,
        8.011412620544434
      ],
      "min": [
        -6.4024457931518555,
        -4.556367874145508,
        -0.045604318380355835
      ],
      "type": "VEC3"
    },
    {
      "bufferView": 2,
      "byteOffset": 7077468,
      "componentType": 5126,
      "count": 65533,
      "max": [
        1.0,
        1.0,
        1.0
      ],
      "min": [
        -1.0,
        -1.0,
        -1.0
      ],
      "type": "VEC3"
    },
    {
      "bufferView": 3,
      "byteOffset": 4194048,
      "componentType": 5126,
      "count": 65533,
      "max": [
        1.0,
        1.0,
        1.0,
        1.0
      ],
      "min": [
        -1.0,
        -1.0,
        -1.0,
        -1.0
      ],
      "type": "VEC4"
    },
    {
      "bufferView": 1,
      "byteOffset": 6291072,
      "componentType": 5126,
      "count": 65533,
      "max": [
        1.0367083549499512,
        1.3119477033615112
      ],
      "min": [
        -0.10557352006435394,
        -0.09883517026901245
      ],
      "type": "VEC2"
    },
    {
      "bufferView": 1,
      "byteOffset": 6815336,
      "componentType": 5126,
      "count": 65533,
      "max": [
        1.0367083549499512,
        1.3119477033615112
      ],
      "min": [
        -0.10557352006435394,
        -0.09883517026901245
      ],
      "type": "VEC2"
    },
    {
      "bufferView": 1,
      "byteOffset": 7339600,
      "componentType": 5126,
      "count": 65533,
      "max": [
        1.0367083549499512,
        1.3119477033615112
      ],
      "min": [
        -0.10557352006435394,
        -0.09883517026901245
      ],
      "type": "VEC2"
    },
    {
      "bufferView": 0,
      "byteOffset": 1733904,
      "componentType": 5125,
      "count": 108744,
      "type": "SCALAR"
    },
    {
      "bufferView": 2,
      "byteOffset": 7863864,
      "componentType": 5126,
      "count": 65534,
      "max": [
        2.7678651809692383,
        26.503589630126953,
        8.011412620544434
      ],
      "min": [
        -6.402445316314697,
        -4.556365966796875,
        0.01155293732881546
      ],
      "type": "VEC3"
    },
    {
      "bufferView": 2,
      "byteOffset": 8650272,
      "componentType": 5126,
      "count": 65534,
      "max": [
        1.0,
        1.0,
        1.0
      ],
      "min": [
        -1.0,
        -1.0,
        -0.9999799728393555
      ],
      "type": "VEC3"
    },
    {
      "bufferView": 3,
      "byteOffset": 5242576,
      "componentType": 5126,
      "count": 65534,
      "max": [
        1.0,
        1.0,
        1.0,
        1.0
      ],
      "min": [
        -1.0,
        -1.0,
        -1.0,
        -1.0
      ],
      "type": "VEC4"
    },
    {
      "bufferView": 1,
      "byteOffset": 7863864,
      "componentType": 5126,
      "count": 65534,
      "max": [
        1.0367083549499512,
        1.3119477033615112
      ],
      "min": [
        -0.03610182926058769,
        -0.0988350510597229
      ],
      "type": "VEC2"
    },
    {
      "bufferView": 1,
      "byteOffset": 8388136,
      "componentType": 5126,
      "count": 65534,
      "max": [
        1.0367083549499512,
        1.3119477033615112
      ],
      "min": [
        -0.03610182926058769,
        -0.0988350510597229
      ],
      "type": "VEC2"
    },
    {
      "bufferView": 1,
      "byteOffset": 8912408,
      "componentType": 5126,
      "count": 65534,
      "max": [
        1.0367083549499512,
        1.3119477033615112
      ],
      "min": [
        -0.03610182926058769,
        -0.0988350510597229
      ],
      "type": "VEC2"
    },
    {
      "bufferView": 0,
      "byteOffset": 2168880,
      "componentType": 5125,
      "count": 102252,
      "type": "SCALAR"
    },
    {
      "bufferView": 2,
      "byteOffset": 9436680,
      "componentType": 5126,
      "count": 65533,
      "max": [
        7.33774471282959,
        12.91002082824707,
        8.011405944824219
      ],
      "min": [
        -6.352295875549316,
        -15.518386840820313,
        7.925567626953125
      ],
      "type": "VEC3"
    },
    {
      "bufferView": 2,
      "byteOffset": 10223076,
      "componentType": 5126,
      "count": 65533,
      "max": [
        1.0,
        1.0,
        1.0
      ],
      "min": [
        -1.0,
        -1.0,
        -1.0
      ],
      "type": "VEC3"
    },
    {
      "bufferView": 3,
      "byteOffset": 6291120,
      "componentType": 5126,
      "count": 65533,
      "max": [
        1.0,
        1.0,
        1.0,
        1.0
      ],
      "min": [
        -1.0,
        -1.0,
        -1.0,
        -1.0
      ],
      "type": "VEC4"
    },
    {
      "bufferView": 1,
      "byteOffset": 9436680,
      "componentType": 5126,
      "count": 65533,
      "max": [
        0.6448513269424438,
        0.6770567893981934
      ],
      "min": [
        0.3498820662498474,
        0.5183777213096619
      ],
      "type": "VEC2"
    },
    {
      "bufferView": 1,
      "byteOffset": 9960944,
      "componentType": 5126,
      "count": 65533,
      "max": [
        0.6448513269424438,
        0.6770567893981934
      ],
      "min": [
        0.3498820662498474,
        0.5183777213096619
      ],
      "type": "VEC2"
    },
    {
      "bufferView": 1,
      "byteOffset": 10485208,
      "componentType": 5126,
      "count": 65533,
      "max": [
        0.6448513269424438,
        0.6770567893981934
      ],
      "min": [
        0.3498820662498474,
        0.5183777213096619
      ],
      "type": "VEC2"
    },
    {
      "bufferView": 0,
      "byteOffset": 2577888,
      "componentType": 5125,
      "count": 102747,
      "type": "SCALAR"
    },
    {
      "bufferView": 2,
      "byteOffset": 11009472,
      "componentType": 5126,
      "count": 24482,
      "max": [
        2.7678661346435547,
        12.91002082824707,
        8.011405944824219
      ],
      "min": [
        -6.352295875549316,
        -4.556369781494141,
        7.954221725463867
      ],
      "type": "VEC3"
    },
    {
      "bufferView": 2,
      "byteOffset": 11303256,
      "componentType": 5126,
      "count": 24482,
      "max": [
        1.0,
        1.0,
        1.0
      ],
      "min": [
        -1.0,
        -1.0,
        -1.0
      ],
      "type": "VEC3"
    },
    {
      "bufferView": 3,
      "byteOffset": 7339648,
      "componentType": 5126,
      "count": 24482,
      "max": [
        1.0,
        1.0,
        1.0,
        1.0
      ],
      "min": [
        -1.0,
        -1.0,
        -1.0,
        -1.0
      ],
      "type": "VEC4"
    },
    {
      "bufferView": 1,
      "byteOffset": 11009472,
      "componentType": 5126,
      "count": 24482,
      "max": [
        0.6448513269424438,
        0.6770567893981934
      ],
      "min": [
        0.349882036447525,
        0.5500528216362
      ],
      "type": "VEC2"
    },
    {
      "bufferView": 1,
      "byteOffset": 11205328,
      "componentType": 5126,
      "count": 24482,
      "max": [
        0.6448513269424438,
        0.6770567893981934
      ],
      "min": [
        0.349882036447525,
        0.5500528216362
      ],
      "type": "VEC2"
    },
    {
      "bufferView": 1,
      "byteOffset": 11401184,
      "componentType": 5126,
      "count": 24482,
      "max": [
        0.6448513269424438,
        0.6770567893981934
      ],
      "min": [
        0.349882036447525,
        0.5500528216362
      ],
      "type": "VEC2"
    },
    {
      "bufferView": 0,
      "byteOffset": 2988876,
      "componentType": 5125,
      "count": 55695,
      "type": "SCALAR"
    }
  ],
  "asset": {
    "extras": {
      "author": "samixalam (https://sketchfab.com/samixalam)",
      "license": "SKETCHFAB Standard (https://sketchfab.com/licenses)",
      "source": "https://sketchfab.com/3d-models/tunnel-test-6984811d83454439b17e4ccf06bc3fe8",
      "title": "Tunnel Test"
    },
    "generator": "Sketchfab-16.52.0",
    "version": "2.0"
  },
  "bufferViews": [
    {
      "buffer": 0,
      "byteLength": 3211656,
      "name": "floatBufferViews",
      "target": 34963
    },
    {
      "buffer": 0,
      "byteLength": 11597040,
      "byteOffset": 3211656,
      "byteStride": 8,
      "name": "floatBufferViews",
      "target": 34962
    },
    {
      "buffer": 0,
      "byteLength": 11597040,
      "byteOffset": 14808696,
      "byteStride": 12,
      "name": "floatBufferViews",
      "target": 34962
    },
    {
      "buffer": 0,
      "byteLength": 7731360,
      "byteOffset": 26405736,
      "byteStride": 16,
      "name": "floatBufferViews",
      "target": 34962
    }
  ],
  "buffers": [
    {
      "byteLength": 34137096,
      "uri": "scene.bin"
    }
  ],
  "extensionsUsed": [
    "KHR_materials_clearcoat",
    "KHR_materials_specular"
  ],
  "images": [
    {
      "uri": "textures/Material.001_baseColor.jpeg"
    },
    {
      "uri": "textures/Material.001_metallicRoughness.png"
    },
    {
      "uri": "textures/Material.001_emissive.jpeg"
    },
    {
      "uri": "textures/Material.001_normal.png"
    },
    {
      "uri": "textures/Material.001_clearcoat.png"
    },
    {
      "uri": "textures/Material.001_specularf0.png"
    }
  ],
  "materials": [
    {
      "doubleSided": true,
      "emissiveFactor": [
        0.228572125172191,
        0.228572125172191,
        0.228572125172191
      ],
      "emissiveTexture": {
        "index": 2
      },
      "extensions": {
        "KHR_materials_clearcoat": {
          "clearcoatFactor": 0.5287635162316685,
          "clearcoatRoughnessFactor": 1.0,
          "clearcoatTexture": {
            "index": 4
          }
        },
        "KHR_materials_specular": {
          "specularColorFactor": [
            1.0,
            1.0,
            1.0
          ],
          "specularFactor": 1.0,
          "specularTexture": {
            "index": 5
          }
        }
      },
      "name": "Material.001",
      "normalTexture": {
        "index": 3,
        "texCoord": 1
      },
      "pbrMetallicRoughness": {
        "baseColorTexture": {
          "index": 0
        },
        "metallicFactor": 0.7116212163694212,
        "metallicRoughnessTexture": {
          "index": 1
        }
      }
    }
  ],
  "meshes": [
    {
      "name": "Plane_Material.001_0",
      "primitives": [
        {
          "attributes": {
            "NORMAL": 1,
            "POSITION": 0,
            "TANGENT": 2,
            "TEXCOORD_0": 3,
            "TEXCOORD_1": 4,
            "TEXCOORD_2": 5
          },
          "indices": 6,
          "material": 0,
          "mode": 4
        }
      ]
    },
    {
      "name": "Plane_Material.001_0",
      "primitives": [
        {
          "attributes": {
            "NORMAL": 8,
            "POSITION": 7,
            "TANGENT": 9,
            "TEXCOORD_0": 10,
            "TEXCOORD_1": 11,
            "TEXCOORD_2": 12
          },
          "indices": 13,
          "material": 0,
          "mode": 4
        }
      ]
    },
    {
      "name": "Plane_Material.001_0",
      "primitives": [
        {
          "attributes": {
            "NORMAL": 15,
            "POSITION": 14,
            "TANGENT": 16,
            "TEXCOORD_0": 17,
            "TEXCOORD_1": 18,
            "TEXCOORD_2": 19
          },
          "indices": 20,
          "material": 0,
          "mode": 4
        }
      ]
    },
    {
      "name": "Plane_Material.001_0",
      "primitives": [
        {
          "attributes": {
            "NORMAL": 22,
            "POSITION": 21,
            "TANGENT": 23,
            "TEXCOORD_0": 24,
            "TEXCOORD_1": 25,
            "TEXCOORD_2": 26
          },
          "indices": 27,
          "material": 0,
          "mode": 4
        }
      ]
    },
    {
      "name": "Plane_Material.001_0",
      "primitives": [
        {
          "attributes": {
            "NORMAL": 29,
            "POSITION": 28,
            "TANGENT": 30,
            "TEXCOORD_0": 31,
            "TEXCOORD_1": 32,
            "TEXCOORD_2": 33
          },
          "indices": 34,
          "material": 0,
          "mode": 4
        }
      ]
    },
    {
      "name": "Plane_Material.001_0",
      "primitives": [
        {
          "attributes": {
            "NORMAL": 36,
            "POSITION": 35,
            "TANGENT": 37,
            "TEXCOORD_0": 38,
            "TEXCOORD_1": 39,
            "TEXCOORD_2": 40
          },
          "indices": 41,
          "material": 0,
          "mode": 4
        }
      ]
    },
    {
      "name": "Plane_Material.001_0",
      "primitives": [
        {
          "attributes": {
            "NORMAL": 43,
            "POSITION": 42,
            "TANGENT": 44,
            "TEXCOORD_0": 45,
            "TEXCOORD_1": 46,
            "TEXCOORD_2": 47
          },
          "indices": 48,
          "material": 0,
          "mode": 4
        }
      ]
    },
    {
      "name": "Plane_Material.001_0",
      "primitives": [
        {
          "attributes": {
            "NORMAL": 50,
            "POSITION": 49,
            "TANGENT": 51,
            "TEXCOORD_0": 52,
            "TEXCOORD_1": 53,
            "TEXCOORD_2": 54
          },
          "indices": 55,
          "material": 0,
          "mode": 4
        }
      ]
    }
  ],
  "nodes": [
    {
      "children": [
        1
      ],
      "matrix": [
        7.029562825210391e-17,
        7.029562825210391e-17,
        -0.3165833652019501,
        0.0,
        -7.029562825210391e-17,
        -0.3165833652019501,
        -7.029562825210391e-17,
        0.0,
        -0.3165833652019501,
        7.029562825210392e-17,
        -7.02956282521039e-17,
        0.0,
        0.0,
        0.0,
        0.0,
        1.0
      ],
      "name": "Sketchfab_model"
    },
    {
      "children": [
        2
      ],
      "matrix": [
        0.009999999776482582,
        0.0,
        0.0,
        0.0,
        0.0,
        0.0,
        0.009999999776482582,
        0.0,
        0.0,
        -0.009999999776482582,
        0.0,
        0.0,
        0.0,
        0.0,
        0.0,
        1.0
      ],
      "name": "Tunnel.fbx"
    },
    {
      "children": [
        3
      ],
      "name": "RootNode"
    },
    {
      "children": [
        4,
        5,
        6,
        7,
        8,
        9,
        10,
        11
      ],
      "matrix": [
        100.0,
        0.0,
        0.0,
        0.0,
        0.0,
        100.0,
        0.0,
        0.0,
        0.0,
        0.0,
        100.0,
        0.0,
        0.0,
        0.0,
        0.0,
        1.0
      ],
      "name": "Plane"
    },
    {
      "mesh": 0,
      "name": "Plane_Material.001_0"
    },
    {
      "mesh": 1,
      "name": "Plane_Material.001_0"
    },
    {
      "mesh": 2,
      "name": "Plane_Material.001_0"
    },
    {
      "mesh": 3,
      "name": "Plane_Material.001_0"
    },
    {
      "mesh": 4,
      "name": "Plane_Material.001_0"
    },
    {
      "mesh": 5,
      "name": "Plane_Material.001_0"
    },
    {
      "mesh": 6,
      "name": "Plane_Material.001_0"
    },
    {
      "mesh": 7,
      "name": "Plane_Material.001_0"
    }
  ],
  "samplers": [
    {
      "magFilter": 9729,
      "minFilter": 9987,
      "wrapS": 10497,
      "wrapT": 10497
    }
  ],
  "scene": 0,
  "scenes": [
    {
      "name": "Sketchfab_Scene",
      "nodes": [
        0
      ]
    }
  ],
  "textures": [
    {
      "sampler": 0,
      "source": 0
    },
    {
      "sampler": 0,
      "source": 1
    },
    {
      "sampler": 0,
      "source": 2
    },
    {
      "sampler": 0,
      "source": 3
    },
    {
      "sampler": 0,
      "source": 4
    },
    {
      "sampler": 0,
      "source": 5
    }
  ]
}
