<svg width="88" height="116" viewBox="0 0 88 116" fill="none" xmlns="http://www.w3.org/2000/svg">
<path fill-rule="evenodd" clip-rule="evenodd" d="M81.1034 30.8746C79.0705 29.267 76.3996 28.1875 73.0906 27.636C71.2986 27.2947 69.2933 27.124 67.0746 27.124C58.8826 27.124 50.1786 29.4707 40.9626 34.164C42.1573 32.5427 43.0106 31.348 43.5226 30.58C47.1066 25.8867 50.0079 21.6627 52.2266 17.908C54.4452 14.068 55.5546 10.5267 55.5546 7.284C55.5546 6.17467 55.3839 5.15067 55.0426 4.21201C54.1892 1.73734 52.2266 0.5 49.1546 0.5C45.9972 0.5 42.1999 1.56667 37.7626 3.7C33.3252 5.83334 29.7412 7.88133 27.0106 9.844C26.1572 10.4413 25.2613 11.2093 24.3226 12.148C24.1519 12.3187 23.5546 12.8733 22.5306 13.812C21.5919 14.7507 20.6533 15.3907 19.7146 15.732C19.4586 15.8173 19.0746 15.86 18.5626 15.86H17.5386C16.7706 15.86 16.2159 15.9453 15.8746 16.116C14.7652 16.5427 13.7412 17.268 12.8026 18.292C11.8639 19.316 10.9252 20.5533 9.98657 22.004C6.74391 27.124 5.12257 31.092 5.12257 33.908C5.12257 34.5053 5.16525 34.9747 5.25058 35.316C5.33591 35.6573 5.71991 36.212 6.40257 36.98C7.17057 37.6627 7.59725 38.132 7.68259 38.388C8.36525 39.4973 8.87725 41.1613 9.21858 43.38C9.47458 45.0013 9.60258 46.708 9.60258 48.5C9.60258 50.2067 9.55991 51.7 9.47458 52.98C9.38925 54.26 9.30392 55.3267 9.21858 56.18C9.13325 56.8627 9.04792 57.6733 8.96259 58.612C8.87725 59.4653 8.83458 60.4893 8.83458 61.684C8.57858 66.292 8.10924 73.204 7.42657 82.42C7.34124 83.5293 7.29858 84.5533 7.29858 85.492C7.38392 86.4307 7.42657 87.2413 7.42657 87.924V90.996C7.42657 94.9213 7.04258 97.9933 6.27458 100.212C5.93325 101.065 5.12258 102.345 3.84258 104.052C2.73324 105.673 1.92258 106.953 1.41058 107.892C0.898583 108.745 0.642578 109.684 0.642578 110.708C0.642578 111.476 0.813238 112.159 1.15457 112.756C2.0079 114.292 3.71458 115.06 6.27458 115.06C9.60258 115.06 13.6132 114.079 18.3066 112.116C22.9999 110.153 27.1813 108.191 30.8506 106.228C42.1999 100.425 52.5252 93.556 61.8266 85.62C64.6745 83.1204 69.6324 78.1138 69.6324 78.1138C81.9997 66.164 95.9863 41.9743 81.1034 30.8746ZM71.5546 58.868C72.4079 56.82 72.8346 54.9 72.8346 53.108C72.8346 47.5613 68.6106 44.788 60.1626 44.788C56.2372 44.788 51.9706 45.3853 47.3626 46.58C42.8399 47.6893 39.2559 48.9267 36.6106 50.292C32.0026 52.596 28.5892 54.8573 26.3706 57.076C24.2372 59.2093 23.1279 62.2387 23.0426 66.164C22.9572 72.1373 22.7866 77.3853 22.5306 81.908C22.2746 86.3453 21.8052 90.74 21.1226 95.092C31.4479 91.252 41.0053 86.388 49.7946 80.5C55.5973 76.66 60.2906 73.1613 63.8746 70.004C67.4586 66.7613 70.0186 63.0493 71.5546 58.868ZM24.5786 31.092C24.5786 32.372 24.4933 34.4627 24.3226 37.364C24.1519 39.0707 24.0666 40.436 24.0666 41.46L29.5706 34.292C32.6426 30.2813 34.9892 27.1667 36.6106 24.948C38.2319 22.644 39.7252 20.1693 41.0906 17.524C38.1039 18.2067 35.4586 18.9747 33.1546 19.828C30.8506 20.596 28.7599 21.62 26.8826 22.9C25.8586 23.668 25.1332 24.308 24.7066 24.82C24.3652 25.332 24.1946 25.8867 24.1946 26.484C24.1946 26.996 24.2373 27.6787 24.3226 28.532C24.4933 29.3853 24.5786 30.2387 24.5786 31.092Z" fill="#86C05A"/>
</svg>
