{
  "accessors": [
    {
      "bufferView": 2,
      "componentType": 5126,
      "count": 65532,
      "max": [
        8.868982315063477,
        1.2712589502334595,
        14.402276039123535
      ],
      "min": [
        6.813817024230957,
        -4.8555588722229,
        8.378789901733398
      ],
      "type": "VEC3"
    },
    {
      "bufferView": 2,
      "byteOffset": 786384,
      "componentType": 5126,
      "count": 65532,
      "max": [
        0.9921402335166931,
        0.9688722491264343,
        0.7005577683448792
      ],
      "min": [
        -1.0,
        -0.9999328851699829,
        -0.9999946355819702
      ],
      "type": "VEC3"
    },
    {
      "bufferView": 1,
      "componentType": 5126,
      "count": 65532,
      "max": [
        0.9600510001182556,
        0.9570789933204651
      ],
      "min": [
        0.011365000158548355,
        0.119098000228405
      ],
      "type": "VEC2"
    },
    {
      "bufferView": 0,
      "componentType": 5125,
      "count": 356739,
      "type": "SCALAR"
    },
    {
      "bufferView": 2,
      "byteOffset": 1572768,
      "componentType": 5126,
      "count": 65532,
      "max": [
        8.868041038513184,
        0.8262190222740173,
        14.401007652282715
      ],
      "min": [
        2.679080009460449,
        -4.850766181945801,
        9.748111724853516
      ],
      "type": "VEC3"
    },
    {
      "bufferView": 2,
      "byteOffset": 2359152,
      "componentType": 5126,
      "count": 65532,
      "max": [
        0.9973472356796265,
        0.9965291023254395,
        0.7347633838653564
      ],
      "min": [
        -0.9999996423721313,
        -0.9661552309989929,
        -0.9999995231628418
      ],
      "type": "VEC3"
    },
    {
      "bufferView": 1,
      "byteOffset": 524256,
      "componentType": 5126,
      "count": 65532,
      "max": [
        0.9972370266914368,
        0.9495419859886169
      ],
      "min": [
        0.012908999808132648,
        0.01052900031208992
      ],
      "type": "VEC2"
    },
    {
      "bufferView": 0,
      "byteOffset": 1426956,
      "componentType": 5125,
      "count": 359868,
      "type": "SCALAR"
    },
    {
      "bufferView": 2,
      "byteOffset": 3145536,
      "componentType": 5126,
      "count": 65532,
      "max": [
        8.814300537109375,
        2.033673048019409,
        14.375551223754883
      ],
      "min": [
        1.658059000968933,
        -2.639616012573242,
        11.423340797424316
      ],
      "type": "VEC3"
    },
    {
      "bufferView": 2,
      "byteOffset": 3931920,
      "componentType": 5126,
      "count": 65532,
      "max": [
        0.9999605417251587,
        0.9999209046363831,
        0.6452869772911072
      ],
      "min": [
        -0.9999998807907104,
        -0.9999988675117493,
        -0.9999995231628418
      ],
      "type": "VEC3"
    },
    {
      "bufferView": 1,
      "byteOffset": 1048512,
      "componentType": 5126,
      "count": 65532,
      "max": [
        0.984529972076416,
        0.9472759962081909
      ],
      "min": [
        0.011397000402212143,
        0.022161999717354774
      ],
      "type": "VEC2"
    },
    {
      "bufferView": 0,
      "byteOffset": 2866428,
      "componentType": 5125,
      "count": 366612,
      "type": "SCALAR"
    },
    {
      "bufferView": 2,
      "byteOffset": 4718304,
      "componentType": 5126,
      "count": 65532,
      "max": [
        8.861367225646973,
        2.119473934173584,
        14.279991149902344
      ],
      "min": [
        3.691420078277588,
        -0.7234100103378296,
        8.48438835144043
      ],
      "type": "VEC3"
    },
    {
      "bufferView": 2,
      "byteOffset": 5504688,
      "componentType": 5126,
      "count": 65532,
      "max": [
        0.9931163787841797,
        0.9574710130691528,
        0.5134382247924805
      ],
      "min": [
        -0.9999992251396179,
        -0.9999993443489075,
        -0.9999998807907104
      ],
      "type": "VEC3"
    },
    {
      "bufferView": 1,
      "byteOffset": 1572768,
      "componentType": 5126,
      "count": 65532,
      "max": [
        0.9794089794158936,
        0.9431610107421875
      ],
      "min": [
        0.023050999268889427,
        0.026837000623345375
      ],
      "type": "VEC2"
    },
    {
      "bufferView": 0,
      "byteOffset": 4332876,
      "componentType": 5125,
      "count": 363042,
      "type": "SCALAR"
    },
    {
      "bufferView": 2,
      "byteOffset": 6291072,
      "componentType": 5126,
      "count": 65532,
      "max": [
        8.787103652954102,
        2.1807680130004883,
        14.299114227294922
      ],
      "min": [
        1.6213489770889282,
        -4.853635787963867,
        7.463498115539551
      ],
      "type": "VEC3"
    },
    {
      "bufferView": 2,
      "byteOffset": 7077456,
      "componentType": 5126,
      "count": 65532,
      "max": [
        0.9999983310699463,
        0.9991660118103027,
        0.9596390128135681
      ],
      "min": [
        -0.9999686479568481,
        -0.9999997615814209,
        -0.9999970197677612
      ],
      "type": "VEC3"
    },
    {
      "bufferView": 1,
      "byteOffset": 2097024,
      "componentType": 5126,
      "count": 65532,
      "max": [
        0.9658660292625427,
        0.9786019921302795
      ],
      "min": [
        0.025476999580860138,
        0.02524399943649769
      ],
      "type": "VEC2"
    },
    {
      "bufferView": 0,
      "byteOffset": 5785044,
      "componentType": 5125,
      "count": 363972,
      "type": "SCALAR"
    },
    {
      "bufferView": 2,
      "byteOffset": 7863840,
      "componentType": 5126,
      "count": 65532,
      "max": [
        4.231278896331787,
        2.101901054382324,
        14.19440746307373
      ],
      "min": [
        1.491832971572876,
        -4.712693214416504,
        8.74274730682373
      ],
      "type": "VEC3"
    },
    {
      "bufferView": 2,
      "byteOffset": 8650224,
      "componentType": 5126,
      "count": 65532,
      "max": [
        0.9999996423721313,
        0.998944878578186,
        0.8352304100990295
      ],
      "min": [
        -0.761398196220398,
        -0.9999602437019348,
        -0.9999927878379822
      ],
      "type": "VEC3"
    },
    {
      "bufferView": 1,
      "byteOffset": 2621280,
      "componentType": 5126,
      "count": 65532,
      "max": [
        0.8992490172386169,
        0.9534580111503601
      ],
      "min": [
        0.027317000553011894,
        1.2999999853491317e-05
      ],
      "type": "VEC2"
    },
    {
      "bufferView": 0,
      "byteOffset": 7240932,
      "componentType": 5125,
      "count": 362235,
      "type": "SCALAR"
    },
    {
      "bufferView": 2,
      "byteOffset": 9436608,
      "componentType": 5126,
      "count": 65532,
      "max": [
        8.8518705368042,
        2.2369110584259033,
        14.221664428710938
      ],
      "min": [
        1.701917052268982,
        -4.855967044830322,
        7.554515838623047
      ],
      "type": "VEC3"
    },
    {
      "bufferView": 2,
      "byteOffset": 10222992,
      "componentType": 5126,
      "count": 65532,
      "max": [
        0.9999993443489075,
        0.9999103546142578,
        0.9456512331962585
      ],
      "min": [
        -0.9999969005584717,
        -0.9999974966049194,
        -0.9999977350234985
      ],
      "type": "VEC3"
    },
    {
      "bufferView": 1,
      "byteOffset": 3145536,
      "componentType": 5126,
      "count": 65532,
      "max": [
        0.9564719796180725,
        0.9461849927902222
      ],
      "min": [
        0.0028570001013576984,
        0.010529999621212482
      ],
      "type": "VEC2"
    },
    {
      "bufferView": 0,
      "byteOffset": 8689872,
      "componentType": 5125,
      "count": 359037,
      "type": "SCALAR"
    },
    {
      "bufferView": 2,
      "byteOffset": 11009376,
      "componentType": 5126,
      "count": 65532,
      "max": [
        8.906965255737305,
        2.0473039150238037,
        11.826223373413086
      ],
      "min": [
        5.864795207977295,
        -3.7066619396209717,
        4.697453022003174
      ],
      "type": "VEC3"
    },
    {
      "bufferView": 2,
      "byteOffset": 11795760,
      "componentType": 5126,
      "count": 65532,
      "max": [
        0.5230799317359924,
        0.9999902248382568,
        0.9173116683959961
      ],
      "min": [
        -0.9999998807907104,
        -0.9999043345451355,
        -0.9999884963035583
      ],
      "type": "VEC3"
    },
    {
      "bufferView": 1,
      "byteOffset": 3669792,
      "componentType": 5126,
      "count": 65532,
      "max": [
        0.98710697889328,
        0.9959509968757629
      ],
      "min": [
        0.04221099987626076,
        0.12954199314117432
      ],
      "type": "VEC2"
    },
    {
      "bufferView": 0,
      "byteOffset": 10126020,
      "componentType": 5125,
      "count": 352812,
      "type": "SCALAR"
    },
    {
      "bufferView": 2,
      "byteOffset": 12582144,
      "componentType": 5126,
      "count": 65532,
      "max": [
        8.888705253601074,
        2.3641679286956787,
        11.860870361328125
      ],
      "min": [
        1.4327900409698486,
        -3.809372901916504,
        4.765379905700684
      ],
      "type": "VEC3"
    },
    {
      "bufferView": 2,
      "byteOffset": 13368528,
      "componentType": 5126,
      "count": 65532,
      "max": [
        0.9644246697425842,
        0.99997478723526,
        0.9987571239471436
      ],
      "min": [
        -0.9999988675117493,
        -0.9999996423721313,
        -0.9999988675117493
      ],
      "type": "VEC3"
    },
    {
      "bufferView": 1,
      "byteOffset": 4194048,
      "componentType": 5126,
      "count": 65532,
      "max": [
        0.9954509735107422,
        0.9960280060768127
      ],
      "min": [
        0.010970000177621841,
        0.006961999926716089
      ],
      "type": "VEC2"
    },
    {
      "bufferView": 0,
      "byteOffset": 11537268,
      "componentType": 5125,
      "count": 359718,
      "type": "SCALAR"
    },
    {
      "bufferView": 2,
      "byteOffset": 14154912,
      "componentType": 5126,
      "count": 65532,
      "max": [
        7.66464900970459,
        2.205596923828125,
        9.874309539794922
      ],
      "min": [
        1.3906079530715942,
        -4.180692195892334,
        4.742860794067383
      ],
      "type": "VEC3"
    },
    {
      "bufferView": 2,
      "byteOffset": 14941296,
      "componentType": 5126,
      "count": 65532,
      "max": [
        0.9999969005584717,
        0.9999984502792358,
        0.9996933341026306
      ],
      "min": [
        -0.9999907612800598,
        -0.9999194741249084,
        -0.9999998807907104
      ],
      "type": "VEC3"
    },
    {
      "bufferView": 1,
      "byteOffset": 4718304,
      "componentType": 5126,
      "count": 65532,
      "max": [
        0.99788898229599,
        0.9960460066795349
      ],
      "min": [
        0.0,
        0.0004980000085197389
      ],
      "type": "VEC2"
    },
    {
      "bufferView": 0,
      "byteOffset": 12976140,
      "componentType": 5125,
      "count": 357213,
      "type": "SCALAR"
    },
    {
      "bufferView": 2,
      "byteOffset": 15727680,
      "componentType": 5126,
      "count": 65532,
      "max": [
        8.873318672180176,
        2.3028640747070313,
        14.391633987426758
      ],
      "min": [
        1.4259239435195923,
        -4.856165885925293,
        4.584781169891357
      ],
      "type": "VEC3"
    },
    {
      "bufferView": 2,
      "byteOffset": 16514064,
      "componentType": 5126,
      "count": 65532,
      "max": [
        0.9999382495880127,
        0.9999337792396545,
        0.9996965527534485
      ],
      "min": [
        -0.999999463558197,
        -0.9999987483024597,
        -0.9999996423721313
      ],
      "type": "VEC3"
    },
    {
      "bufferView": 1,
      "byteOffset": 5242560,
      "componentType": 5126,
      "count": 65532,
      "max": [
        0.9980220198631287,
        0.9997850060462952
      ],
      "min": [
        2.300000051036477e-05,
        5.0999999075429514e-05
      ],
      "type": "VEC2"
    },
    {
      "bufferView": 0,
      "byteOffset": 14404992,
      "componentType": 5125,
      "count": 318987,
      "type": "SCALAR"
    },
    {
      "bufferView": 2,
      "byteOffset": 17300448,
      "componentType": 5126,
      "count": 65533,
      "max": [
        8.901660919189453,
        2.173801898956299,
        14.42709732055664
      ],
      "min": [
        1.567438006401062,
        -4.856215953826904,
        4.916100025177002
      ],
      "type": "VEC3"
    },
    {
      "bufferView": 2,
      "byteOffset": 18086844,
      "componentType": 5126,
      "count": 65533,
      "max": [
        0.9999973773956299,
        0.9999553561210632,
        0.9860026240348816
      ],
      "min": [
        -1.0,
        -0.9999938607215881,
        -0.9999992251396179
      ],
      "type": "VEC3"
    },
    {
      "bufferView": 1,
      "byteOffset": 5766816,
      "componentType": 5126,
      "count": 65533,
      "max": [
        0.9975090026855469,
        1.0
      ],
      "min": [
        0.010941999964416027,
        0.00047500000800937414
      ],
      "type": "VEC2"
    },
    {
      "bufferView": 0,
      "byteOffset": 15680940,
      "componentType": 5125,
      "count": 268320,
      "type": "SCALAR"
    },
    {
      "bufferView": 2,
      "byteOffset": 18873240,
      "componentType": 5126,
      "count": 65532,
      "max": [
        8.785614013671875,
        2.3507111072540283,
        9.826148986816406
      ],
      "min": [
        1.3694349527359009,
        -4.2727370262146,
        4.750178813934326
      ],
      "type": "VEC3"
    },
    {
      "bufferView": 2,
      "byteOffset": 19659624,
      "componentType": 5126,
      "count": 65532,
      "max": [
        0.9999945163726807,
        0.9999984502792358,
        0.9998507499694824
      ],
      "min": [
        -0.9999803304672241,
        -0.9999925494194031,
        -0.9999998807907104
      ],
      "type": "VEC3"
    },
    {
      "bufferView": 1,
      "byteOffset": 6291080,
      "componentType": 5126,
      "count": 65532,
      "max": [
        0.9978340268135071,
        1.0
      ],
      "min": [
        0.00010199999815085903,
        0.00020500000391621143
      ],
      "type": "VEC2"
    },
    {
      "bufferView": 0,
      "byteOffset": 16754220,
      "componentType": 5125,
      "count": 299508,
      "type": "SCALAR"
    },
    {
      "bufferView": 2,
      "byteOffset": 20446008,
      "componentType": 5126,
      "count": 65532,
      "max": [
        8.906196594238281,
        2.304785966873169,
        11.850622177124023
      ],
      "min": [
        1.4012900590896606,
        -4.209179878234863,
        4.588404178619385
      ],
      "type": "VEC3"
    },
    {
      "bufferView": 2,
      "byteOffset": 21232392,
      "componentType": 5126,
      "count": 65532,
      "max": [
        0.9999857544898987,
        0.9999502301216125,
        0.9993975162506104
      ],
      "min": [
        -0.9999992251396179,
        -0.9999996423721313,
        -0.9999971389770508
      ],
      "type": "VEC3"
    },
    {
      "bufferView": 1,
      "byteOffset": 6815336,
      "componentType": 5126,
      "count": 65532,
      "max": [
        0.9952930212020874,
        1.0
      ],
      "min": [
        0.0,
        0.0006709999870508909
      ],
      "type": "VEC2"
    },
    {
      "bufferView": 0,
      "byteOffset": 17952252,
      "componentType": 5125,
      "count": 255381,
      "type": "SCALAR"
    },
    {
      "bufferView": 2,
      "byteOffset": 22018776,
      "componentType": 5126,
      "count": 53515,
      "max": [
        8.850909233093262,
        2.1801540851593018,
        14.239033699035645
      ],
      "min": [
        1.6742850542068481,
        -4.856207847595215,
        8.593623161315918
      ],
      "type": "VEC3"
    },
    {
      "bufferView": 2,
      "byteOffset": 22660956,
      "componentType": 5126,
      "count": 53515,
      "max": [
        0.9999996423721313,
        0.9980821013450623,
        0.8826598525047302
      ],
      "min": [
        -1.0,
        -0.9999949932098389,
        -0.9999850988388062
      ],
      "type": "VEC3"
    },
    {
      "bufferView": 1,
      "byteOffset": 7339592,
      "componentType": 5126,
      "count": 53515,
      "max": [
        0.9939799904823303,
        0.99543297290802
      ],
      "min": [
        0.0019079999765381217,
        0.0008870000019669533
      ],
      "type": "VEC2"
    },
    {
      "bufferView": 0,
      "byteOffset": 18973776,
      "componentType": 5125,
      "count": 206556,
      "type": "SCALAR"
    }
  ],
  "asset": {
    "extras": {
      "author": "Arqueomodel3D (https://sketchfab.com/juanbrualla)",
      "license": "CC-BY-4.0 (http://creativecommons.org/licenses/by/4.0/)",
      "source": "https://sketchfab.com/3d-models/room-amorini-dorati-house-pompeii-cfa96aa02de94094a21cd70699f8c7a4",
      "title": "Room Amorini Dorati House | POMPEII"
    },
    "generator": "Sketchfab-16.7.0",
    "version": "2.0"
  },
  "bufferViews": [
    {
      "buffer": 0,
      "byteLength": 19800000,
      "name": "floatBufferViews",
      "target": 34963
    },
    {
      "buffer": 0,
      "byteLength": 7767712,
      "byteOffset": 19800000,
      "byteStride": 8,
      "name": "floatBufferViews",
      "target": 34962
    },
    {
      "buffer": 0,
      "byteLength": 23303136,
      "byteOffset": 27567712,
      "byteStride": 12,
      "name": "floatBufferViews",
      "target": 34962
    }
  ],
  "buffers": [
    {
      "byteLength": 50870848,
      "uri": "scene.bin"
    }
  ],
  "extensionsUsed": [
    "KHR_materials_unlit"
  ],
  "images": [
    {
      "uri": "textures/AMORINI_DORATI_ROOM.1001_baseColor.jpeg"
    }
  ],
  "materials": [
    {
      "doubleSided": true,
      "extensions": {
        "KHR_materials_unlit": {}
      },
      "name": "AMORINI_DORATI_ROOM.1001",
      "pbrMetallicRoughness": {
        "baseColorTexture": {
          "index": 0
        },
        "metallicFactor": 0.0
      }
    }
  ],
  "meshes": [
    {
      "name": "Object_0",
      "primitives": [
        {
          "attributes": {
            "NORMAL": 1,
            "POSITION": 0,
            "TEXCOORD_0": 2
          },
          "indices": 3,
          "material": 0,
          "mode": 4
        }
      ]
    },
    {
      "name": "Object_1",
      "primitives": [
        {
          "attributes": {
            "NORMAL": 5,
            "POSITION": 4,
            "TEXCOORD_0": 6
          },
          "indices": 7,
          "material": 0,
          "mode": 4
        }
      ]
    },
    {
      "name": "Object_2",
      "primitives": [
        {
          "attributes": {
            "NORMAL": 9,
            "POSITION": 8,
            "TEXCOORD_0": 10
          },
          "indices": 11,
          "material": 0,
          "mode": 4
        }
      ]
    },
    {
      "name": "Object_3",
      "primitives": [
        {
          "attributes": {
            "NORMAL": 13,
            "POSITION": 12,
            "TEXCOORD_0": 14
          },
          "indices": 15,
          "material": 0,
          "mode": 4
        }
      ]
    },
    {
      "name": "Object_4",
      "primitives": [
        {
          "attributes": {
            "NORMAL": 17,
            "POSITION": 16,
            "TEXCOORD_0": 18
          },
          "indices": 19,
          "material": 0,
          "mode": 4
        }
      ]
    },
    {
      "name": "Object_5",
      "primitives": [
        {
          "attributes": {
            "NORMAL": 21,
            "POSITION": 20,
            "TEXCOORD_0": 22
          },
          "indices": 23,
          "material": 0,
          "mode": 4
        }
      ]
    },
    {
      "name": "Object_6",
      "primitives": [
        {
          "attributes": {
            "NORMAL": 25,
            "POSITION": 24,
            "TEXCOORD_0": 26
          },
          "indices": 27,
          "material": 0,
          "mode": 4
        }
      ]
    },
    {
      "name": "Object_7",
      "primitives": [
        {
          "attributes": {
            "NORMAL": 29,
            "POSITION": 28,
            "TEXCOORD_0": 30
          },
          "indices": 31,
          "material": 0,
          "mode": 4
        }
      ]
    },
    {
      "name": "Object_8",
      "primitives": [
        {
          "attributes": {
            "NORMAL": 33,
            "POSITION": 32,
            "TEXCOORD_0": 34
          },
          "indices": 35,
          "material": 0,
          "mode": 4
        }
      ]
    },
    {
      "name": "Object_9",
      "primitives": [
        {
          "attributes": {
            "NORMAL": 37,
            "POSITION": 36,
            "TEXCOORD_0": 38
          },
          "indices": 39,
          "material": 0,
          "mode": 4
        }
      ]
    },
    {
      "name": "Object_10",
      "primitives": [
        {
          "attributes": {
            "NORMAL": 41,
            "POSITION": 40,
            "TEXCOORD_0": 42
          },
          "indices": 43,
          "material": 0,
          "mode": 4
        }
      ]
    },
    {
      "name": "Object_11",
      "primitives": [
        {
          "attributes": {
            "NORMAL": 45,
            "POSITION": 44,
            "TEXCOORD_0": 46
          },
          "indices": 47,
          "material": 0,
          "mode": 4
        }
      ]
    },
    {
      "name": "Object_12",
      "primitives": [
        {
          "attributes": {
            "NORMAL": 49,
            "POSITION": 48,
            "TEXCOORD_0": 50
          },
          "indices": 51,
          "material": 0,
          "mode": 4
        }
      ]
    },
    {
      "name": "Object_13",
      "primitives": [
        {
          "attributes": {
            "NORMAL": 53,
            "POSITION": 52,
            "TEXCOORD_0": 54
          },
          "indices": 55,
          "material": 0,
          "mode": 4
        }
      ]
    },
    {
      "name": "Object_14",
      "primitives": [
        {
          "attributes": {
            "NORMAL": 57,
            "POSITION": 56,
            "TEXCOORD_0": 58
          },
          "indices": 59,
          "material": 0,
          "mode": 4
        }
      ]
    }
  ],
  "nodes": [
    {
      "children": [
        1
      ],
      "matrix": [
        0.999961793422699,
        -0.008499709889292717,
        -0.002029739087447526,
        0.0,
        -0.008513666689395905,
        -0.999939501285553,
        -0.006969215814024432,
        0.0,
        -0.0019703798461705446,
        0.006986230146140082,
        -0.9999736547470093,
        0.0,
        0.0,
        0.0,
        0.0,
        1.0
      ],
      "name": "Sketchfab_model"
    },
    {
      "children": [
        2,
        3,
        4,
        5,
        6,
        7,
        8,
        9,
        10,
        11,
        12,
        13,
        14,
        15,
        16
      ],
      "name": "AMORINI_DORATI_ROOM.obj.cleaner.materialmerger.gles"
    },
    {
      "mesh": 0,
      "name": "Object_2"
    },
    {
      "mesh": 1,
      "name": "Object_3"
    },
    {
      "mesh": 2,
      "name": "Object_4"
    },
    {
      "mesh": 3,
      "name": "Object_5"
    },
    {
      "mesh": 4,
      "name": "Object_6"
    },
    {
      "mesh": 5,
      "name": "Object_7"
    },
    {
      "mesh": 6,
      "name": "Object_8"
    },
    {
      "mesh": 7,
      "name": "Object_9"
    },
    {
      "mesh": 8,
      "name": "Object_10"
    },
    {
      "mesh": 9,
      "name": "Object_11"
    },
    {
      "mesh": 10,
      "name": "Object_12"
    },
    {
      "mesh": 11,
      "name": "Object_13"
    },
    {
      "mesh": 12,
      "name": "Object_14"
    },
    {
      "mesh": 13,
      "name": "Object_15"
    },
    {
      "mesh": 14,
      "name": "Object_16"
    }
  ],
  "samplers": [
    {
      "magFilter": 9729,
      "minFilter": 9987,
      "wrapS": 10497,
      "wrapT": 10497
    }
  ],
  "scene": 0,
  "scenes": [
    {
      "name": "Sketchfab_Scene",
      "nodes": [
        0
      ]
    }
  ],
  "textures": [
    {
      "sampler": 0,
      "source": 0
    }
  ]
}
