{
  "accessors": [
    {
      "bufferView": 2,
      "componentType": 5126,
      "count": 65532,
      "max": [
        2.903625726699829,
        4.8545989990234375,
        1.5264949798583984
      ],
      "min": [
        -2.7287561893463135,
        -7.043212890625,
        -4.8218464851379395
      ],
      "type": "VEC3"
    },
    {
      "bufferView": 2,
      "byteOffset": 786384,
      "componentType": 5126,
      "count": 65532,
      "max": [
        0.9999997019767761,
        0.9999980330467224,
        0.999999463558197
      ],
      "min": [
        -0.9999997615814209,
        -0.9999732971191406,
        -0.9998979568481445
      ],
      "type": "VEC3"
    },
    {
      "bufferView": 1,
      "componentType": 5126,
      "count": 65532,
      "max": [
        0.9996073246002197,
        0.999610424041748
      ],
      "min": [
        0.050643883645534515,
        0.0003892475797329098
      ],
      "type": "VEC2"
    },
    {
      "bufferView": 0,
      "componentType": 5125,
      "count": 292497,
      "type": "SCALAR"
    },
    {
      "bufferView": 2,
      "byteOffset": 1572768,
      "componentType": 5126,
      "count": 65532,
      "max": [
        2.896085500717163,
        4.881438255310059,
        1.6076023578643799
      ],
      "min": [
        -2.7195346355438232,
        -7.090834140777588,
        -4.816890716552734
      ],
      "type": "VEC3"
    },
    {
      "bufferView": 2,
      "byteOffset": 2359152,
      "componentType": 5126,
      "count": 65532,
      "max": [
        0.9999998807907104,
        0.9999991655349731,
        0.9999984502792358
      ],
      "min": [
        -0.9999948143959045,
        -0.9999976754188538,
        -0.9999470114707947
      ],
      "type": "VEC3"
    },
    {
      "bufferView": 1,
      "byteOffset": 524256,
      "componentType": 5126,
      "count": 65532,
      "max": [
        0.999608039855957,
        0.9996103048324585
      ],
      "min": [
        0.04951738938689232,
        0.0003892475797329098
      ],
      "type": "VEC2"
    },
    {
      "bufferView": 0,
      "byteOffset": 1169988,
      "componentType": 5125,
      "count": 260496,
      "type": "SCALAR"
    },
    {
      "bufferView": 2,
      "byteOffset": 3145536,
      "componentType": 5126,
      "count": 65532,
      "max": [
        2.8930656909942627,
        4.881110191345215,
        1.5429105758666992
      ],
      "min": [
        -2.718360662460327,
        -7.01504373550415,
        -4.8218464851379395
      ],
      "type": "VEC3"
    },
    {
      "bufferView": 2,
      "byteOffset": 3931920,
      "componentType": 5126,
      "count": 65532,
      "max": [
        0.9999979138374329,
        0.9999997615814209,
        0.9999995231628418
      ],
      "min": [
        -0.9999997615814209,
        -0.9999915957450867,
        -0.9999372959136963
      ],
      "type": "VEC3"
    },
    {
      "bufferView": 1,
      "byteOffset": 1048512,
      "componentType": 5126,
      "count": 65532,
      "max": [
        0.9995851516723633,
        0.9996107220649719
      ],
      "min": [
        0.044075172394514084,
        0.006039168685674667
      ],
      "type": "VEC2"
    },
    {
      "bufferView": 0,
      "byteOffset": 2211972,
      "componentType": 5125,
      "count": 244305,
      "type": "SCALAR"
    },
    {
      "bufferView": 2,
      "byteOffset": 4718304,
      "componentType": 5126,
      "count": 65532,
      "max": [
        2.8799853324890137,
        4.881110191345215,
        1.4662142992019653
      ],
      "min": [
        -2.729724645614624,
        -7.063423156738281,
        -4.792497158050537
      ],
      "type": "VEC3"
    },
    {
      "bufferView": 2,
      "byteOffset": 5504688,
      "componentType": 5126,
      "count": 65532,
      "max": [
        0.9999998807907104,
        0.9999991655349731,
        0.9999997615814209
      ],
      "min": [
        -0.9999940991401672,
        -0.9999995827674866,
        -0.9999799728393555
      ],
      "type": "VEC3"
    },
    {
      "bufferView": 1,
      "byteOffset": 1572768,
      "componentType": 5126,
      "count": 65532,
      "max": [
        0.9996106028556824,
        0.9996106028556824
      ],
      "min": [
        0.0003892475797329098,
        0.013921450823545456
      ],
      "type": "VEC2"
    },
    {
      "bufferView": 0,
      "byteOffset": 3189192,
      "componentType": 5125,
      "count": 226467,
      "type": "SCALAR"
    },
    {
      "bufferView": 2,
      "byteOffset": 6291072,
      "componentType": 5126,
      "count": 65532,
      "max": [
        2.913290500640869,
        4.884891986846924,
        1.5251593589782715
      ],
      "min": [
        -2.7527966499328613,
        -7.030816078186035,
        -4.827574729919434
      ],
      "type": "VEC3"
    },
    {
      "bufferView": 2,
      "byteOffset": 7077456,
      "componentType": 5126,
      "count": 65532,
      "max": [
        1.0,
        0.9999951720237732,
        0.9999984502792358
      ],
      "min": [
        -0.9999998211860657,
        -0.9999982714653015,
        -0.9999844431877136
      ],
      "type": "VEC3"
    },
    {
      "bufferView": 1,
      "byteOffset": 2097024,
      "componentType": 5126,
      "count": 65532,
      "max": [
        0.9996103048324585,
        0.9996103644371033
      ],
      "min": [
        0.0013684245059266686,
        0.0018867820035666227
      ],
      "type": "VEC2"
    },
    {
      "bufferView": 0,
      "byteOffset": 4095060,
      "componentType": 5125,
      "count": 210411,
      "type": "SCALAR"
    },
    {
      "bufferView": 2,
      "byteOffset": 7863840,
      "componentType": 5126,
      "count": 65532,
      "max": [
        3.2184860706329346,
        4.879115104675293,
        1.4779902696609497
      ],
      "min": [
        -3.0233588218688965,
        -7.422856330871582,
        -4.818336009979248
      ],
      "type": "VEC3"
    },
    {
      "bufferView": 2,
      "byteOffset": 8650224,
      "componentType": 5126,
      "count": 65532,
      "max": [
        0.9999997615814209,
        0.9999886751174927,
        0.9999992251396179
      ],
      "min": [
        -0.9999995231628418,
        -0.99998539686203,
        -0.9999510645866394
      ],
      "type": "VEC3"
    },
    {
      "bufferView": 1,
      "byteOffset": 2621280,
      "componentType": 5126,
      "count": 65532,
      "max": [
        0.9996107220649719,
        0.9996098279953003
      ],
      "min": [
        0.00038924170075915754,
        0.0003892475797329098
      ],
      "type": "VEC2"
    },
    {
      "bufferView": 0,
      "byteOffset": 4936704,
      "componentType": 5125,
      "count": 213153,
      "type": "SCALAR"
    },
    {
      "bufferView": 2,
      "byteOffset": 9436608,
      "componentType": 5126,
      "count": 65532,
      "max": [
        3.2276418209075928,
        4.8804802894592285,
        1.450869083404541
      ],
      "min": [
        -3.0529592037200928,
        -7.497971057891846,
        -4.797880172729492
      ],
      "type": "VEC3"
    },
    {
      "bufferView": 2,
      "byteOffset": 10222992,
      "componentType": 5126,
      "count": 65532,
      "max": [
        0.9999998807907104,
        0.9999998211860657,
        0.9999990463256836
      ],
      "min": [
        -0.9999998807907104,
        -0.9999949932098389,
        -0.9998911619186401
      ],
      "type": "VEC3"
    },
    {
      "bufferView": 1,
      "byteOffset": 3145536,
      "componentType": 5126,
      "count": 65532,
      "max": [
        0.9996097683906555,
        0.9996016025543213
      ],
      "min": [
        0.0003892475797329098,
        0.0003892475797329098
      ],
      "type": "VEC2"
    },
    {
      "bufferView": 0,
      "byteOffset": 5789316,
      "componentType": 5125,
      "count": 279504,
      "type": "SCALAR"
    },
    {
      "bufferView": 2,
      "byteOffset": 11009376,
      "componentType": 5126,
      "count": 65532,
      "max": [
        3.229480743408203,
        5.086051940917969,
        1.3076136112213135
      ],
      "min": [
        -3.0347723960876465,
        -7.510523796081543,
        -4.8120808601379395
      ],
      "type": "VEC3"
    },
    {
      "bufferView": 2,
      "byteOffset": 11795760,
      "componentType": 5126,
      "count": 65532,
      "max": [
        0.9999998807907104,
        0.9999986290931702,
        0.9999998807907104
      ],
      "min": [
        -0.9999996423721313,
        -0.9999972581863403,
        -0.9999577403068542
      ],
      "type": "VEC3"
    },
    {
      "bufferView": 1,
      "byteOffset": 3669792,
      "componentType": 5126,
      "count": 65532,
      "max": [
        0.9996097087860107,
        0.9991841316223145
      ],
      "min": [
        0.0003892498498316854,
        0.0003892475797329098
      ],
      "type": "VEC2"
    },
    {
      "bufferView": 0,
      "byteOffset": 6907332,
      "componentType": 5125,
      "count": 289596,
      "type": "SCALAR"
    },
    {
      "bufferView": 2,
      "byteOffset": 12582144,
      "componentType": 5126,
      "count": 65532,
      "max": [
        3.0271172523498535,
        4.935827732086182,
        1.501194715499878
      ],
      "min": [
        -2.8751795291900635,
        -7.510523796081543,
        -4.813048839569092
      ],
      "type": "VEC3"
    },
    {
      "bufferView": 2,
      "byteOffset": 13368528,
      "componentType": 5126,
      "count": 65532,
      "max": [
        0.9999998807907104,
        0.9999986290931702,
        0.9999983906745911
      ],
      "min": [
        -0.9999901056289673,
        -0.9999979138374329,
        -0.9999983906745911
      ],
      "type": "VEC3"
    },
    {
      "bufferView": 1,
      "byteOffset": 4194048,
      "componentType": 5126,
      "count": 65532,
      "max": [
        0.9996091723442078,
        0.9996106624603271
      ],
      "min": [
        0.0003892498498316854,
        0.0012252515880391002
      ],
      "type": "VEC2"
    },
    {
      "bufferView": 0,
      "byteOffset": 8065716,
      "componentType": 5125,
      "count": 273696,
      "type": "SCALAR"
    },
    {
      "bufferView": 2,
      "byteOffset": 14154912,
      "componentType": 5126,
      "count": 65532,
      "max": [
        3.232424259185791,
        5.0976715087890625,
        1.5672527551651
      ],
      "min": [
        -3.0342109203338623,
        -7.490360736846924,
        -4.816551208496094
      ],
      "type": "VEC3"
    },
    {
      "bufferView": 2,
      "byteOffset": 14941296,
      "componentType": 5126,
      "count": 65532,
      "max": [
        0.9999985098838806,
        0.9999979734420776,
        0.9999995231628418
      ],
      "min": [
        -0.9999903440475464,
        -0.9999979138374329,
        -0.9999979734420776
      ],
      "type": "VEC3"
    },
    {
      "bufferView": 1,
      "byteOffset": 4718304,
      "componentType": 5126,
      "count": 65532,
      "max": [
        0.9996002316474915,
        0.99960857629776
      ],
      "min": [
        0.0023795235902071,
        0.004506433382630348
      ],
      "type": "VEC2"
    },
    {
      "bufferView": 0,
      "byteOffset": 9160500,
      "componentType": 5125,
      "count": 267150,
      "type": "SCALAR"
    },
    {
      "bufferView": 2,
      "byteOffset": 15727680,
      "componentType": 5126,
      "count": 65532,
      "max": [
        3.226619243621826,
        5.19569730758667,
        1.4686845541000366
      ],
      "min": [
        -3.0526251792907715,
        -7.518738746643066,
        -4.7599568367004395
      ],
      "type": "VEC3"
    },
    {
      "bufferView": 2,
      "byteOffset": 16514064,
      "componentType": 5126,
      "count": 65532,
      "max": [
        0.9999991655349731,
        0.9999991059303284,
        0.9999974370002747
      ],
      "min": [
        -0.9999991655349731,
        -0.9999998211860657,
        -0.9999844431877136
      ],
      "type": "VEC3"
    },
    {
      "bufferView": 1,
      "byteOffset": 5242560,
      "componentType": 5126,
      "count": 65532,
      "max": [
        0.9996097683906555,
        0.9996101260185242
      ],
      "min": [
        0.0003892498498316854,
        0.0003892475797329098
      ],
      "type": "VEC2"
    },
    {
      "bufferView": 0,
      "byteOffset": 10229100,
      "componentType": 5125,
      "count": 262665,
      "type": "SCALAR"
    },
    {
      "bufferView": 2,
      "byteOffset": 17300448,
      "componentType": 5126,
      "count": 49232,
      "max": [
        3.2276418209075928,
        5.19150972366333,
        1.3472130298614502
      ],
      "min": [
        -3.078563928604126,
        -7.473020076751709,
        -4.76685905456543
      ],
      "type": "VEC3"
    },
    {
      "bufferView": 2,
      "byteOffset": 17891232,
      "componentType": 5126,
      "count": 49232,
      "max": [
        0.9999998807907104,
        0.9999972581863403,
        0.9999918341636658
      ],
      "min": [
        -0.9999997019767761,
        -0.999996542930603,
        -0.9999625086784363
      ],
      "type": "VEC3"
    },
    {
      "bufferView": 1,
      "byteOffset": 5766816,
      "componentType": 5126,
      "count": 49232,
      "max": [
        0.9995696544647217,
        0.9996089935302734
      ],
      "min": [
        0.0003892498498316854,
        0.00045925035374239087
      ],
      "type": "VEC2"
    },
    {
      "bufferView": 0,
      "byteOffset": 11279760,
      "componentType": 5125,
      "count": 180060,
      "type": "SCALAR"
    }
  ],
  "asset": {
    "extras": {
      "author": "CT Aerial Surveys (https://sketchfab.com/CTAerialSurveys)",
      "license": "CC-BY-4.0 (http://creativecommons.org/licenses/by/4.0/)",
      "source": "https://sketchfab.com/3d-models/chapel-of-our-lady-on-the-bridge-interior-364d0c9c4c084bd084fa7be5eb6b2ee0",
      "title": "Chapel of Our Lady on the Bridge (Interior)"
    },
    "generator": "Sketchfab-15.31.0",
    "version": "2.0"
  },
  "bufferViews": [
    {
      "buffer": 0,
      "byteLength": 12000000,
      "name": "floatBufferViews",
      "target": 34963
    },
    {
      "buffer": 0,
      "byteLength": 6160672,
      "byteOffset": 12000000,
      "byteStride": 8,
      "name": "floatBufferViews",
      "target": 34962
    },
    {
      "buffer": 0,
      "byteLength": 18482016,
      "byteOffset": 18160672,
      "byteStride": 12,
      "name": "floatBufferViews",
      "target": 34962
    }
  ],
  "buffers": [
    {
      "byteLength": 36642688,
      "uri": "scene.bin"
    }
  ],
  "extensionsUsed": [
    "KHR_materials_unlit"
  ],
  "images": [
    {
      "uri": "textures/texture_material_baseColor.jpeg"
    }
  ],
  "materials": [
    {
      "extensions": {
        "KHR_materials_unlit": {}
      },
      "name": "texture_material",
      "pbrMetallicRoughness": {
        "baseColorTexture": {
          "index": 0
        },
        "metallicFactor": 0.0
      }
    }
  ],
  "meshes": [
    {
      "name": "mesh_out_node_texture_material_0",
      "primitives": [
        {
          "attributes": {
            "NORMAL": 1,
            "POSITION": 0,
            "TEXCOORD_0": 2
          },
          "indices": 3,
          "material": 0,
          "mode": 4
        }
      ]
    },
    {
      "name": "mesh_out_node_texture_material_0",
      "primitives": [
        {
          "attributes": {
            "NORMAL": 5,
            "POSITION": 4,
            "TEXCOORD_0": 6
          },
          "indices": 7,
          "material": 0,
          "mode": 4
        }
      ]
    },
    {
      "name": "mesh_out_node_texture_material_0",
      "primitives": [
        {
          "attributes": {
            "NORMAL": 9,
            "POSITION": 8,
            "TEXCOORD_0": 10
          },
          "indices": 11,
          "material": 0,
          "mode": 4
        }
      ]
    },
    {
      "name": "mesh_out_node_texture_material_0",
      "primitives": [
        {
          "attributes": {
            "NORMAL": 13,
            "POSITION": 12,
            "TEXCOORD_0": 14
          },
          "indices": 15,
          "material": 0,
          "mode": 4
        }
      ]
    },
    {
      "name": "mesh_out_node_texture_material_0",
      "primitives": [
        {
          "attributes": {
            "NORMAL": 17,
            "POSITION": 16,
            "TEXCOORD_0": 18
          },
          "indices": 19,
          "material": 0,
          "mode": 4
        }
      ]
    },
    {
      "name": "mesh_out_node_texture_material_0",
      "primitives": [
        {
          "attributes": {
            "NORMAL": 21,
            "POSITION": 20,
            "TEXCOORD_0": 22
          },
          "indices": 23,
          "material": 0,
          "mode": 4
        }
      ]
    },
    {
      "name": "mesh_out_node_texture_material_0",
      "primitives": [
        {
          "attributes": {
            "NORMAL": 25,
            "POSITION": 24,
            "TEXCOORD_0": 26
          },
          "indices": 27,
          "material": 0,
          "mode": 4
        }
      ]
    },
    {
      "name": "mesh_out_node_texture_material_0",
      "primitives": [
        {
          "attributes": {
            "NORMAL": 29,
            "POSITION": 28,
            "TEXCOORD_0": 30
          },
          "indices": 31,
          "material": 0,
          "mode": 4
        }
      ]
    },
    {
      "name": "mesh_out_node_texture_material_0",
      "primitives": [
        {
          "attributes": {
            "NORMAL": 33,
            "POSITION": 32,
            "TEXCOORD_0": 34
          },
          "indices": 35,
          "material": 0,
          "mode": 4
        }
      ]
    },
    {
      "name": "mesh_out_node_texture_material_0",
      "primitives": [
        {
          "attributes": {
            "NORMAL": 37,
            "POSITION": 36,
            "TEXCOORD_0": 38
          },
          "indices": 39,
          "material": 0,
          "mode": 4
        }
      ]
    },
    {
      "name": "mesh_out_node_texture_material_0",
      "primitives": [
        {
          "attributes": {
            "NORMAL": 41,
            "POSITION": 40,
            "TEXCOORD_0": 42
          },
          "indices": 43,
          "material": 0,
          "mode": 4
        }
      ]
    },
    {
      "name": "mesh_out_node_texture_material_0",
      "primitives": [
        {
          "attributes": {
            "NORMAL": 45,
            "POSITION": 44,
            "TEXCOORD_0": 46
          },
          "indices": 47,
          "material": 0,
          "mode": 4
        }
      ]
    }
  ],
  "nodes": [
    {
      "children": [
        1
      ],
      "matrix": [
        -0.9923090934753418,
        -1.5957547021843738e-16,
        2.810982778969576e-16,
        0.0,
        -2.8109827789695765e-16,
        -6.076139727270942e-17,
        -0.9923090934753418,
        0.0,
        1.595754702184373e-16,
        -0.9923090934753418,
        6.076139727270942e-17,
        0.0,
        0.0,
        0.0,
        0.0,
        1.0
      ],
      "name": "Sketchfab_model"
    },
    {
      "children": [
        2
      ],
      "matrix": [
        1.0,
        0.0,
        0.0,
        0.0,
        0.0,
        -1.0,
        0.0,
        0.0,
        0.0,
        0.0,
        -1.0,
        0.0,
        0.0,
        0.0,
        0.0,
        1.0
      ],
      "name": "52c4581d6f2448288bbbd859b93283bf.fbx"
    },
    {
      "children": [
        3
      ],
      "name": "RootNode"
    },
    {
      "children": [
        4,
        5,
        6,
        7,
        8,
        9,
        10,
        11,
        12,
        13,
        14,
        15
      ],
      "name": "mesh_out_node"
    },
    {
      "mesh": 0,
      "name": "mesh_out_node_texture_material_0"
    },
    {
      "mesh": 1,
      "name": "mesh_out_node_texture_material_0"
    },
    {
      "mesh": 2,
      "name": "mesh_out_node_texture_material_0"
    },
    {
      "mesh": 3,
      "name": "mesh_out_node_texture_material_0"
    },
    {
      "mesh": 4,
      "name": "mesh_out_node_texture_material_0"
    },
    {
      "mesh": 5,
      "name": "mesh_out_node_texture_material_0"
    },
    {
      "mesh": 6,
      "name": "mesh_out_node_texture_material_0"
    },
    {
      "mesh": 7,
      "name": "mesh_out_node_texture_material_0"
    },
    {
      "mesh": 8,
      "name": "mesh_out_node_texture_material_0"
    },
    {
      "mesh": 9,
      "name": "mesh_out_node_texture_material_0"
    },
    {
      "mesh": 10,
      "name": "mesh_out_node_texture_material_0"
    },
    {
      "mesh": 11,
      "name": "mesh_out_node_texture_material_0"
    }
  ],
  "samplers": [
    {
      "magFilter": 9729,
      "minFilter": 9987,
      "wrapS": 10497,
      "wrapT": 10497
    }
  ],
  "scene": 0,
  "scenes": [
    {
      "name": "Sketchfab_Scene",
      "nodes": [
        0
      ]
    }
  ],
  "textures": [
    {
      "sampler": 0,
      "source": 0
    }
  ]
}
