{
  "accessors": [
    {
      "bufferView": 2,
      "componentType": 5126,
      "count": 65534,
      "max": [
        25.76111602783203,
        12.264819145202637,
        23.775203704833984
      ],
      "min": [
        8.107027053833008,
        -16.592395782470703,
        5.116033554077148
      ],
      "type": "VEC3"
    },
    {
      "bufferView": 2,
      "byteOffset": 786408,
      "componentType": 5126,
      "count": 65534,
      "max": [
        0.9996410012245178,
        0.99782794713974,
        0.9875916242599487
      ],
      "min": [
        -0.9999966621398926,
        -0.931800127029419,
        -0.9999996423721313
      ],
      "type": "VEC3"
    },
    {
      "bufferView": 1,
      "componentType": 5126,
      "count": 65534,
      "max": [
        0.8285885453224182,
        0.5658524036407471
      ],
      "min": [
        0.147785484790802,
        0.325716108083725
      ],
      "type": "VEC2"
    },
    {
      "bufferView": 0,
      "componentType": 5125,
      "count": 364767,
      "type": "SCALAR"
    },
    {
      "bufferView": 2,
      "byteOffset": 1572816,
      "componentType": 5126,
      "count": 65532,
      "max": [
        26.63397789001465,
        18.443538665771484,
        23.259845733642578
      ],
      "min": [
        16.29262924194336,
        -19.301626205444336,
        -0.10994058102369308
      ],
      "type": "VEC3"
    },
    {
      "bufferView": 2,
      "byteOffset": 2359200,
      "componentType": 5126,
      "count": 65532,
      "max": [
        0.9959994554519653,
        0.9998154640197754,
        0.999326765537262
      ],
      "min": [
        -0.9999992847442627,
        -0.9968265891075134,
        -0.9999999403953552
      ],
      "type": "VEC3"
    },
    {
      "bufferView": 1,
      "byteOffset": 524272,
      "componentType": 5126,
      "count": 65532,
      "max": [
        0.9999854564666748,
        0.9985251426696777
      ],
      "min": [
        0.0033496443647891283,
        0.06068744137883186
      ],
      "type": "VEC2"
    },
    {
      "bufferView": 0,
      "byteOffset": 1459068,
      "componentType": 5125,
      "count": 339549,
      "type": "SCALAR"
    },
    {
      "bufferView": 2,
      "byteOffset": 3145584,
      "componentType": 5126,
      "count": 65532,
      "max": [
        26.2568302154541,
        16.356916427612305,
        24.052764892578125
      ],
      "min": [
        12.050202369689941,
        -23.223392486572266,
        -0.11695349216461182
      ],
      "type": "VEC3"
    },
    {
      "bufferView": 2,
      "byteOffset": 3931968,
      "componentType": 5126,
      "count": 65532,
      "max": [
        0.9989058375358582,
        0.9997689723968506,
        0.99934321641922
      ],
      "min": [
        -0.9999997019767761,
        -0.993195652961731,
        -0.9999999403953552
      ],
      "type": "VEC3"
    },
    {
      "bufferView": 1,
      "byteOffset": 1048528,
      "componentType": 5126,
      "count": 65532,
      "max": [
        0.9635065793991089,
        0.9976720213890076
      ],
      "min": [
        0.006323143839836121,
        0.06338554620742798
      ],
      "type": "VEC2"
    },
    {
      "bufferView": 0,
      "byteOffset": 2817264,
      "componentType": 5125,
      "count": 314151,
      "type": "SCALAR"
    },
    {
      "bufferView": 2,
      "byteOffset": 4718352,
      "componentType": 5126,
      "count": 65532,
      "max": [
        26.046655654907227,
        22.106491088867188,
        26.903364181518555
      ],
      "min": [
        3.6892950534820557,
        -27.23735809326172,
        13.504507064819336
      ],
      "type": "VEC3"
    },
    {
      "bufferView": 2,
      "byteOffset": 5504736,
      "componentType": 5126,
      "count": 65532,
      "max": [
        0.9998269081115723,
        0.9998074769973755,
        0.9953625202178955
      ],
      "min": [
        -0.9999346733093262,
        -0.9999878406524658,
        -0.9999999403953552
      ],
      "type": "VEC3"
    },
    {
      "bufferView": 1,
      "byteOffset": 1572784,
      "componentType": 5126,
      "count": 65532,
      "max": [
        0.9698681831359863,
        0.8091310858726501
      ],
      "min": [
        0.006027296185493469,
        0.05374406278133392
      ],
      "type": "VEC2"
    },
    {
      "bufferView": 0,
      "byteOffset": 4073868,
      "componentType": 5125,
      "count": 340956,
      "type": "SCALAR"
    },
    {
      "bufferView": 2,
      "byteOffset": 6291120,
      "componentType": 5126,
      "count": 65532,
      "max": [
        26.26942253112793,
        14.713987350463867,
        27.656925201416016
      ],
      "min": [
        -20.304689407348633,
        -37.1677360534668,
        -13.340276718139648
      ],
      "type": "VEC3"
    },
    {
      "bufferView": 2,
      "byteOffset": 7077504,
      "componentType": 5126,
      "count": 65532,
      "max": [
        0.9999995827674866,
        0.9999983906745911,
        0.9998736381530762
      ],
      "min": [
        -0.9999921321868896,
        -0.999753475189209,
        -1.0
      ],
      "type": "VEC3"
    },
    {
      "bufferView": 1,
      "byteOffset": 2097040,
      "componentType": 5126,
      "count": 65532,
      "max": [
        0.9881384968757629,
        0.9983909130096436
      ],
      "min": [
        0.001646006596274674,
        0.00176102458499372
      ],
      "type": "VEC2"
    },
    {
      "bufferView": 0,
      "byteOffset": 5437692,
      "componentType": 5125,
      "count": 333771,
      "type": "SCALAR"
    },
    {
      "bufferView": 2,
      "byteOffset": 7863888,
      "componentType": 5126,
      "count": 65532,
      "max": [
        27.381216049194336,
        25.381654739379883,
        26.443824768066406
      ],
      "min": [
        -22.331188201904297,
        -12.116510391235352,
        -28.29707145690918
      ],
      "type": "VEC3"
    },
    {
      "bufferView": 2,
      "byteOffset": 8650272,
      "componentType": 5126,
      "count": 65532,
      "max": [
        0.9999933242797852,
        0.9999974966049194,
        0.9999926090240479
      ],
      "min": [
        -0.9999975562095642,
        -0.9999976754188538,
        -0.9999991059303284
      ],
      "type": "VEC3"
    },
    {
      "bufferView": 1,
      "byteOffset": 2621296,
      "componentType": 5126,
      "count": 65532,
      "max": [
        0.9998728036880493,
        0.9985029101371765
      ],
      "min": [
        0.00024287197447847575,
        1.683191476331558e-05
      ],
      "type": "VEC2"
    },
    {
      "bufferView": 0,
      "byteOffset": 6772776,
      "componentType": 5125,
      "count": 336291,
      "type": "SCALAR"
    },
    {
      "bufferView": 2,
      "byteOffset": 9436656,
      "componentType": 5126,
      "count": 65532,
      "max": [
        17.864425659179688,
        7.857752323150635,
        26.332731246948242
      ],
      "min": [
        -25.34209632873535,
        -38.62460708618164,
        -27.77738380432129
      ],
      "type": "VEC3"
    },
    {
      "bufferView": 2,
      "byteOffset": 10223040,
      "componentType": 5126,
      "count": 65532,
      "max": [
        0.999998927116394,
        0.9999992251396179,
        0.999933660030365
      ],
      "min": [
        -0.9996311664581299,
        -0.9824777245521545,
        -0.9999988079071045
      ],
      "type": "VEC3"
    },
    {
      "bufferView": 1,
      "byteOffset": 3145552,
      "componentType": 5126,
      "count": 65532,
      "max": [
        0.9698752760887146,
        0.9914541840553284
      ],
      "min": [
        0.02229212038218975,
        0.0030181168112903833
      ],
      "type": "VEC2"
    },
    {
      "bufferView": 0,
      "byteOffset": 8117940,
      "componentType": 5125,
      "count": 350181,
      "type": "SCALAR"
    },
    {
      "bufferView": 2,
      "byteOffset": 11009424,
      "componentType": 5126,
      "count": 65532,
      "max": [
        14.602834701538086,
        22.170757293701172,
        29.697141647338867
      ],
      "min": [
        -25.333454132080078,
        -38.6116943359375,
        -8.088727951049805
      ],
      "type": "VEC3"
    },
    {
      "bufferView": 2,
      "byteOffset": 11795808,
      "componentType": 5126,
      "count": 65532,
      "max": [
        0.9999992251396179,
        0.9999958872795105,
        0.9990809559822083
      ],
      "min": [
        -0.9979185461997986,
        -0.9975165128707886,
        -0.9999968409538269
      ],
      "type": "VEC3"
    },
    {
      "bufferView": 1,
      "byteOffset": 3669808,
      "componentType": 5126,
      "count": 65532,
      "max": [
        0.9949326515197754,
        0.9975080490112305
      ],
      "min": [
        0.002629517577588558,
        0.0005143102025613189
      ],
      "type": "VEC2"
    },
    {
      "bufferView": 0,
      "byteOffset": 9518664,
      "componentType": 5125,
      "count": 319971,
      "type": "SCALAR"
    },
    {
      "bufferView": 2,
      "byteOffset": 12582192,
      "componentType": 5126,
      "count": 65532,
      "max": [
        25.225467681884766,
        25.477210998535156,
        41.74637985229492
      ],
      "min": [
        -23.847909927368164,
        -34.46425247192383,
        -28.38048553466797
      ],
      "type": "VEC3"
    },
    {
      "bufferView": 2,
      "byteOffset": 13368576,
      "componentType": 5126,
      "count": 65532,
      "max": [
        0.9999994039535522,
        0.9999843835830688,
        0.999993085861206
      ],
      "min": [
        -0.9998010396957397,
        -0.9999900460243225,
        -0.9999991059303284
      ],
      "type": "VEC3"
    },
    {
      "bufferView": 1,
      "byteOffset": 4194064,
      "componentType": 5126,
      "count": 65532,
      "max": [
        0.9994650483131409,
        0.9979850053787231
      ],
      "min": [
        0.0016770418733358383,
        2.452242188155651e-05
      ],
      "type": "VEC2"
    },
    {
      "bufferView": 0,
      "byteOffset": 10798548,
      "componentType": 5125,
      "count": 328626,
      "type": "SCALAR"
    },
    {
      "bufferView": 2,
      "byteOffset": 14154960,
      "componentType": 5126,
      "count": 65532,
      "max": [
        26.303255081176758,
        24.42502784729004,
        31.49005126953125
      ],
      "min": [
        -25.34209632873535,
        -31.81785011291504,
        -28.909147262573242
      ],
      "type": "VEC3"
    },
    {
      "bufferView": 2,
      "byteOffset": 14941344,
      "componentType": 5126,
      "count": 65532,
      "max": [
        0.9999980330467224,
        0.9999998807907104,
        0.9999721050262451
      ],
      "min": [
        -0.9999989867210388,
        -0.9999737739562988,
        -0.9999985694885254
      ],
      "type": "VEC3"
    },
    {
      "bufferView": 1,
      "byteOffset": 4718320,
      "componentType": 5126,
      "count": 65532,
      "max": [
        0.9999918341636658,
        0.9984472990036011
      ],
      "min": [
        0.0037675853818655014,
        0.00012185020023025572
      ],
      "type": "VEC2"
    },
    {
      "bufferView": 0,
      "byteOffset": 12113052,
      "componentType": 5125,
      "count": 304875,
      "type": "SCALAR"
    },
    {
      "bufferView": 2,
      "byteOffset": 15727728,
      "componentType": 5126,
      "count": 65532,
      "max": [
        24.70600128173828,
        22.072423934936523,
        26.246627807617188
      ],
      "min": [
        -23.5004825592041,
        -22.262935638427734,
        -19.030784606933594
      ],
      "type": "VEC3"
    },
    {
      "bufferView": 2,
      "byteOffset": 16514112,
      "componentType": 5126,
      "count": 65532,
      "max": [
        0.9999984502792358,
        0.9999977946281433,
        0.9999970197677612
      ],
      "min": [
        -0.9999992251396179,
        -0.9999975562095642,
        -0.9999991059303284
      ],
      "type": "VEC3"
    },
    {
      "bufferView": 1,
      "byteOffset": 5242576,
      "componentType": 5126,
      "count": 65532,
      "max": [
        0.9944614768028259,
        0.9974965453147888
      ],
      "min": [
        0.00021588243544101715,
        0.0011419873917475343
      ],
      "type": "VEC2"
    },
    {
      "bufferView": 0,
      "byteOffset": 13332552,
      "componentType": 5125,
      "count": 288483,
      "type": "SCALAR"
    },
    {
      "bufferView": 2,
      "byteOffset": 17300496,
      "componentType": 5126,
      "count": 65532,
      "max": [
        26.451587677001953,
        20.007814407348633,
        25.19485092163086
      ],
      "min": [
        -8.859773635864258,
        -19.087284088134766,
        -15.45870304107666
      ],
      "type": "VEC3"
    },
    {
      "bufferView": 2,
      "byteOffset": 18086880,
      "componentType": 5126,
      "count": 65532,
      "max": [
        0.9999193549156189,
        0.9999717473983765,
        0.9998989105224609
      ],
      "min": [
        -0.9999998807907104,
        -0.999998927116394,
        -0.9999992251396179
      ],
      "type": "VEC3"
    },
    {
      "bufferView": 1,
      "byteOffset": 5766832,
      "componentType": 5126,
      "count": 65532,
      "max": [
        0.9952148795127869,
        0.9940308928489685
      ],
      "min": [
        9.587883687345311e-05,
        0.002590919379144907
      ],
      "type": "VEC2"
    },
    {
      "bufferView": 0,
      "byteOffset": 14486484,
      "componentType": 5125,
      "count": 314610,
      "type": "SCALAR"
    },
    {
      "bufferView": 2,
      "byteOffset": 18873264,
      "componentType": 5126,
      "count": 65532,
      "max": [
        25.88044548034668,
        9.860905647277832,
        26.735593795776367
      ],
      "min": [
        -10.918607711791992,
        -39.293094635009766,
        -29.08261489868164
      ],
      "type": "VEC3"
    },
    {
      "bufferView": 2,
      "byteOffset": 19659648,
      "componentType": 5126,
      "count": 65532,
      "max": [
        0.9999796748161316,
        0.9999983310699463,
        0.9999998211860657
      ],
      "min": [
        -1.0,
        -0.9968776106834412,
        -0.9999948143959045
      ],
      "type": "VEC3"
    },
    {
      "bufferView": 1,
      "byteOffset": 6291088,
      "componentType": 5126,
      "count": 65532,
      "max": [
        0.9985107779502869,
        0.9900525808334351
      ],
      "min": [
        0.0020098183304071426,
        0.001069582998752594
      ],
      "type": "VEC2"
    },
    {
      "bufferView": 0,
      "byteOffset": 15744924,
      "componentType": 5125,
      "count": 322239,
      "type": "SCALAR"
    },
    {
      "bufferView": 2,
      "byteOffset": 20446032,
      "componentType": 5126,
      "count": 44945,
      "max": [
        25.94059944152832,
        16.26730728149414,
        27.430997848510742
      ],
      "min": [
        -3.945303440093994,
        -39.84257125854492,
        -28.350833892822266
      ],
      "type": "VEC3"
    },
    {
      "bufferView": 2,
      "byteOffset": 20985372,
      "componentType": 5126,
      "count": 44945,
      "max": [
        0.9999780654907227,
        0.9999997615814209,
        0.9999930262565613
      ],
      "min": [
        -0.9999992251396179,
        -0.99256831407547,
        -0.9999982118606567
      ],
      "type": "VEC3"
    },
    {
      "bufferView": 1,
      "byteOffset": 6815344,
      "componentType": 5126,
      "count": 44945,
      "max": [
        0.9999391436576843,
        0.9959219694137573
      ],
      "min": [
        0.0015571772819384933,
        0.0001553361798869446
      ],
      "type": "VEC2"
    },
    {
      "bufferView": 0,
      "byteOffset": 17033880,
      "componentType": 5125,
      "count": 197214,
      "type": "SCALAR"
    }
  ],
  "asset": {
    "extras": {
      "author": "yelizegi (https://sketchfab.com/yelizegi)",
      "license": "CC-BY-NC-4.0 (http://creativecommons.org/licenses/by-nc/4.0/)",
      "source": "https://sketchfab.com/3d-models/campanario-iglesia-esco-c778d25fd469432e93850a7ab63d106e",
      "title": "Campanario iglesia Escó"
    },
    "generator": "Sketchfab-15.53.0",
    "version": "2.0"
  },
  "bufferViews": [
    {
      "buffer": 0,
      "byteLength": 17822736,
      "name": "floatBufferViews",
      "target": 34963
    },
    {
      "buffer": 0,
      "byteLength": 7174904,
      "byteOffset": 17822736,
      "byteStride": 8,
      "name": "floatBufferViews",
      "target": 34962
    },
    {
      "buffer": 0,
      "byteLength": 21524712,
      "byteOffset": 24997640,
      "byteStride": 12,
      "name": "floatBufferViews",
      "target": 34962
    }
  ],
  "buffers": [
    {
      "byteLength": 46522352,
      "uri": "scene.bin"
    }
  ],
  "extensionsUsed": [
    "KHR_materials_unlit"
  ],
  "images": [
    {
      "uri": "textures/material0_baseColor.jpeg"
    }
  ],
  "materials": [
    {
      "extensions": {
        "KHR_materials_unlit": {}
      },
      "name": "material0",
      "pbrMetallicRoughness": {
        "baseColorTexture": {
          "index": 0
        },
        "metallicFactor": 0.0
      }
    }
  ],
  "meshes": [
    {
      "name": "Model_material0_0",
      "primitives": [
        {
          "attributes": {
            "NORMAL": 1,
            "POSITION": 0,
            "TEXCOORD_0": 2
          },
          "indices": 3,
          "material": 0,
          "mode": 4
        }
      ]
    },
    {
      "name": "Model_material0_0",
      "primitives": [
        {
          "attributes": {
            "NORMAL": 5,
            "POSITION": 4,
            "TEXCOORD_0": 6
          },
          "indices": 7,
          "material": 0,
          "mode": 4
        }
      ]
    },
    {
      "name": "Model_material0_0",
      "primitives": [
        {
          "attributes": {
            "NORMAL": 9,
            "POSITION": 8,
            "TEXCOORD_0": 10
          },
          "indices": 11,
          "material": 0,
          "mode": 4
        }
      ]
    },
    {
      "name": "Model_material0_0",
      "primitives": [
        {
          "attributes": {
            "NORMAL": 13,
            "POSITION": 12,
            "TEXCOORD_0": 14
          },
          "indices": 15,
          "material": 0,
          "mode": 4
        }
      ]
    },
    {
      "name": "Model_material0_0",
      "primitives": [
        {
          "attributes": {
            "NORMAL": 17,
            "POSITION": 16,
            "TEXCOORD_0": 18
          },
          "indices": 19,
          "material": 0,
          "mode": 4
        }
      ]
    },
    {
      "name": "Model_material0_0",
      "primitives": [
        {
          "attributes": {
            "NORMAL": 21,
            "POSITION": 20,
            "TEXCOORD_0": 22
          },
          "indices": 23,
          "material": 0,
          "mode": 4
        }
      ]
    },
    {
      "name": "Model_material0_0",
      "primitives": [
        {
          "attributes": {
            "NORMAL": 25,
            "POSITION": 24,
            "TEXCOORD_0": 26
          },
          "indices": 27,
          "material": 0,
          "mode": 4
        }
      ]
    },
    {
      "name": "Model_material0_0",
      "primitives": [
        {
          "attributes": {
            "NORMAL": 29,
            "POSITION": 28,
            "TEXCOORD_0": 30
          },
          "indices": 31,
          "material": 0,
          "mode": 4
        }
      ]
    },
    {
      "name": "Model_material0_0",
      "primitives": [
        {
          "attributes": {
            "NORMAL": 33,
            "POSITION": 32,
            "TEXCOORD_0": 34
          },
          "indices": 35,
          "material": 0,
          "mode": 4
        }
      ]
    },
    {
      "name": "Model_material0_0",
      "primitives": [
        {
          "attributes": {
            "NORMAL": 37,
            "POSITION": 36,
            "TEXCOORD_0": 38
          },
          "indices": 39,
          "material": 0,
          "mode": 4
        }
      ]
    },
    {
      "name": "Model_material0_0",
      "primitives": [
        {
          "attributes": {
            "NORMAL": 41,
            "POSITION": 40,
            "TEXCOORD_0": 42
          },
          "indices": 43,
          "material": 0,
          "mode": 4
        }
      ]
    },
    {
      "name": "Model_material0_0",
      "primitives": [
        {
          "attributes": {
            "NORMAL": 45,
            "POSITION": 44,
            "TEXCOORD_0": 46
          },
          "indices": 47,
          "material": 0,
          "mode": 4
        }
      ]
    },
    {
      "name": "Model_material0_0",
      "primitives": [
        {
          "attributes": {
            "NORMAL": 49,
            "POSITION": 48,
            "TEXCOORD_0": 50
          },
          "indices": 51,
          "material": 0,
          "mode": 4
        }
      ]
    },
    {
      "name": "Model_material0_0",
      "primitives": [
        {
          "attributes": {
            "NORMAL": 53,
            "POSITION": 52,
            "TEXCOORD_0": 54
          },
          "indices": 55,
          "material": 0,
          "mode": 4
        }
      ]
    }
  ],
  "nodes": [
    {
      "children": [
        1
      ],
      "matrix": [
        0.10000000149011612,
        0.0,
        0.0,
        0.0,
        0.0,
        2.2204460823375376e-17,
        -0.10000000149011612,
        0.0,
        0.0,
        0.10000000149011612,
        2.2204460823375376e-17,
        0.0,
        0.0,
        0.0,
        0.0,
        1.0
      ],
      "name": "Sketchfab_model"
    },
    {
      "children": [
        2
      ],
      "matrix": [
        1.0,
        0.0,
        0.0,
        0.0,
        0.0,
        -1.0,
        0.0,
        0.0,
        0.0,
        0.0,
        -1.0,
        0.0,
        0.0,
        0.0,
        0.0,
        1.0
      ],
      "name": "model.fbx"
    },
    {
      "children": [
        3
      ],
      "name": "RootNode"
    },
    {
      "children": [
        4,
        5,
        6,
        7,
        8,
        9,
        10,
        11,
        12,
        13,
        14,
        15,
        16,
        17
      ],
      "name": "Model"
    },
    {
      "mesh": 0,
      "name": "Model_material0_0"
    },
    {
      "mesh": 1,
      "name": "Model_material0_0"
    },
    {
      "mesh": 2,
      "name": "Model_material0_0"
    },
    {
      "mesh": 3,
      "name": "Model_material0_0"
    },
    {
      "mesh": 4,
      "name": "Model_material0_0"
    },
    {
      "mesh": 5,
      "name": "Model_material0_0"
    },
    {
      "mesh": 6,
      "name": "Model_material0_0"
    },
    {
      "mesh": 7,
      "name": "Model_material0_0"
    },
    {
      "mesh": 8,
      "name": "Model_material0_0"
    },
    {
      "mesh": 9,
      "name": "Model_material0_0"
    },
    {
      "mesh": 10,
      "name": "Model_material0_0"
    },
    {
      "mesh": 11,
      "name": "Model_material0_0"
    },
    {
      "mesh": 12,
      "name": "Model_material0_0"
    },
    {
      "mesh": 13,
      "name": "Model_material0_0"
    }
  ],
  "samplers": [
    {
      "magFilter": 9729,
      "minFilter": 9987,
      "wrapS": 10497,
      "wrapT": 10497
    }
  ],
  "scene": 0,
  "scenes": [
    {
      "name": "Sketchfab_Scene",
      "nodes": [
        0
      ]
    }
  ],
  "textures": [
    {
      "sampler": 0,
      "source": 0
    }
  ]
}
