{
  "accessors": [
    {
      "bufferView": 2,
      "componentType": 5126,
      "count": 2541,
      "max": [
        5.010244369506836,
        5.010244846343994,
        5.010244846343994
      ],
      "min": [
        -5.010244369506836,
        -5.010244369506836,
        -5.010244846343994
      ],
      "type": "VEC3"
    },
    {
      "bufferView": 2,
      "byteOffset": 30492,
      "componentType": 5126,
      "count": 2541,
      "max": [
        1.0,
        1.0,
        1.0
      ],
      "min": [
        -1.0,
        -1.0,
        -1.0
      ],
      "type": "VEC3"
    },
    {
      "bufferView": 3,
      "componentType": 5126,
      "count": 2541,
      "max": [
        0.9999997019767761,
        0.7088148593902588,
        0.9999850988388062,
        1.0
      ],
      "min": [
        -0.7070971727371216,
        -0.7081750631332397,
        -0.9999997019767761,
        1.0
      ],
      "type": "VEC4"
    },
    {
      "bufferView": 1,
      "componentType": 5126,
      "count": 2541,
      "max": [
        0.9690057039260864,
        0.976699948310852
      ],
      "min": [
        0.03334888815879822,
        0.03169199824333191
      ],
      "type": "VEC2"
    },
    {
      "bufferView": 0,
      "componentType": 5125,
      "count": 14400,
      "type": "SCALAR"
    },
    {
      "bufferView": 2,
      "byteOffset": 60984,
      "componentType": 5126,
      "count": 258,
      "max": [
        12.907472610473633,
        12.907471656799316,
        2.527220885895076e-07
      ],
      "min": [
        -12.907472610473633,
        -12.907471656799316,
        -2.384185791015625e-07
      ],
      "type": "VEC3"
    },
    {
      "bufferView": 2,
      "byteOffset": 64080,
      "componentType": 5126,
      "count": 258,
      "max": [
        2.3765772994011058e-07,
        1.0610685308165557e-07,
        1.0
      ],
      "min": [
        -2.3765772994011058e-07,
        -1.5125063157483964e-07,
        1.0
      ],
      "type": "VEC3"
    },
    {
      "bufferView": 3,
      "byteOffset": 40656,
      "componentType": 5126,
      "count": 258,
      "max": [
        1.0,
        1.0,
        4.166524192328325e-08,
        -1.0
      ],
      "min": [
        -1.0,
        -1.0,
        -4.375958084779086e-08,
        -1.0
      ],
      "type": "VEC4"
    },
    {
      "bufferView": 1,
      "byteOffset": 20328,
      "componentType": 5126,
      "count": 258,
      "max": [
        0.9741197824478149,
        6.393424034118652
      ],
      "min": [
        0.03992760181427002,
        -6.792241096496582
      ],
      "type": "VEC2"
    },
    {
      "bufferView": 0,
      "byteOffset": 57600,
      "componentType": 5125,
      "count": 768,
      "type": "SCALAR"
    },
    {
      "bufferView": 4,
      "componentType": 5126,
      "count": 2382,
      "max": [
        58.95833206176758
      ],
      "min": [
        0.0
      ],
      "type": "SCALAR"
    },
    {
      "bufferView": 5,
      "componentType": 5126,
      "count": 2382,
      "max": [
        0.49977171421051025,
        0.7071067094802856,
        0.7071067690849304,
        0.7071067690849304
      ],
      "min": [
        -0.7071067690849304,
        -0.499342143535614,
        -0.4993421733379364,
        -0.49977171421051025
      ],
      "type": "VEC4"
    }
  ],
  "animations": [
    {
      "channels": [
        {
          "sampler": 0,
          "target": {
            "node": 4,
            "path": "rotation"
          }
        }
      ],
      "name": "space_object_001_gas_giant|space_object_001_gas_giant_rotation",
      "samplers": [
        {
          "input": 10,
          "interpolation": "LINEAR",
          "output": 11
        }
      ]
    }
  ],
  "asset": {
    "extras": {
      "author": "Vaclav Marena (https://sketchfab.com/vaclavmarena)",
      "license": "SKETCHFAB Standard (https://sketchfab.com/licenses)",
      "source": "https://sketchfab.com/3d-models/space-object-001-gas-giant-aef853cc6a2a4f11ad32f0eee6fd044d",
      "title": "Space Object 001 - Gas Giant"
    },
    "generator": "Sketchfab-16.44.0",
    "version": "2.0"
  },
  "bufferViews": [
    {
      "buffer": 0,
      "byteLength": 60672,
      "name": "floatBufferViews",
      "target": 34963
    },
    {
      "buffer": 0,
      "byteLength": 22392,
      "byteOffset": 60672,
      "byteStride": 8,
      "name": "floatBufferViews",
      "target": 34962
    },
    {
      "buffer": 0,
      "byteLength": 67176,
      "byteOffset": 83064,
      "byteStride": 12,
      "name": "floatBufferViews",
      "target": 34962
    },
    {
      "buffer": 0,
      "byteLength": 44784,
      "byteOffset": 150240,
      "byteStride": 16,
      "name": "floatBufferViews",
      "target": 34962
    },
    {
      "buffer": 0,
      "byteLength": 9528,
      "byteOffset": 195024,
      "name": "floatBufferViews"
    },
    {
      "buffer": 0,
      "byteLength": 38112,
      "byteOffset": 204552,
      "byteStride": 16,
      "name": "floatBufferViews"
    }
  ],
  "buffers": [
    {
      "byteLength": 242664,
      "uri": "scene.bin"
    }
  ],
  "extensionsRequired": [
    "KHR_materials_pbrSpecularGlossiness"
  ],
  "extensionsUsed": [
    "KHR_materials_pbrSpecularGlossiness"
  ],
  "images": [
    {
      "uri": "textures/space_object_001_gas_giant_diffuse.png"
    },
    {
      "uri": "textures/space_object_001_gas_giant_normal.png"
    },
    {
      "uri": "textures/space_object_001_rings_diffuse.png"
    },
    {
      "uri": "textures/space_object_001_rings_normal.png"
    }
  ],
  "materials": [
    {
      "doubleSided": true,
      "extensions": {
        "KHR_materials_pbrSpecularGlossiness": {
          "diffuseFactor": [
            1.0,
            1.0,
            1.0,
            1.0
          ],
          "diffuseTexture": {
            "index": 0
          },
          "glossinessFactor": 0.1788854381999832,
          "specularFactor": [
            0.05,
            0.05,
            0.05
          ]
        }
      },
      "name": "space_object_001_gas_giant",
      "normalTexture": {
        "index": 1
      }
    },
    {
      "doubleSided": true,
      "extensions": {
        "KHR_materials_pbrSpecularGlossiness": {
          "diffuseFactor": [
            1.0,
            1.0,
            1.0,
            1.0
          ],
          "diffuseTexture": {
            "index": 2
          },
          "glossinessFactor": 0.19595917942265426,
          "specularFactor": [
            0.05,
            0.05,
            0.05
          ]
        }
      },
      "name": "space_object_001_rings",
      "normalTexture": {
        "index": 3
      }
    }
  ],
  "meshes": [
    {
      "name": "space_object_001_gas_giant_space_object_001_gas_giant_0",
      "primitives": [
        {
          "attributes": {
            "NORMAL": 1,
            "POSITION": 0,
            "TANGENT": 2,
            "TEXCOORD_0": 3
          },
          "indices": 4,
          "material": 0,
          "mode": 4
        }
      ]
    },
    {
      "name": "space_object_001_gas_giant_space_object_001_rings_0",
      "primitives": [
        {
          "attributes": {
            "NORMAL": 6,
            "POSITION": 5,
            "TANGENT": 7,
            "TEXCOORD_0": 8
          },
          "indices": 9,
          "material": 1,
          "mode": 4
        }
      ]
    }
  ],
  "nodes": [
    {
      "children": [
        1
      ],
      "matrix": [
        0.9762823581695557,
        0.21650129556655884,
        4.807294463983399e-17,
        0.0,
        0.0,
        2.220446049250313e-16,
        -1.0,
        0.0,
        -0.21650129556655884,
        0.9762823581695557,
        2.167782305150369e-16,
        0.0,
        0.0,
        0.0,
        0.0,
        1.0
      ],
      "name": "Sketchfab_model"
    },
    {
      "children": [
        2
      ],
      "matrix": [
        1.0,
        0.0,
        0.0,
        0.0,
        0.0,
        0.0,
        1.0,
        0.0,
        0.0,
        -1.0,
        0.0,
        0.0,
        0.0,
        0.0,
        0.0,
        1.0
      ],
      "name": "2a1ca2cf339e45a79c201e276f85c574.fbx"
    },
    {
      "children": [
        3
      ],
      "name": "Object_2"
    },
    {
      "children": [
        4
      ],
      "name": "RootNode"
    },
    {
      "children": [
        5,
        6
      ],
      "name": "space_object_001_gas_giant",
      "rotation": [
        -0.7070798873901367,
        -0.006170665379613638,
        -0.006170665379613638,
        0.7070798277854919
      ]
    },
    {
      "mesh": 0,
      "name": "space_object_001_gas_giant_space_object_001_gas_giant_0"
    },
    {
      "mesh": 1,
      "name": "space_object_001_gas_giant_space_object_001_rings_0"
    }
  ],
  "samplers": [
    {
      "magFilter": 9729,
      "minFilter": 9987,
      "wrapS": 10497,
      "wrapT": 10497
    }
  ],
  "scene": 0,
  "scenes": [
    {
      "name": "Sketchfab_Scene",
      "nodes": [
        0
      ]
    }
  ],
  "textures": [
    {
      "sampler": 0,
      "source": 0
    },
    {
      "sampler": 0,
      "source": 1
    },
    {
      "sampler": 0,
      "source": 2
    },
    {
      "sampler": 0,
      "source": 3
    }
  ]
}
