<svg width="58" height="58" viewBox="0 0 58 58" fill="none" xmlns="http://www.w3.org/2000/svg">
<g filter="url(#filter0_d_97_16)">
<path d="M4 0H54V50L30.5 25L4 0Z" fill="#E85F2E"/>
</g>
<g filter="url(#filter1_d_97_16)">
<path d="M35 11.1C35 8.28335 37.149 6 39.8 6H42.2C44.851 6 47 8.28335 47 11.1V17.9C47 20.7167 44.851 23 42.2 23H39.8C37.149 23 35 20.7167 35 17.9V11.1Z" fill="white"/>
<path d="M40.3333 7.67763C40.3333 7.28643 40.6318 6.89474 41 6.89474C41.3682 6.89474 41.6667 7.28643 41.6667 7.67763V9.76535C41.6667 10.1566 41.3682 10.4737 41 10.4737C40.6318 10.4737 40.3333 10.1566 40.3333 9.76535V7.67763Z" fill="#E85F2E"/>
<path d="M35 11.6667H47V12.375H35V11.6667Z" fill="#E85F2E"/>
<path d="M40.6667 11.6667L40.6667 6L41.3333 6L41.3333 11.6667H40.6667Z" fill="#E85F2E"/>
</g>
<defs>
<filter id="filter0_d_97_16" x="0" y="0" width="58" height="58" filterUnits="userSpaceOnUse" color-interpolation-filters="sRGB">
<feFlood flood-opacity="0" result="BackgroundImageFix"/>
<feColorMatrix in="SourceAlpha" type="matrix" values="0 0 0 0 0 0 0 0 0 0 0 0 0 0 0 0 0 0 127 0" result="hardAlpha"/>
<feOffset dy="4"/>
<feGaussianBlur stdDeviation="2"/>
<feComposite in2="hardAlpha" operator="out"/>
<feColorMatrix type="matrix" values="0 0 0 0 0 0 0 0 0 0 0 0 0 0 0 0 0 0 0.25 0"/>
<feBlend mode="normal" in2="BackgroundImageFix" result="effect1_dropShadow_97_16"/>
<feBlend mode="normal" in="SourceGraphic" in2="effect1_dropShadow_97_16" result="shape"/>
</filter>
<filter id="filter1_d_97_16" x="32" y="6" width="16" height="21" filterUnits="userSpaceOnUse" color-interpolation-filters="sRGB">
<feFlood flood-opacity="0" result="BackgroundImageFix"/>
<feColorMatrix in="SourceAlpha" type="matrix" values="0 0 0 0 0 0 0 0 0 0 0 0 0 0 0 0 0 0 127 0" result="hardAlpha"/>
<feOffset dx="-1" dy="2"/>
<feGaussianBlur stdDeviation="1"/>
<feComposite in2="hardAlpha" operator="out"/>
<feColorMatrix type="matrix" values="0 0 0 0 0.195833 0 0 0 0 0.195833 0 0 0 0 0.195833 0 0 0 0.35 0"/>
<feBlend mode="normal" in2="BackgroundImageFix" result="effect1_dropShadow_97_16"/>
<feBlend mode="normal" in="SourceGraphic" in2="effect1_dropShadow_97_16" result="shape"/>
</filter>
</defs>
</svg>
