<svg width="483" height="159" viewBox="0 0 483 159" fill="none" xmlns="http://www.w3.org/2000/svg">
<path d="M66.7603 15.4559C45.1697 15.4559 13.2574 25.2791 0 30.1907V158.5H483V6C476.845 9.43811 410.147 34.5884 386 39.5C361.853 44.4116 310.128 27.2438 308.707 27.2438C301.51 25.2855 278.089 8.0912 267.041 3.17695C257.944 -2.01676 243.841 0.721154 239.106 0.721154C235.318 0.721154 220.167 8.25226 213.065 12.0178C207.067 13.1639 196.493 14.4736 191.285 15.4559C187.558 16.1588 146.305 30.1907 127.839 30.1907C109.373 30.1907 93.7485 15.4559 66.7603 15.4559Z" fill="#272727"/>
</svg>
