<svg width="100%" height="100%" viewBox="0 0 900 600" fill="none" xmlns="http://www.w3.org/2000/svg">
  <path fill="white"
    d="M163.419 10.4001C163.59 8.77881 164.955 7.32814 167.515 6.04814C170.075 4.68281 172.507 4.00015 174.811 4.00015C177.542 4.00015 178.865 5.02415 178.779 7.07215C177.414 22.3468 175.153 43.4241 171.995 70.3041C169.947 88.6508 168.625 100.555 168.027 106.016C167.857 107.808 166.491 109.429 163.931 110.88C161.457 112.245 159.025 112.928 156.635 112.928C153.307 112.928 151.771 111.691 152.027 109.216C155.014 79.8615 158.811 46.9228 163.419 10.4001Z" />
  <path fill="white"
    d="M140.512 30.5818C140.684 29.1678 142.06 27.9026 144.641 26.7863C147.222 25.5955 149.673 25.0001 151.996 25.0001C154.749 25.0001 156.082 25.8932 155.996 27.6793C154.62 41.0009 152.34 59.3832 149.157 82.8262C147.093 98.827 145.759 109.209 145.157 113.972C144.985 115.535 143.609 116.949 141.028 118.214C138.533 119.405 136.082 120 133.673 120C130.318 120 128.77 118.921 129.028 116.763C132.038 91.1615 135.867 62.4345 140.512 30.5818Z" />
  <path fill="white"
    d="M141.233 22.3285C139.834 21.2356 139.188 19.5811 139.295 17.365C139.316 16.9388 139.436 16.2185 139.656 15.2039C140.376 12.6758 141.642 10.3449 143.454 8.21127C145.355 5.99655 147.49 4.26297 149.857 3.01056C151.696 2.07433 153.511 1.64951 155.301 1.73609C157.176 1.8268 158.594 2.53614 159.555 3.86412C160.273 4.92403 160.596 6.17847 160.526 7.62745C160.464 8.90595 160.002 10.5068 159.141 12.4301C158.173 14.7754 156.747 16.885 154.862 18.7588C153.062 20.6367 151.03 22.0334 148.764 22.949C146.933 23.7148 145.342 23.9368 143.99 23.6152C142.72 23.3829 141.801 22.954 141.233 22.3285Z" />
  <path
    fill="white"
    fillRule="evenodd"
    clipRule="evenodd"
    d="M81.4608 34.0383C79.4279 32.4308 76.757 31.3512 73.448 30.7997C71.656 30.4584 69.6507 30.2877 67.432 30.2877C59.24 30.2877 50.536 32.6344 41.32 37.3277C42.5147 35.7064 43.368 34.5117 43.88 33.7437C47.464 29.0504 50.3653 24.8264 52.584 21.0717C54.8027 17.2317 55.912 13.6904 55.912 10.4477C55.912 9.33839 55.7413 8.31439 55.4 7.37573C54.5467 4.90106 52.584 3.66372 49.512 3.66372C46.3547 3.66372 42.5573 4.73039 38.12 6.86373C33.6827 8.99706 30.0987 11.0451 27.368 13.0077C26.5147 13.6051 25.6187 14.3731 24.68 15.3117C24.5093 15.4824 23.912 16.0371 22.888 16.9757C21.9493 17.9144 21.0107 18.5544 20.072 18.8957C19.816 18.9811 19.432 19.0237 18.92 19.0237H17.896C17.128 19.0237 16.5733 19.1091 16.232 19.2797C15.1227 19.7064 14.0987 20.4317 13.16 21.4557C12.2213 22.4797 11.2827 23.7171 10.344 25.1677C7.10133 30.2877 5.48 34.2557 5.48 37.0717C5.48 37.6691 5.52267 38.1384 5.608 38.4797C5.69333 38.8211 6.07733 39.3757 6.76 40.1437C7.528 40.8264 7.95467 41.2957 8.04 41.5517C8.72267 42.6611 9.23467 44.3251 9.576 46.5437C9.832 48.1651 9.96 49.8717 9.96 51.6637C9.96 53.3704 9.91733 54.8637 9.832 56.1437C9.74667 57.4237 9.66133 58.4904 9.576 59.3437C9.49067 60.0264 9.40533 60.8371 9.32 61.7757C9.23467 62.6291 9.192 63.6531 9.192 64.8477C8.936 69.4557 8.46667 76.3677 7.784 85.5837C7.69867 86.6931 7.656 87.7171 7.656 88.6557C7.74133 89.5944 7.784 90.4051 7.784 91.0877V94.1597C7.784 98.0851 7.4 101.157 6.632 103.376C6.29067 104.229 5.48 105.509 4.2 107.216C3.09067 108.837 2.28 110.117 1.768 111.056C1.256 111.909 1 112.848 1 113.872C1 114.64 1.17067 115.322 1.512 115.92C2.36533 117.456 4.072 118.224 6.632 118.224C9.96 118.224 13.9707 117.242 18.664 115.28C23.3573 113.317 27.5387 111.354 31.208 109.392C42.5573 103.589 52.8827 96.7197 62.184 88.7837C65.0319 86.2841 68.644 82.4537 71 79.9492L65.9329 106.025C65.6726 107.375 65.8554 108.46 66.4815 109.281C67.1293 109.989 68.0834 110.465 69.3438 110.708C71.6965 111.162 74.3069 110.732 77.1748 109.419C80.1268 108.121 81.8509 106.412 82.3472 104.292L87.6961 79.9492C92.3907 82.7213 95.7487 87.4522 97.7701 94.1419C99.8757 100.848 100.391 107.889 99.3173 115.265C99.0759 116.968 99.2994 118.294 99.9878 119.244C100.76 120.209 101.861 120.83 103.289 121.106C104.97 121.43 106.748 121.248 108.624 120.56C110.583 119.888 112.125 118.902 113.247 117.601C115.632 116.078 117.252 114.232 118.106 112.064C121.823 102.281 126.446 92.3233 131.974 82.19C132.399 81.3388 132.677 80.5757 132.807 79.9009C133.263 77.5388 132.104 76.0904 129.332 75.5555C127.315 75.1666 125.084 75.4362 122.639 76.3646C120.216 77.1804 118.494 78.4233 117.475 80.0933C115.179 84.3169 113.754 86.9587 113.201 88.0186C110.475 79.5597 105.916 73.3723 99.5249 69.4562C104.087 66.1364 108.895 62.2222 113.948 57.7138L117.054 55.1631C121.999 51.217 125.974 47.5506 128.981 44.164C132.009 40.6649 133.968 36.6095 134.857 31.9979C135.183 30.3108 135.001 28.9925 134.313 28.043C133.73 26.9974 132.724 26.3367 131.296 26.0612C130.708 25.9478 129.614 25.9701 128.015 26.1283C118.965 20.1828 110.185 14.6395 101.677 9.49855C101.138 8.22791 99.9861 7.4224 98.2215 7.08204C95.8688 6.62822 93.3424 7.07423 90.6425 8.42005C88.0483 9.66961 86.4814 11.4673 85.9418 13.8131C84.4401 20.5468 82.9464 27.2886 81.4608 34.0383ZM73.192 56.2717C73.192 58.0637 72.7653 59.9837 71.912 62.0317C70.376 66.2131 67.816 69.9251 64.232 73.1677C60.648 76.3251 55.9547 79.8237 50.152 83.6637C41.3627 89.5517 31.8053 94.4157 21.48 98.2557C22.1627 93.9037 22.632 89.5091 22.888 85.0717C23.144 80.5491 23.3147 75.3011 23.4 69.3277C23.4853 65.4024 24.5947 62.3731 26.728 60.2397C28.9467 58.0211 32.36 55.7597 36.968 53.4557C39.6133 52.0904 43.1973 50.8531 47.72 49.7437C52.328 48.5491 56.5947 47.9517 60.52 47.9517C68.968 47.9517 73.192 50.7251 73.192 56.2717ZM24.68 40.5277C24.8507 37.6264 24.936 35.5357 24.936 34.2557C24.936 33.4024 24.8507 32.5491 24.68 31.6957C24.5947 30.8424 24.552 30.1597 24.552 29.6477C24.552 29.0504 24.7227 28.4957 25.064 27.9837C25.4907 27.4717 26.216 26.8317 27.24 26.0637C29.1173 24.7837 31.208 23.7597 33.512 22.9917C35.816 22.1384 38.4613 21.3704 41.448 20.6877C40.0827 23.3331 38.5893 25.8077 36.968 28.1117C35.3467 30.3304 33 33.4451 29.928 37.4557L24.424 44.6237C24.424 43.5997 24.5093 42.2344 24.68 40.5277ZM111.469 44.811C108.931 47.1215 105.688 49.7041 101.738 52.5588L97.3021 55.903C96.7735 56.3843 94.9776 57.7879 91.9144 60.1136L99.1508 25.9856C107.363 31.3029 113.587 35.1866 117.82 37.6365C116.207 40.1252 114.09 42.5168 111.469 44.811Z"
  />
</svg>