<svg width="12" height="17" viewBox="0 0 12 17" fill="none" xmlns="http://www.w3.org/2000/svg">
<path d="M0 5.1C0 2.28335 2.14903 0 4.8 0H7.2C9.85097 0 12 2.28335 12 5.1V11.9C12 14.7167 9.85097 17 7.2 17H4.8C2.14903 17 0 14.7167 0 11.9V5.1Z" fill="white"/>
<path d="M5.33333 1.67763C5.33333 1.28643 5.63181 0.894737 6 0.894737C6.36819 0.894737 6.66667 1.28643 6.66667 1.67763V3.76535C6.66667 4.15655 6.36819 4.47368 6 4.47368C5.63181 4.47368 5.33333 4.15655 5.33333 3.76535V1.67763Z" fill="#E85F2E"/>
<path d="M0 5.66667H12V6.375H0V5.66667Z" fill="#E85F2E"/>
<path d="M5.66667 6V5.06639e-08L6.33333 1.97015e-08V6H5.66667Z" fill="#E85F2E"/>
</svg>
