<svg width="482" height="378" viewBox="0 0 482 378" fill="none" xmlns="http://www.w3.org/2000/svg">
<path d="M66.7603 232.711C45.1697 232.711 13.2574 239.701 0 244.694V378H482V226C475.845 229.495 415.147 252.007 391 257C366.853 261.993 310.128 244.694 308.707 244.694C301.51 242.703 278.089 225.225 267.041 220.229C257.944 214.95 243.841 217.733 239.106 217.733C235.318 217.733 220.167 225.389 213.065 229.216C207.067 230.381 196.493 231.713 191.285 232.711C187.558 233.426 146.305 247.69 127.839 247.69C109.373 247.69 93.7485 232.711 66.7603 232.711Z" fill="#272727"/>
<path d="M224.581 124.144C251.488 151.498 238.917 223.674 238.917 223.674L259.068 221.556C259.068 221.556 258.433 173.933 256.385 165.952C260.787 158.019 266.272 150.933 272.981 144.883C276.747 159.196 294.685 165.646 307.962 163.716C318.32 162.209 334.446 146.06 346.969 144.436C329.526 118.212 283.857 96.6013 274.346 139.045L255.961 158.325C253.277 120.778 245.32 100.415 268.955 68.2111C272.957 62.7497 278.183 58.2534 282.844 53.404C294.238 65.5275 321.428 67.3166 336.659 63.2676C357.21 57.8061 369.898 30.7342 395.393 25.155C366.296 11.9957 342.967 -7.49601 308.857 4.9806C288.518 12.4195 283.336 29.9668 281.5 50C267.517 62.3118 259.092 73.6726 252.359 91.0457C252.359 91.0457 243.295 113.169 245.5 127.5C247.5 140.5 244.5 151 244.5 151C242 139.045 226.982 121.578 226.817 120.119C226.441 116.823 237.811 105.123 219.637 84.2424C197.085 58.3005 170.131 69.1528 142.518 78.8516C155.371 88.3385 158.078 105.382 167.636 117.411C181.337 134.69 212.175 145.048 224.581 124.144Z" fill="#272727"/>
</svg>
