<svg width="481" height="269" viewBox="0 0 481 269" fill="none" preserveAspectRation="xMidYMax meet" xmlns="http://www.w3.org/2000/svg">
<path d="M480.353 22.3298C480.353 24.834 480.353 27.357 480.353 29.8612C473.424 32.3936 473.612 19.835 480.353 22.3298Z" fill="#474749"/>
<path d="M470.241 87.8663C483.402 85.7669 479.646 108.126 468.085 101.489C462.879 98.4949 464.847 88.723 470.241 87.8663Z" fill="#474749"/>
<path d="M90.4798 72.8034C92.1273 72.4645 95.2905 72.9352 96.938 73.5189C106.22 76.8233 98.6043 90.1162 89.7643 84.9949C85.3773 82.453 84.7748 73.9802 90.4798 72.8034Z" fill="#474749"/>
<path d="M427.566 84.2793C437.207 83.0931 437.442 97.5157 428.997 98.2688C420.054 99.0596 419.037 85.3337 427.566 84.2793Z" fill="#474749"/>
<path d="M446.216 69.2168C452.994 67.8141 457.692 78.5839 449.087 82.1237C438.43 86.5107 439.852 70.5348 446.216 69.2168Z" fill="#474749"/>
<path d="M47.4474 84.2793C55.0447 83.1119 58.8481 94.7385 51.392 96.8285C42.9286 99.2103 39.1629 85.5502 47.4474 84.2793Z" fill="#474749"/>
<path d="M44.2182 60.9696C51.5989 59.9435 51.7778 71.2876 46.0069 72.0879C38.0895 73.1893 38.4472 61.7698 44.2182 60.9696Z" fill="#474749"/>
<path d="M337.557 46.622C345.964 44.6639 345.361 59.2277 336.841 55.9421C332.351 54.2193 334.356 47.3658 337.557 46.622Z" fill="#474749"/>
<path d="M104.102 95.7553C109.666 95.2846 111.163 103.607 106.616 104.718C99.8189 106.384 96.9475 96.3578 104.102 95.7553Z" fill="#474749"/>
<path d="M132.439 93.2414C141.486 91.481 139.17 102.665 132.081 101.488C126.423 100.547 127.685 94.164 132.439 93.2414Z" fill="#474749"/>
<path d="M158.611 87.8662C166.142 87.6121 163.177 100.152 156.455 96.1131C152.972 94.0232 154.497 88.0075 158.611 87.8662Z" fill="#474749"/>
<path d="M142.832 73.1612C149.432 72.9729 148.575 84.4395 141.401 81.4081C136.779 79.4594 138.097 73.293 142.832 73.1612Z" fill="#474749"/>
<path d="M375.214 38.7335C382.246 37.905 382.378 49.5128 374.856 46.2649C367.692 43.1676 371.42 39.1854 375.214 38.7335Z" fill="#474749"/>
<path d="M11.9463 90.7379C19.054 89.2033 19.1199 101.206 11.5885 99.3425C7.70044 98.3822 8.50065 91.4816 11.9463 90.7379Z" fill="#474749"/>
<path d="M382.914 71.0426C389.41 70.2047 388.845 82.0196 381.483 80.3627C376.032 79.1389 381.248 75.1849 381.304 74.8083C381.351 74.5353 378.743 71.5792 382.914 71.0426Z" fill="#474749"/>
<path d="M430.08 51.6399C437.188 50.3031 436.576 62.0992 428.649 59.5291C424.045 58.0416 427.811 52.0636 430.08 51.6399Z" fill="#474749"/>
<path d="M458.765 30.8439C465.506 29.8177 465.157 40.8136 458.05 39.0907C454.067 38.1305 454.802 31.4464 458.765 30.8439Z" fill="#474749"/>
<path d="M401.752 85.71C410.103 83.6294 410.573 94.3899 403.183 93.2414C399.342 92.6483 398.41 86.5478 401.752 85.71Z" fill="#474749"/>
<path d="M150.722 55.952C159.449 53.815 157.076 65.6487 150.722 63.4834C146.673 62.0995 147.671 56.6957 150.722 55.952Z" fill="#474749"/>
<path d="M110.203 87.5085C117.885 85.0985 117.866 99.7376 110.56 94.6822C107.039 92.2439 108.367 88.0828 110.203 87.5085Z" fill="#474749"/>
<path d="M384.176 15.0657C392.338 13.004 389.241 21.9381 387.047 22.5971C381.248 24.3293 379.874 16.1578 384.176 15.0657Z" fill="#474749"/>
<path d="M30.2286 56.3099C37.421 55.0107 36.602 67.3528 30.2286 63.8413C26.8771 61.9961 26.8677 56.9218 30.2286 56.3099Z" fill="#474749"/>
<path d="M80.4349 35.8621C83.824 35.429 84.9067 45.7188 79.3617 44.8244C73.6378 43.9018 77.5447 36.2292 80.4349 35.8621Z" fill="#474749"/>
<path d="M410.715 53.7958C418.293 52.1483 418.001 62.5134 410.357 60.6117C406.968 59.7644 407.505 54.4924 410.715 53.7958Z" fill="#474749"/>
<path d="M367.324 15.4237C374.046 14.0021 372.747 25.4969 365.536 22.2396C362.071 20.6768 365.31 15.8567 367.324 15.4237Z" fill="#474749"/>
<path d="M148.844 99.118C154.172 97.9413 155.067 105.934 150.632 106.649C145.483 107.478 144.796 100.012 148.844 99.118Z" fill="#474749"/>
<path d="M353.335 27.615C359.699 26.0899 359.285 35.8525 353.335 34.7887C348.769 33.9791 350.36 28.3305 353.335 27.615Z" fill="#474749"/>
<path d="M130.641 27.2576C135.612 25.9114 136.101 36.6718 129.568 35.1467C125.736 34.2524 128.495 27.8413 130.641 27.2576Z" fill="#474749"/>
<path d="M442.629 38.3756C446.093 38.1779 445.839 48.6747 439.758 46.6224C436.915 45.6622 438.656 38.6015 442.629 38.3756Z" fill="#474749"/>
<path d="M141.759 17.9369C149.592 16.3836 144.734 27.9254 140.686 25.4683C138.991 24.4422 138.436 18.5959 141.759 17.9369Z" fill="#474749"/>
<path d="M108.772 60.6119C112.114 60.2448 113.244 67.5973 109.487 68.5011C102.615 70.158 105.317 60.9885 108.772 60.6119Z" fill="#474749"/>
<path d="M61.4276 33.7152C67.3115 32.2278 67.4056 40.7759 63.2163 41.2466C58.6786 41.755 58.688 34.4024 61.4276 33.7152Z" fill="#474749"/>
<path d="M326.796 73.8765C333.546 72.3985 330.628 83.6015 326.081 82.1234C324.48 81.6056 324.028 74.4791 326.796 73.8765Z" fill="#474749"/>
<path d="M123.467 64.5567C129.615 63.9824 127.129 73.9898 121.679 71.3726C118.666 69.9228 120.088 64.8768 123.467 64.5567Z" fill="#474749"/>
<path d="M355.848 77.4636C357.336 77.0964 360.687 78.245 361.045 79.7983C361.704 82.6226 358.07 81.8318 357.279 84.6372C351.48 84.3266 353.485 78.0379 355.848 77.4636Z" fill="#474749"/>
<path d="M71.1147 97.9017C75.0875 97.0073 78.6273 104.454 74.3438 105.433C70.0791 106.403 68.1869 98.5607 71.1147 97.9017Z" fill="#474749"/>
<path d="M437.969 2.8742C443.072 2.24344 440.831 8.92756 439.4 9.69011C434.589 12.2508 432.104 3.59909 437.969 2.8742Z" fill="#474749"/>
<path d="M451.591 16.8638C458.37 15.2352 456.844 25.8168 451.234 23.322C448.598 22.1452 448.673 17.5699 451.591 16.8638Z" fill="#474749"/>
<path d="M33.8157 5.0302C41.2435 2.93083 38.7017 15.1788 33.1002 11.1306C30.6996 9.38899 32.0176 5.54799 33.8157 5.0302Z" fill="#474749"/>
<path d="M413.944 27.2572C419.216 26.297 419.037 35.683 413.586 34.4309C410.442 33.706 411.214 27.7562 413.944 27.2572Z" fill="#474749"/>
<path d="M16.2485 74.5923C21.9723 72.7847 22.1418 82.9804 16.2485 81.7659C12.5675 81.0034 15.5518 77.2377 14.9964 75.8444C15.4012 75.5525 16.0225 74.6582 16.2485 74.5923Z" fill="#474749"/>
<path d="M401.752 97.5439C406.469 97.1015 406.403 106.007 401.037 104.718C397.977 103.983 398.495 97.8546 401.752 97.5439Z" fill="#474749"/>
<path d="M412.146 72.0878C416.354 71.4853 417.164 78.5178 413.935 79.2615C409.19 80.3535 408.314 72.6339 412.146 72.0878Z" fill="#474749"/>
<path d="M127.769 7.53405C133.267 7.07276 132.119 16.7694 126.339 13.9922C123.42 12.5895 124.945 7.77882 127.769 7.53405Z" fill="#474749"/>
<path d="M161.84 68.5008C163.167 68.2654 164.401 68.6891 165.248 69.7529C163.553 72.3324 168.477 77.0866 161.482 75.3073C158.084 74.4506 158.667 69.0656 161.84 68.4914V68.5008Z" fill="#474749"/>
<path d="M344.373 21.5239C349.955 19.9706 348.957 30.025 343.299 28.3399C340.061 27.3796 342.64 22.0135 344.373 21.5239Z" fill="#474749"/>
<path d="M57.483 50.5668C62.7832 49.4748 63.2633 58.5783 57.1253 57.025C54.1598 56.2718 54.7717 51.1317 57.483 50.5668Z" fill="#474749"/>
<path d="M98.3691 14.3506C103.735 13.3715 103.264 22.974 97.6536 21.1665C95.1588 20.3569 95.7519 14.8307 98.3691 14.3506Z" fill="#474749"/>
<path d="M395.294 74.5922C397.121 74.018 404.407 79.1017 398.524 81.4082C393.27 83.4605 393.826 75.063 395.294 74.5922Z" fill="#474749"/>
<path d="M99.7999 48.4201C104.375 47.1209 105.072 59.4159 98.369 54.8783C95.6482 53.0331 99.4422 48.5237 99.7999 48.4201Z" fill="#474749"/>
<path d="M54.979 68.8585C61.2395 67.4275 59.7615 77.5667 54.2635 74.9589C51.7782 73.7821 52.3995 69.4516 54.979 68.8585Z" fill="#474749"/>
<path d="M375.929 1.08579C382.453 -0.514636 380.834 9.66216 375.571 7.18621C373.349 6.14123 373.359 1.71654 375.929 1.08579Z" fill="#474749"/>
<path d="M22.6973 35.1462C26.6513 34.1483 29.3438 39.2603 26.6419 40.8795C23.281 42.9036 17.8772 36.3607 22.6973 35.1462Z" fill="#474749"/>
<path d="M392.78 41.6042C397.167 40.7569 397.685 47.2339 394.569 48.0624C389.429 49.4274 389.523 42.2349 392.78 41.6042Z" fill="#474749"/>
<path d="M393.148 64.9141C399.569 63.4925 398.232 72.436 394.937 71.3722C394.362 71.1839 394.118 69.48 393.506 69.2164C393.402 69.1693 391.736 70.299 391.171 69.0375C390.578 67.6913 391.595 65.253 393.148 64.9141Z" fill="#474749"/>
<path d="M356.922 44.1182C359.313 43.7887 361.45 51.4519 357.28 52.3651C353.09 53.2783 354.926 44.3912 356.922 44.1182Z" fill="#474749"/>
<path d="M19.4777 5.74575C25.6157 3.56164 24.4766 13.7573 18.7622 11.8462C15.9944 10.9142 18.6774 6.03759 19.4777 5.74575Z" fill="#474749"/>
<path d="M463.792 50.567C469.846 49.1266 468.264 58.9927 463.435 56.6674C461.062 55.5189 461.768 51.0565 463.792 50.567Z" fill="#474749"/>
<path d="M81.8753 10.7638C86.3471 9.84122 86.7519 16.1488 83.664 16.8642C79.1922 17.8904 78.2602 11.5075 81.8753 10.7638Z" fill="#474749"/>
<path d="M352.619 4.30544C357.581 3.28871 357.44 10.8013 353.335 10.7636C349.983 10.726 349.597 4.92678 352.619 4.30544Z" fill="#474749"/>
<path d="M79.004 90.7377C83.3627 89.8151 83.9558 96.1038 80.7927 96.8381C76.1891 97.8925 75.6431 91.4532 79.004 90.7377Z" fill="#474749"/>
<path d="M122.037 45.5491C126.292 44.1746 127.93 49.4843 125.266 50.9246C120.747 53.3723 118.92 46.547 122.037 45.5491Z" fill="#474749"/>
<path d="M172.958 88.2237C173.805 88.073 174.587 88.3084 175.293 88.7603C174.408 91.3963 175.81 96.254 171.527 95.0396C168.43 94.1546 170.557 88.6661 172.958 88.2237Z" fill="#474749"/>
<path d="M104.46 22.9547C107.548 22.0038 110.485 26.758 108.047 28.3302C104.083 30.8815 100.939 24.0373 104.46 22.9547Z" fill="#474749"/>
<path d="M34.8981 77.463C39.4264 76.0415 40.3678 82.4808 37.054 83.1963C32.6764 84.1471 32.4128 78.2444 34.8981 77.463Z" fill="#474749"/>
<path d="M35.9716 46.6223C41.8931 45.0878 40.641 54.4267 35.6138 51.9979C33.2697 50.8682 34.0322 47.1213 35.9716 46.6223Z" fill="#474749"/>
<path d="M44.576 11.4792C48.2947 10.8014 49.6221 16.3558 46.3647 17.2125C41.4505 18.5116 41.4882 12.0346 44.576 11.4792Z" fill="#474749"/>
<path d="M379.158 56.6673C383.677 55.3587 385.466 64.2646 379.874 62.7677C377.915 62.2405 377.304 57.2039 379.158 56.6673Z" fill="#474749"/>
<path d="M76.1324 54.869C80.3688 53.8993 81.0937 59.8868 77.9211 60.6023C73.6847 61.5719 72.9598 55.5845 76.1324 54.869Z" fill="#474749"/>
<path d="M426.135 66.3449C431.812 64.9705 430.692 74.846 424.883 71.8994C425.731 69.8659 423.104 67.0793 426.135 66.3449Z" fill="#474749"/>
<path d="M439.042 15.0659C443.693 14.0021 443.608 20.658 439.758 20.7992C435.7 20.9592 436.321 15.6873 439.042 15.0659Z" fill="#474749"/>
<path d="M348.082 93.0616C351.726 92.3555 353.147 97.9381 350.596 98.7948C346.614 100.132 344.448 93.7582 348.082 93.0616Z" fill="#474749"/>
<path d="M118.449 26.5416C121.679 26.3439 122.592 31.4746 119.88 32.2749C115.032 33.7247 114.599 26.7675 118.449 26.5416Z" fill="#474749"/>
<path d="M86.893 19.7258C91.892 18.9444 90.5363 27.709 85.8198 25.1013C83.4003 23.7645 85.029 20.0176 86.893 19.7258Z" fill="#474749"/>
<path d="M340.07 78.1793C344.099 77.0778 344.561 82.2274 341.501 83.5549C336.521 85.7295 337.726 78.8101 340.07 78.1793Z" fill="#474749"/>
<path d="M367.682 70.2898C371.975 69.6025 371.693 77.181 366.967 76.0231C364.001 75.2982 365.536 70.6287 367.682 70.2898Z" fill="#474749"/>
<path d="M97.6535 36.229C102.991 34.205 104.347 43.4686 99.0845 42.3294C95.8836 41.6328 98.7173 37.7259 98.5479 37.4905C98.4725 37.387 95.7424 36.9633 97.6535 36.2384V36.229Z" fill="#474749"/>
<path d="M423.264 42.3204C428.884 41.0965 426.606 48.3832 422.548 47.6959C419.526 47.1875 420.873 42.8382 423.264 42.3204Z" fill="#474749"/>
<path d="M376.287 30.1286C380.862 29.1213 382.236 36.4549 376.644 35.1464C374.225 34.5815 373.481 30.7405 376.287 30.1286Z" fill="#474749"/>
<path d="M14.4506 50.5672C16.5499 50.6802 15.7121 56.9407 13.0196 56.6676C9.04679 56.2628 10.1859 50.3413 14.4506 50.5672Z" fill="#474749"/>
<path d="M68.2434 5.03022C72.461 4.40888 71.2183 10.4057 68.9589 10.7635C65.3061 11.3472 64.7601 5.53859 68.2434 5.03022Z" fill="#474749"/>
<path d="M37.7601 27.6147C41.6011 26.918 42.1001 32.2653 39.5488 32.9902C35.4725 34.1576 34.4275 28.2172 37.7601 27.6147Z" fill="#474749"/>
<path d="M365.527 98.6265C369.029 97.6568 371.674 105.358 365.884 104.002C362.957 103.315 363.804 99.1066 365.527 98.6265Z" fill="#474749"/>
<path d="M417.173 5.03016C422.925 2.94961 422.473 10.9611 417.888 10.048C415.412 9.55841 415.431 5.66091 417.173 5.03016Z" fill="#474749"/>
<path d="M13.0196 24.3858C16.3616 23.9151 17.0771 29.0458 14.4505 29.7613C10.0729 30.9569 9.80931 24.8377 13.0196 24.3858Z" fill="#474749"/>
<path d="M66.4546 89.297C70.2015 88.1767 69.4013 96.48 65.0236 95.0302C62.0017 94.0323 65.1931 89.6735 66.4546 89.297Z" fill="#474749"/>
<path d="M148.575 0.00278538C150.392 -0.100771 152.849 2.70467 150.91 4.84171C148.067 7.95782 143.539 0.294627 148.575 0.00278538Z" fill="#474749"/>
<path d="M394.221 27.2571C397.026 26.8617 397.535 34.6567 393.863 32.9904C389.777 31.1358 392.564 27.4925 394.221 27.2571Z" fill="#474749"/>
<path d="M442.987 92.8838C446.47 91.9424 446.865 98.6265 443.702 98.6171C440.727 98.6171 440.972 93.4204 442.987 92.8838Z" fill="#474749"/>
<path d="M76.848 73.1611C81.0091 72.342 79.8417 79.8923 75.7748 78.5366C73.5719 77.8023 75.6995 73.387 76.848 73.1611Z" fill="#474749"/>
<path d="M465.223 6.46101C469.45 5.54783 469.205 12.5615 464.866 11.1211C463.049 10.5186 463.218 6.89407 465.223 6.46101Z" fill="#474749"/>
<path d="M330.741 94.682C335.015 93.8912 332.737 101.649 329.31 99.342C327.323 98.0146 329.216 94.9644 330.741 94.682Z" fill="#474749"/>
<path d="M90.1223 32.2842C93.1443 31.7852 94.1987 36.2193 91.5533 36.9442C87.9006 37.9515 87.1945 32.7643 90.1223 32.2842Z" fill="#474749"/>
<path d="M25.9264 90.7372C28.1011 90.0312 30.1628 92.0835 30.0498 93.4297C29.6733 98.0521 21.3134 92.2435 25.9264 90.7372Z" fill="#474749"/>
<path d="M450.16 54.1536C452.58 53.4004 455.413 58.2582 452.316 59.1714C448.72 60.2352 448.503 54.6714 450.16 54.1536Z" fill="#474749"/>
<path d="M353.335 62.7582C355.434 62.1181 357.967 64.3587 357.101 66.5239C355.848 69.6306 349.409 63.9538 353.335 62.7582Z" fill="#474749"/>
<path d="M147.86 35.5042C151.682 34.3933 151.145 40.2113 148.575 40.522C145.374 40.908 145.911 36.0691 147.86 35.5042Z" fill="#474749"/>
<path d="M439.758 56.6674C446.602 54.9446 442.224 61.8641 438.327 60.612C436.237 59.9341 438.515 56.9781 439.758 56.6674Z" fill="#474749"/>
<path d="M462.352 62.0427C465.778 61.0354 466.522 66.2132 463.783 66.7028C460.478 67.2959 460.055 62.7111 462.352 62.0427Z" fill="#474749"/>
<path d="M68.2433 77.1057C71.4442 76.8704 70.8887 81.7187 69.6743 82.1235C67.5843 82.8201 63.5644 77.4446 68.2433 77.1057Z" fill="#474749"/>
<path d="M55.6945 2.51635C60.2792 1.30191 59.2154 9.07807 55.3367 6.81865C53.6516 5.83957 54.2164 2.91175 55.6945 2.51635Z" fill="#474749"/>
<path d="M98.3692 1.80106C101.457 1.08557 102.078 6.10336 99.4424 6.4611C96.4299 6.87533 96.0345 2.34708 98.3692 1.80106Z" fill="#474749"/>
<path d="M57.1252 10.7635C61.2204 9.4643 60.6837 17.0145 57.1252 15.0658C55.4118 14.1338 55.5812 11.253 57.1252 10.7635Z" fill="#474749"/>
<path d="M110.203 49.4935C113.733 48.2508 113.441 53.4569 110.918 53.7958C107.689 54.2289 108.96 49.9266 110.203 49.4935Z" fill="#474749"/>
<path d="M405.697 15.4233C409.322 14.5101 407.947 20.0081 404.982 19.3679C402.261 18.7842 404.85 15.6398 405.697 15.4233Z" fill="#474749"/>
<path d="M397.45 53.0806C400.039 52.93 399.258 57.929 396.735 57.3829C394.701 56.9499 395.492 53.1936 397.45 53.0806Z" fill="#474749"/>
<path d="M477.415 43.7509C480.342 42.9224 480.389 47.2906 478.488 47.6954C475.974 48.2321 475.391 44.3157 477.415 43.7509Z" fill="#474749"/>
<path d="M125.265 83.9214C132.194 83.6484 127.864 87.753 125.623 86.7928C125.087 86.5574 124.268 84.3639 125.265 83.9214Z" fill="#474749"/>
<path d="M153.951 43.0355C156.191 42.2917 157.161 46.0857 155.382 46.6223C153.179 47.2907 152.322 43.5815 153.951 43.0355Z" fill="#474749"/>
<path d="M62.8676 63.1157C64.8163 62.8427 64.8728 65.714 63.5831 65.987C61.4366 66.4483 60.1845 63.4923 62.8676 63.1157Z" fill="#474749"/>
<path d="M388.12 92.1683C390.041 91.8765 390.596 93.4016 390.455 93.7782C389.721 95.6422 383.997 92.7897 388.12 92.1683Z" fill="#474749"/>
<path d="M137.457 43.393C138.445 42.9411 140.14 44.598 139.791 45.3699C138.869 47.3846 135.047 44.4944 137.457 43.393Z" fill="#474749"/>
<path d="M462.241 199.417C475.402 197.318 471.646 219.677 460.085 213.04C454.879 210.046 456.847 200.274 462.241 199.417Z" fill="#474749"/>
<path d="M82.4798 184.355C84.1273 184.016 87.2905 184.486 88.938 185.07C98.2204 188.374 90.6043 201.667 81.7643 196.546C77.3773 194.004 76.7748 185.531 82.4798 184.355Z" fill="#474749"/>
<path d="M419.566 195.83C429.206 194.644 429.442 209.067 420.997 209.82C412.054 210.611 411.037 196.885 419.566 195.83Z" fill="#474749"/>
<path d="M438.216 180.768C444.994 179.365 449.692 190.135 441.087 193.675C430.43 198.062 431.852 182.086 438.216 180.768Z" fill="#474749"/>
<path d="M39.4474 195.83C47.0447 194.663 50.8481 206.29 43.392 208.38C34.9286 210.761 31.1629 197.101 39.4474 195.83Z" fill="#474749"/>
<path d="M36.2182 172.521C43.5989 171.495 43.7778 182.839 38.0069 183.639C30.0895 184.74 30.4472 173.321 36.2182 172.521Z" fill="#474749"/>
<path d="M329.557 158.173C337.964 156.215 337.361 170.779 328.841 167.493C324.351 165.77 326.356 158.917 329.557 158.173Z" fill="#474749"/>
<path d="M96.1024 207.306C101.666 206.836 103.163 215.158 98.616 216.269C91.8189 217.935 88.9475 207.909 96.1024 207.306Z" fill="#474749"/>
<path d="M124.439 204.792C133.486 203.032 131.17 214.216 124.081 213.039C118.423 212.098 119.685 205.715 124.439 204.792Z" fill="#474749"/>
<path d="M150.611 199.417C158.142 199.163 155.177 211.703 148.455 207.664C144.972 205.574 146.497 199.559 150.611 199.417Z" fill="#474749"/>
<path d="M134.832 184.712C141.432 184.524 140.575 195.991 133.401 192.959C128.779 191.01 130.097 184.844 134.832 184.712Z" fill="#474749"/>
<path d="M367.214 150.285C374.246 149.456 374.378 161.064 366.856 157.816C359.692 154.719 363.42 150.736 367.214 150.285Z" fill="#474749"/>
<path d="M3.94602 202.289C11.0538 200.754 11.1197 212.758 3.58828 210.893C-0.2998 209.933 0.50041 203.033 3.94602 202.289Z" fill="#474749"/>
<path d="M468.699 181.126C475.195 180.288 474.63 192.103 467.268 190.446C461.817 189.222 467.033 185.268 467.089 184.891C467.136 184.618 464.529 181.662 468.699 181.126Z" fill="#474749"/>
<path d="M422.08 163.191C429.188 161.854 428.576 173.65 420.649 171.08C416.046 169.593 419.811 163.615 422.08 163.191Z" fill="#474749"/>
<path d="M450.765 142.395C457.506 141.369 457.157 152.365 450.05 150.642C446.067 149.682 446.802 142.998 450.765 142.395Z" fill="#474749"/>
<path d="M393.752 197.261C402.103 195.18 402.573 205.941 395.183 204.792C391.342 204.199 390.41 198.099 393.752 197.261Z" fill="#474749"/>
<path d="M142.721 167.503C151.448 165.366 149.076 177.2 142.721 175.035C138.673 173.651 139.671 168.247 142.721 167.503Z" fill="#474749"/>
<path d="M102.203 199.06C109.885 196.65 109.866 211.289 102.56 206.233C99.0395 203.795 100.367 199.634 102.203 199.06Z" fill="#474749"/>
<path d="M376.176 126.617C384.338 124.555 381.241 133.489 379.047 134.148C373.248 135.88 371.874 127.709 376.176 126.617Z" fill="#474749"/>
<path d="M22.2286 167.861C29.421 166.562 28.602 178.904 22.2286 175.392C18.8771 173.547 18.8677 168.473 22.2286 167.861Z" fill="#474749"/>
<path d="M77.0111 153.013C80.4002 152.58 81.4828 162.87 75.9379 161.976C70.214 161.053 74.1209 153.38 77.0111 153.013Z" fill="#474749"/>
<path d="M402.715 165.347C410.293 163.699 410.001 174.065 402.357 172.163C398.968 171.316 399.505 166.044 402.715 165.347Z" fill="#474749"/>
<path d="M359.324 126.975C366.046 125.553 364.747 137.048 357.536 133.791C354.071 132.228 357.31 127.408 359.324 126.975Z" fill="#474749"/>
<path d="M171.844 201.118C177.172 199.941 178.067 207.934 173.632 208.649C168.483 209.478 167.796 202.012 171.844 201.118Z" fill="#474749"/>
<path d="M345.335 139.166C351.699 137.641 351.285 147.404 345.335 146.34C340.769 145.53 342.36 139.882 345.335 139.166Z" fill="#474749"/>
<path d="M122.641 138.809C127.612 137.463 128.101 148.223 121.568 146.698C117.736 145.804 120.495 139.392 122.641 138.809Z" fill="#474749"/>
<path d="M434.629 149.927C438.093 149.729 437.839 160.226 431.758 158.173C428.915 157.213 430.656 150.153 434.629 149.927Z" fill="#474749"/>
<path d="M133.759 129.488C141.592 127.935 136.734 139.477 132.686 137.019C130.991 135.993 130.436 130.147 133.759 129.488Z" fill="#474749"/>
<path d="M100.772 172.163C104.114 171.796 105.244 179.148 101.487 180.052C94.6149 181.709 97.3168 172.54 100.772 172.163Z" fill="#474749"/>
<path d="M53.4276 145.266C59.3115 143.779 59.4056 152.327 55.2163 152.798C50.6786 153.306 50.688 145.954 53.4276 145.266Z" fill="#474749"/>
<path d="M318.796 185.428C325.546 183.95 322.628 195.152 318.081 193.674C316.48 193.157 316.028 186.03 318.796 185.428Z" fill="#474749"/>
<path d="M115.467 176.108C121.615 175.533 119.129 185.541 113.679 182.924C110.666 181.474 112.088 176.428 115.467 176.108Z" fill="#474749"/>
<path d="M347.849 189.015C349.336 188.647 352.687 189.796 353.045 191.349C353.704 194.174 350.07 193.383 349.28 196.188C343.48 195.878 345.486 189.589 347.849 189.015Z" fill="#474749"/>
<path d="M63.1147 209.453C67.0875 208.558 70.6273 216.005 66.3438 216.984C62.0791 217.954 60.1869 210.112 63.1147 209.453Z" fill="#474749"/>
<path d="M429.969 114.425C435.072 113.795 432.831 120.479 431.4 121.241C426.589 123.802 424.104 115.15 429.969 114.425Z" fill="#474749"/>
<path d="M443.592 128.415C450.37 126.786 448.845 137.368 443.234 134.873C440.598 133.696 440.673 129.121 443.592 128.415Z" fill="#474749"/>
<path d="M25.8157 116.581C33.2435 114.482 30.7017 126.73 25.1002 122.682C22.6996 120.94 24.0176 117.099 25.8157 116.581Z" fill="#474749"/>
<path d="M405.944 138.808C411.216 137.848 411.037 147.234 405.586 145.982C402.442 145.257 403.214 139.307 405.944 138.808Z" fill="#474749"/>
<path d="M8.24849 186.143C13.9723 184.336 14.1418 194.532 8.24849 193.317C4.56752 192.555 7.55183 188.789 6.99639 187.396C7.40121 187.104 8.02255 186.209 8.24849 186.143Z" fill="#474749"/>
<path d="M393.752 209.095C398.469 208.652 398.403 217.558 393.037 216.269C389.977 215.534 390.495 209.406 393.752 209.095Z" fill="#474749"/>
<path d="M404.146 183.639C408.354 183.036 409.164 190.069 405.935 190.813C401.19 191.905 400.314 184.185 404.146 183.639Z" fill="#474749"/>
<path d="M119.769 119.085C125.267 118.624 124.119 128.32 118.339 125.543C115.42 124.141 116.945 119.33 119.769 119.085Z" fill="#474749"/>
<path d="M153.84 180.052C155.167 179.817 156.401 180.24 157.248 181.304C155.553 183.884 160.477 188.638 153.482 186.858C150.084 186.002 150.667 180.617 153.84 180.043V180.052Z" fill="#474749"/>
<path d="M336.373 133.075C341.955 131.522 340.957 141.576 335.299 139.891C332.061 138.931 334.64 133.565 336.373 133.075Z" fill="#474749"/>
<path d="M49.483 162.118C54.7832 161.026 55.2633 170.129 49.1253 168.576C46.1598 167.823 46.7717 162.683 49.483 162.118Z" fill="#474749"/>
<path d="M90.3691 125.902C95.7352 124.923 95.2645 134.525 89.6536 132.718C87.1588 131.908 87.7519 126.382 90.3691 125.902Z" fill="#474749"/>
<path d="M387.294 186.143C389.121 185.569 396.407 190.653 390.524 192.959C385.27 195.011 385.826 186.614 387.294 186.143Z" fill="#474749"/>
<path d="M91.7999 159.971C96.3752 158.672 97.0719 170.967 90.369 166.429C87.6482 164.584 91.4422 160.075 91.7999 159.971Z" fill="#474749"/>
<path d="M46.979 180.41C53.2395 178.979 51.7615 189.118 46.2635 186.51C43.7782 185.333 44.3995 181.003 46.979 180.41Z" fill="#474749"/>
<path d="M367.929 112.637C374.453 111.036 372.834 121.213 367.571 118.737C365.35 117.692 365.359 113.268 367.929 112.637Z" fill="#474749"/>
<path d="M14.6975 146.697C18.6515 145.699 21.344 150.811 18.6421 152.431C15.2812 154.455 9.87746 147.912 14.6975 146.697Z" fill="#474749"/>
<path d="M384.78 153.155C389.167 152.308 389.685 158.785 386.569 159.614C381.429 160.979 381.523 153.786 384.78 153.155Z" fill="#474749"/>
<path d="M385.148 176.465C391.568 175.044 390.231 183.987 386.937 182.923C386.362 182.735 386.117 181.031 385.506 180.768C385.402 180.72 383.736 181.85 383.171 180.589C382.578 179.242 383.594 176.804 385.148 176.465Z" fill="#474749"/>
<path d="M348.922 155.669C351.313 155.34 353.45 163.003 349.28 163.916C345.09 164.829 346.926 155.942 348.922 155.669Z" fill="#474749"/>
<path d="M11.4777 117.297C17.6157 115.113 16.4766 125.308 10.7622 123.397C7.99438 122.465 10.6774 117.589 11.4777 117.297Z" fill="#474749"/>
<path d="M455.792 162.118C461.846 160.678 460.264 170.544 455.434 168.218C453.062 167.07 453.768 162.608 455.792 162.118Z" fill="#474749"/>
<path d="M73.8753 122.315C78.3471 121.392 78.7519 127.7 75.664 128.415C71.1922 129.441 70.2602 123.059 73.8753 122.315Z" fill="#474749"/>
<path d="M344.619 115.857C349.581 114.84 349.44 122.352 345.335 122.315C341.983 122.277 341.597 116.478 344.619 115.857Z" fill="#474749"/>
<path d="M71.004 202.289C75.3627 201.366 75.9558 207.655 72.7927 208.389C68.1891 209.444 67.6431 203.004 71.004 202.289Z" fill="#474749"/>
<path d="M114.037 157.1C118.292 155.726 119.93 161.035 117.266 162.476C112.747 164.923 110.92 158.098 114.037 157.1Z" fill="#474749"/>
<path d="M96.46 134.506C99.5479 133.555 102.485 138.309 100.047 139.881C96.0835 142.433 92.9391 135.588 96.46 134.506Z" fill="#474749"/>
<path d="M26.8981 189.014C31.4264 187.593 32.3678 194.032 29.054 194.747C24.6764 195.698 24.4128 189.796 26.8981 189.014Z" fill="#474749"/>
<path d="M27.9713 158.173C33.8929 156.639 32.6408 165.978 27.6136 163.549C25.2694 162.419 26.032 158.672 27.9713 158.173Z" fill="#474749"/>
<path d="M294.771 209.095C300.005 212.71 292.399 217.728 290.648 212.861C288.746 207.561 293.952 211.063 294.771 209.095Z" fill="#474749"/>
<path d="M36.576 123.03C40.2947 122.352 41.6221 127.907 38.3647 128.763C33.4505 130.063 33.4882 123.586 36.576 123.03Z" fill="#474749"/>
<path d="M371.158 168.218C375.677 166.91 377.466 175.816 371.874 174.319C369.915 173.792 369.304 168.755 371.158 168.218Z" fill="#474749"/>
<path d="M68.1327 166.42C72.3691 165.45 73.094 171.438 69.9214 172.153C65.685 173.123 64.9601 167.136 68.1327 166.42Z" fill="#474749"/>
<path d="M418.135 177.896C423.812 176.522 422.692 186.397 416.883 183.451C417.731 181.417 415.104 178.63 418.135 177.896Z" fill="#474749"/>
<path d="M431.042 126.617C435.693 125.553 435.608 132.209 431.758 132.35C427.7 132.51 428.321 127.238 431.042 126.617Z" fill="#474749"/>
<path d="M307.687 200.848C311.331 200.142 312.752 205.725 310.201 206.582C306.219 207.918 304.053 201.545 307.687 200.848Z" fill="#474749"/>
<path d="M110.45 138.093C113.679 137.895 114.592 143.026 111.881 143.826C107.032 145.276 106.599 138.319 110.45 138.093Z" fill="#474749"/>
<path d="M78.893 131.277C83.892 130.496 82.5363 139.26 77.8198 136.652C75.4003 135.316 77.029 131.569 78.893 131.277Z" fill="#474749"/>
<path d="M332.07 189.73C336.099 188.629 336.561 193.778 333.501 195.106C328.521 197.281 329.726 190.361 332.07 189.73Z" fill="#474749"/>
<path d="M359.682 181.841C363.975 181.154 363.693 188.732 358.967 187.574C356.001 186.849 357.536 182.18 359.682 181.841Z" fill="#474749"/>
<path d="M415.264 153.871C420.884 152.648 418.606 159.934 414.548 159.247C411.526 158.739 412.873 154.389 415.264 153.871Z" fill="#474749"/>
<path d="M368.287 141.68C372.862 140.672 374.237 148.006 368.645 146.697C366.225 146.133 365.481 142.292 368.287 141.68Z" fill="#474749"/>
<path d="M6.45057 162.118C8.54994 162.231 7.71208 168.492 5.0196 168.219C1.04679 167.814 2.18591 161.892 6.45057 162.118Z" fill="#474749"/>
<path d="M60.2434 116.581C64.461 115.96 63.2183 121.957 60.9589 122.315C57.3061 122.898 56.7601 117.09 60.2434 116.581Z" fill="#474749"/>
<path d="M29.7599 139.166C33.6009 138.469 34.0998 143.816 31.5486 144.541C27.4722 145.709 26.4272 139.768 29.7599 139.166Z" fill="#474749"/>
<path d="M357.526 210.178C361.029 209.208 363.674 216.909 357.884 215.553C354.956 214.866 355.804 210.658 357.526 210.178Z" fill="#474749"/>
<path d="M409.173 116.581C414.925 114.501 414.473 122.512 409.888 121.599C407.412 121.11 407.431 117.212 409.173 116.581Z" fill="#474749"/>
<path d="M5.01957 135.937C8.36162 135.466 9.07711 140.597 6.45053 141.312C2.07291 142.508 1.80931 136.389 5.01957 135.937Z" fill="#474749"/>
<path d="M58.4546 200.848C62.2015 199.728 61.4013 208.031 57.0236 206.581C54.0017 205.583 57.1931 201.225 58.4546 200.848Z" fill="#474749"/>
<path d="M140.575 111.554C142.392 111.45 144.849 114.256 142.91 116.393C140.067 119.509 135.539 111.846 140.575 111.554Z" fill="#474749"/>
<path d="M386.221 138.808C389.026 138.413 389.535 146.208 385.863 144.542C381.777 142.687 384.564 139.044 386.221 138.808Z" fill="#474749"/>
<path d="M434.987 204.435C438.47 203.493 438.865 210.178 435.702 210.168C432.727 210.168 432.972 204.971 434.987 204.435Z" fill="#474749"/>
<path d="M68.848 184.712C73.0091 183.893 71.8417 191.443 67.7748 190.088C65.5719 189.353 67.6995 184.938 68.848 184.712Z" fill="#474749"/>
<path d="M457.223 118.012C461.45 117.099 461.205 124.113 456.865 122.672C455.048 122.07 455.218 118.445 457.223 118.012Z" fill="#474749"/>
<path d="M322.741 206.233C327.015 205.442 324.737 213.2 321.31 210.893C319.323 209.566 321.216 206.516 322.741 206.233Z" fill="#474749"/>
<path d="M82.1223 143.835C85.1443 143.336 86.1987 147.77 83.5533 148.495C79.9006 149.503 79.1945 144.315 82.1223 143.835Z" fill="#474749"/>
<path d="M17.9261 202.288C20.1008 201.582 22.1625 203.634 22.0496 204.981C21.673 209.603 13.3132 203.795 17.9261 202.288Z" fill="#474749"/>
<path d="M442.16 165.705C444.58 164.951 447.413 169.809 444.316 170.722C440.72 171.786 440.503 166.222 442.16 165.705Z" fill="#474749"/>
<path d="M345.335 174.309C347.434 173.669 349.967 175.91 349.101 178.075C347.848 181.182 341.409 175.505 345.335 174.309Z" fill="#474749"/>
<path d="M139.86 147.055C143.682 145.944 143.145 151.762 140.575 152.073C137.374 152.459 137.911 147.62 139.86 147.055Z" fill="#474749"/>
<path d="M431.758 168.219C438.602 166.496 434.224 173.415 430.327 172.163C428.237 171.485 430.515 168.529 431.758 168.219Z" fill="#474749"/>
<path d="M454.352 173.594C457.778 172.587 458.522 177.764 455.783 178.254C452.478 178.847 452.055 174.262 454.352 173.594Z" fill="#474749"/>
<path d="M60.2433 188.657C63.4442 188.421 62.8887 193.27 61.6743 193.675C59.5843 194.371 55.5644 188.996 60.2433 188.657Z" fill="#474749"/>
<path d="M358.39 81.1296C362.975 79.9152 361.911 87.6914 358.032 85.4319C356.347 84.4529 356.912 81.525 358.39 81.1296Z" fill="#474749"/>
<path d="M90.3692 113.352C93.4571 112.637 94.0784 117.655 91.4424 118.012C88.4299 118.426 88.0345 113.898 90.3692 113.352Z" fill="#474749"/>
<path d="M49.1252 122.315C53.2204 121.015 52.6837 128.566 49.1252 126.617C47.4118 125.685 47.5812 122.804 49.1252 122.315Z" fill="#474749"/>
<path d="M102.203 161.045C105.733 159.802 105.441 165.008 102.918 165.347C99.6891 165.78 100.96 161.478 102.203 161.045Z" fill="#474749"/>
<path d="M397.697 126.974C401.322 126.061 399.947 131.559 396.982 130.919C394.261 130.335 396.85 127.191 397.697 126.974Z" fill="#474749"/>
<path d="M389.45 164.632C392.039 164.481 391.258 169.48 388.735 168.934C386.701 168.501 387.492 164.745 389.45 164.632Z" fill="#474749"/>
<path d="M469.415 155.302C472.342 154.474 472.389 158.842 470.488 159.247C467.974 159.783 467.391 155.867 469.415 155.302Z" fill="#474749"/>
<path d="M145.951 154.586C148.191 153.843 149.161 157.637 147.382 158.173C145.179 158.842 144.322 155.133 145.951 154.586Z" fill="#474749"/>
<path d="M54.8678 174.667C56.8166 174.394 56.8731 177.265 55.5833 177.538C53.4369 177.999 52.1848 175.043 54.8678 174.667Z" fill="#474749"/>
<path d="M380.12 203.719C382.041 203.428 382.596 204.953 382.455 205.329C381.721 207.193 375.997 204.341 380.12 203.719Z" fill="#474749"/>
<path d="M129.457 154.944C130.445 154.492 132.14 156.149 131.791 156.921C130.869 158.936 127.047 156.045 129.457 154.944Z" fill="#474749"/>
<path d="M344.919 199.114C343.271 198.775 340.108 199.246 338.46 199.829C329.178 203.134 336.794 216.427 345.634 211.305C350.021 208.763 350.624 200.291 344.919 199.114Z" fill="#474749"/>
<path d="M155.848 142.375C148.25 141.208 144.447 152.835 151.903 154.925C160.367 157.306 164.132 143.646 155.848 142.375Z" fill="#474749"/>
<path d="M159.077 119.066C151.696 118.039 151.517 129.384 157.288 130.184C165.206 131.285 164.848 119.866 159.077 119.066Z" fill="#474749"/>
<path d="M334.127 143.517C328.563 143.046 327.066 151.368 331.613 152.479C338.41 154.146 341.281 144.119 334.127 143.517Z" fill="#474749"/>
<path d="M41.1397 147.188C32.0927 145.428 34.4086 156.612 41.4975 155.435C47.1554 154.494 45.8939 148.111 41.1397 147.188Z" fill="#474749"/>
<path d="M168.661 181.004C161.13 180.75 164.096 193.289 170.817 189.251C174.301 187.161 172.775 181.145 168.661 181.004Z" fill="#474749"/>
<path d="M126.712 168.002C120.112 167.814 120.969 179.281 128.143 176.249C132.765 174.3 131.447 168.134 126.712 168.002Z" fill="#474749"/>
<path d="M231.917 182.259C223.19 180.122 225.562 191.956 231.917 189.791C235.965 188.407 234.967 183.003 231.917 182.259Z" fill="#474749"/>
<path d="M328.027 135.27C320.345 132.86 320.363 147.499 327.669 142.444C331.19 140.006 329.862 135.845 328.027 135.27Z" fill="#474749"/>
<path d="M172.918 165.859C165.726 164.56 166.545 176.902 172.918 173.39C176.27 171.545 176.279 166.471 172.918 165.859Z" fill="#474749"/>
<path d="M63.0402 172.32C59.6511 171.887 58.5684 182.177 64.1134 181.283C69.8373 180.36 65.9304 172.688 63.0402 172.32Z" fill="#474749"/>
<path d="M38.0069 159.117C33.0362 157.771 32.5467 168.531 39.0802 167.006C42.9118 166.112 40.1534 159.701 38.0069 159.117Z" fill="#474749"/>
<path d="M16.4009 158.144C8.56823 156.591 13.426 168.133 17.4741 165.676C19.1687 164.65 19.7241 158.803 16.4009 158.144Z" fill="#474749"/>
<path d="M198.29 193.013C194.948 192.646 193.819 199.999 197.575 200.902C204.447 202.559 201.745 193.39 198.29 193.013Z" fill="#474749"/>
<path d="M82.0475 170.174C76.1636 168.686 76.0695 177.234 80.2588 177.705C84.7965 178.213 84.7871 170.861 82.0475 170.174Z" fill="#474749"/>
<path d="M204.825 164.024C198.678 163.45 201.163 173.457 206.614 170.84C209.626 169.39 208.205 164.344 204.825 164.024Z" fill="#474749"/>
<path d="M329.902 179.709C325.929 178.815 322.389 186.261 326.673 187.24C330.937 188.21 332.829 180.368 329.902 179.709Z" fill="#474749"/>
<path d="M63.6248 127.244C56.1969 125.145 58.7388 137.393 64.3402 133.344C66.7409 131.603 65.4229 127.762 63.6248 127.244Z" fill="#474749"/>
<path d="M379.629 187.091C374.328 185.999 373.848 195.103 379.986 193.549C382.952 192.796 382.34 187.656 379.629 187.091Z" fill="#474749"/>
<path d="M148.316 126.955C142.056 125.524 143.534 135.663 149.032 133.055C151.517 131.878 150.896 127.548 148.316 126.955Z" fill="#474749"/>
<path d="M293.657 135.594C289.703 134.596 287.011 139.708 289.713 141.327C293.074 143.351 298.478 136.808 293.657 135.594Z" fill="#474749"/>
<path d="M370.016 181.092C365.544 180.169 365.139 186.477 368.227 187.192C372.699 188.219 373.631 181.836 370.016 181.092Z" fill="#474749"/>
<path d="M322.012 172.545C317.654 171.622 317.061 177.911 320.224 178.645C324.827 179.7 325.373 173.261 322.012 172.545Z" fill="#474749"/>
<path d="M102.748 146.225C98.4929 144.851 96.8548 150.16 99.5191 151.601C104.038 154.048 105.864 147.223 102.748 146.225Z" fill="#474749"/>
<path d="M168.397 135.559C163.869 134.138 162.927 140.577 166.241 141.292C170.619 142.243 170.882 136.34 168.397 135.559Z" fill="#474749"/>
<path d="M167.175 156.171C161.254 154.637 162.506 163.976 167.533 161.547C169.877 160.417 169.115 156.67 167.175 156.171Z" fill="#474749"/>
<path d="M52.8644 133.693C49.1458 133.015 47.8184 138.57 51.0757 139.426C55.9899 140.725 55.9523 134.248 52.8644 133.693Z" fill="#474749"/>
<path d="M360.979 191.393C356.743 190.424 356.018 196.411 359.19 197.127C363.427 198.096 364.152 192.109 360.979 191.393Z" fill="#474749"/>
<path d="M396.389 136.05C391.391 135.268 392.746 144.033 397.463 141.425C399.882 140.088 398.253 136.341 396.389 136.05Z" fill="#474749"/>
<path d="M176.017 129.643C171.8 129.022 173.042 135.019 175.302 135.377C178.954 135.96 179.5 130.152 176.017 129.643Z" fill="#474749"/>
<path d="M278.595 128.062C274.754 127.366 274.255 132.713 276.806 133.438C280.883 134.605 281.928 128.665 278.595 128.062Z" fill="#474749"/>
<path d="M334.562 171.104C330.815 169.984 331.615 178.287 335.993 176.838C339.015 175.84 335.823 171.481 334.562 171.104Z" fill="#474749"/>
<path d="M177.369 148.833C175.194 148.127 173.133 150.179 173.246 151.526C173.622 156.148 181.982 150.339 177.369 148.833Z" fill="#474749"/>
<path d="M188.566 127.13C183.981 125.915 185.045 133.691 188.924 131.432C190.609 130.453 190.044 127.525 188.566 127.13Z" fill="#474749"/>
<path d="M187.135 135.377C183.04 134.078 183.577 141.628 187.135 139.679C188.849 138.747 188.679 135.866 187.135 135.377Z" fill="#474749"/>
<path d="M253.181 181.803C251.533 181.465 248.37 181.935 246.722 182.519C237.44 185.823 245.056 199.116 253.896 193.995C258.283 191.453 258.886 182.98 253.181 181.803Z" fill="#474749"/>
<path d="M296.213 193.279C288.616 192.112 284.812 203.739 292.268 205.828C300.732 208.21 304.498 194.55 296.213 193.279Z" fill="#474749"/>
<path d="M299.442 169.97C292.061 168.943 291.883 180.288 297.654 181.088C305.571 182.189 305.213 170.77 299.442 169.97Z" fill="#474749"/>
<path d="M239.558 204.755C233.994 204.284 232.497 212.607 237.044 213.718C243.842 215.384 246.713 205.358 239.558 204.755Z" fill="#474749"/>
<path d="M211.221 202.241C202.174 200.481 204.49 211.665 211.579 210.488C217.237 209.547 215.975 203.164 211.221 202.241Z" fill="#474749"/>
<path d="M185.05 196.866C177.518 196.612 180.484 209.152 187.205 205.113C190.689 203.023 189.164 197.007 185.05 196.866Z" fill="#474749"/>
<path d="M200.828 182.161C194.229 181.973 195.085 193.439 202.259 190.408C206.881 188.459 205.563 182.293 200.828 182.161Z" fill="#474749"/>
<path d="M192.939 164.952C184.212 162.815 186.584 174.649 192.939 172.483C196.987 171.1 195.989 165.696 192.939 164.952Z" fill="#474749"/>
<path d="M233.458 196.509C225.776 194.098 225.795 208.738 233.1 203.682C236.621 201.244 235.294 197.083 233.458 196.509Z" fill="#474749"/>
<path d="M313.432 165.31C306.239 164.011 307.058 176.353 313.432 172.841C316.783 170.996 316.793 165.922 313.432 165.31Z" fill="#474749"/>
<path d="M397.04 173.013C393.651 172.58 392.568 182.87 398.113 181.976C403.837 181.053 399.93 173.38 397.04 173.013Z" fill="#474749"/>
<path d="M426.851 184.118C421.522 182.941 420.628 190.934 425.062 191.649C430.212 192.478 430.899 185.012 426.851 184.118Z" fill="#474749"/>
<path d="M213.019 136.258C208.049 134.911 207.559 145.672 214.093 144.147C217.924 143.252 215.166 136.841 213.019 136.258Z" fill="#474749"/>
<path d="M201.901 126.937C194.068 125.384 198.926 136.925 202.974 134.468C204.669 133.442 205.224 127.596 201.901 126.937Z" fill="#474749"/>
<path d="M234.889 169.612C231.546 169.245 230.417 176.597 234.173 177.501C241.045 179.158 238.344 169.988 234.889 169.612Z" fill="#474749"/>
<path d="M282.233 142.715C276.349 141.228 276.255 149.776 280.444 150.247C284.982 150.755 284.972 143.402 282.233 142.715Z" fill="#474749"/>
<path d="M220.193 173.557C214.046 172.982 216.531 182.99 221.982 180.372C224.994 178.923 223.573 173.877 220.193 173.557Z" fill="#474749"/>
<path d="M165.18 106.074C161.207 105.18 157.668 112.627 161.951 113.606C166.216 114.575 168.108 106.733 165.18 106.074Z" fill="#474749"/>
<path d="M309.845 114.03C302.417 111.931 304.959 124.179 310.56 120.131C312.961 118.389 311.643 114.548 309.845 114.03Z" fill="#474749"/>
<path d="M174.795 191.016C169.298 190.555 170.446 200.251 176.226 197.474C179.145 196.071 177.62 191.261 174.795 191.016Z" fill="#474749"/>
<path d="M286.177 159.567C280.877 158.475 280.397 167.578 286.535 166.025C289.501 165.272 288.889 160.132 286.177 159.567Z" fill="#474749"/>
<path d="M19.9971 179.07C14.631 178.091 15.1017 187.694 20.7126 185.886C23.2074 185.077 22.6143 179.55 19.9971 179.07Z" fill="#474749"/>
<path d="M243.86 157.42C239.285 156.121 238.589 168.416 245.291 163.878C248.012 162.033 244.218 157.524 243.86 157.42Z" fill="#474749"/>
<path d="M288.681 177.858C282.421 176.428 283.899 186.567 289.397 183.959C291.882 182.782 291.261 178.452 288.681 177.858Z" fill="#474749"/>
<path d="M320.963 144.146C317.009 143.148 314.316 148.26 317.018 149.88C320.379 151.904 325.783 145.361 320.963 144.146Z" fill="#474749"/>
<path d="M102.016 185.092C97.5438 184.169 97.139 190.477 100.227 191.192C104.699 192.219 105.631 185.836 102.016 185.092Z" fill="#474749"/>
<path d="M264.656 199.738C260.298 198.815 259.705 205.104 262.868 205.838C267.471 206.892 268.017 200.453 264.656 199.738Z" fill="#474749"/>
<path d="M221.624 154.549C217.369 153.175 215.731 158.484 218.395 159.925C222.914 162.372 224.74 155.547 221.624 154.549Z" fill="#474749"/>
<path d="M329.717 198.125C326.629 197.174 323.692 201.928 326.13 203.5C330.094 206.051 333.238 199.207 329.717 198.125Z" fill="#474749"/>
<path d="M308.762 186.463C304.234 185.041 303.293 191.481 306.606 192.196C310.984 193.147 311.248 187.244 308.762 186.463Z" fill="#474749"/>
<path d="M307.689 155.622C301.768 154.088 303.02 163.427 308.047 160.998C310.391 159.868 309.628 156.121 307.689 155.622Z" fill="#474749"/>
<path d="M299.084 120.479C295.366 119.801 294.038 125.356 297.296 126.212C302.21 127.512 302.172 121.035 299.084 120.479Z" fill="#474749"/>
<path d="M449.979 154.106C445.742 153.136 445.018 159.124 448.19 159.839C452.427 160.809 453.151 154.821 449.979 154.106Z" fill="#474749"/>
<path d="M357.255 141.006C354.026 140.808 353.113 145.939 355.824 146.739C360.672 148.189 361.106 141.232 357.255 141.006Z" fill="#474749"/>
<path d="M409.389 194.05C404.391 193.268 405.746 202.033 410.463 199.425C412.882 198.088 411.253 194.341 409.389 194.05Z" fill="#474749"/>
<path d="M358.017 112.045C353.8 111.424 355.042 117.421 357.302 117.778C360.954 118.362 361.5 112.553 358.017 112.045Z" fill="#474749"/>
<path d="M305.901 136.615C302.06 135.918 301.561 141.265 304.112 141.99C308.188 143.158 309.233 137.217 305.901 136.615Z" fill="#474749"/>
<path d="M448.615 197.104C444.868 195.984 445.668 204.287 450.046 202.838C453.068 201.84 449.876 197.481 448.615 197.104Z" fill="#474749"/>
<path d="M195.085 109.003C193.268 108.899 190.811 111.705 192.75 113.842C195.593 116.958 200.122 109.295 195.085 109.003Z" fill="#474749"/>
<path d="M138.832 202.062C134.671 201.243 135.838 208.794 139.905 207.438C142.108 206.704 139.98 202.288 138.832 202.062Z" fill="#474749"/>
<path d="M437.167 140.039C434.145 139.54 433.091 143.974 435.736 144.699C439.389 145.706 440.095 140.519 437.167 140.039Z" fill="#474749"/>
<path d="M317.734 199.737C315.56 199.031 313.498 201.083 313.611 202.43C313.987 207.052 322.347 201.243 317.734 199.737Z" fill="#474749"/>
<path d="M195.801 144.504C191.978 143.393 192.515 149.211 195.085 149.522C198.286 149.908 197.749 145.069 195.801 144.504Z" fill="#474749"/>
<path d="M252.614 202.008C249.414 201.773 249.969 206.621 251.183 207.026C253.273 207.723 257.293 202.347 252.614 202.008Z" fill="#474749"/>
<path d="M369.244 207.13C364.659 205.915 365.723 213.691 369.601 211.432C371.287 210.453 370.722 207.525 369.244 207.13Z" fill="#474749"/>
<path d="M371.956 197.07C368.868 196.354 368.247 201.372 370.883 201.73C373.896 202.144 374.291 197.616 371.956 197.07Z" fill="#474749"/>
<path d="M286.535 119.763C282.44 118.464 282.977 126.015 286.535 124.066C288.249 123.134 288.079 120.253 286.535 119.763Z" fill="#474749"/>
<path d="M233.458 158.493C229.927 157.251 230.219 162.457 232.742 162.796C235.971 163.229 234.7 158.926 233.458 158.493Z" fill="#474749"/>
<path d="M218.395 192.921C211.466 192.648 215.797 196.753 218.037 195.793C218.574 195.557 219.393 193.364 218.395 192.921Z" fill="#474749"/>
<path d="M189.71 152.035C187.469 151.292 186.499 155.086 188.279 155.622C190.482 156.291 191.338 152.581 189.71 152.035Z" fill="#474749"/>
<path d="M280.793 172.116C278.844 171.843 278.787 174.714 280.077 174.987C282.224 175.448 283.476 172.492 280.793 172.116Z" fill="#474749"/>
<path d="M158.693 163.202C167.436 164.697 160.269 178.007 154.41 171.34C151.772 168.334 155.11 162.587 158.693 163.202Z" fill="#474749"/>
<path d="M359.095 164.069C368.736 162.883 368.971 177.306 360.526 178.059C351.583 178.85 350.566 165.124 359.095 164.069Z" fill="#474749"/>
<path d="M398.185 148.125C404.964 146.723 409.661 157.492 401.057 161.032C390.4 165.419 391.821 149.443 398.185 148.125Z" fill="#474749"/>
<path d="M311.857 125.082C319.454 123.915 323.258 135.541 315.802 137.631C307.338 140.013 303.573 126.353 311.857 125.082Z" fill="#474749"/>
<path d="M393.919 113.114C392.271 112.775 389.108 113.246 387.46 113.829C378.178 117.134 385.794 130.427 394.634 125.305C399.021 122.763 399.624 114.291 393.919 113.114Z" fill="#474749"/>
<path d="M418.427 132.14C431.588 130.04 427.832 152.399 416.271 145.762C411.065 142.768 413.032 132.996 418.427 132.14Z" fill="#474749"/>
<path d="M176.369 110.114C178.016 109.775 181.18 110.246 182.827 110.829C192.11 114.134 184.493 127.427 175.653 122.305C171.266 119.763 170.664 111.291 176.369 110.114Z" fill="#474749"/>
<path d="M293.095 145.069C302.736 143.883 302.971 158.306 294.526 159.059C285.583 159.85 284.566 146.124 293.095 145.069Z" fill="#474749"/>
<path d="M326.185 113.125C332.964 111.723 337.661 122.492 329.057 126.032C318.4 130.419 319.821 114.443 326.185 113.125Z" fill="#474749"/>
<path d="M102.857 114.082C110.454 112.915 114.258 124.541 106.802 126.631C98.3383 129.013 94.5726 115.353 102.857 114.082Z" fill="#474749"/>
<path d="M161.391 192.019C166.955 191.549 168.452 199.871 163.905 200.982C157.108 202.648 154.237 192.622 161.391 192.019Z" fill="#474749"/>
<path d="M345.333 125.188C354.38 123.428 352.065 134.612 344.976 133.435C339.318 132.494 340.579 126.111 345.333 125.188Z" fill="#474749"/>
<path d="M469.839 164.106C476.947 162.769 476.335 174.565 468.408 171.995C463.804 170.508 467.57 164.53 469.839 164.106Z" fill="#474749"/>
<path d="M432.892 103.427C435.719 98.7596 442.119 103.63 439.576 107.332C436.621 111.63 430.745 106.974 432.892 103.427Z" fill="#474749"/>
<path d="M255.919 165.114C254.271 164.775 251.108 165.246 249.46 165.829C240.178 169.134 247.794 182.427 256.634 177.305C261.021 174.763 261.624 166.291 255.919 165.114Z" fill="#474749"/>
<path d="M447.917 116.259C439.19 114.122 441.562 125.956 447.917 123.791C451.965 122.407 450.967 117.003 447.917 116.259Z" fill="#474749"/>
<path d="M22.9186 126.114C21.2712 125.775 18.108 126.246 16.4605 126.829C7.17803 130.134 14.7942 143.427 23.6341 138.305C28.0212 135.763 28.6237 127.291 22.9186 126.114Z" fill="#474749"/>
<path d="M457.203 183.082C449.606 181.915 445.803 193.541 453.259 195.631C461.722 198.013 465.488 184.353 457.203 183.082Z" fill="#474749"/>
<path d="M86.0804 201.066C78.6996 200.039 78.5208 211.384 84.2917 212.184C92.2091 213.285 91.8513 201.866 86.0804 201.066Z" fill="#474749"/>
<path d="M455.937 130.878C450.554 136.152 461.674 142.663 463.392 135.011C464.285 131.048 458.879 127.999 455.937 130.878Z" fill="#474749"/>
<path d="M183.851 180.118C178.522 178.941 177.628 186.934 182.062 187.649C187.212 188.478 187.899 181.012 183.851 180.118Z" fill="#474749"/>
<path d="M118.902 194.709C114.929 193.815 111.389 201.261 115.673 202.24C119.937 203.21 121.829 195.368 118.902 194.709Z" fill="#474749"/>
<path d="M111.012 187.545C106.654 186.622 106.061 192.911 109.224 193.645C113.827 194.7 114.373 188.261 111.012 187.545Z" fill="#474749"/>
<path d="M123.562 186.104C119.815 184.984 120.615 193.287 124.993 191.838C128.015 190.84 124.823 186.481 123.562 186.104Z" fill="#474749"/>
<path d="M15.957 250.417C2.79592 248.318 6.55221 270.677 18.1129 264.04C23.319 261.046 21.3514 251.274 15.957 250.417Z" fill="#474749"/>
<path d="M395.718 235.355C394.071 235.016 390.908 235.486 389.26 236.07C379.978 239.374 387.594 252.667 396.434 247.546C400.821 245.004 401.423 236.531 395.718 235.355Z" fill="#474749"/>
<path d="M58.6321 246.83C48.9919 245.644 48.7565 260.067 57.2011 260.82C66.1446 261.611 67.1614 247.885 58.6321 246.83Z" fill="#474749"/>
<path d="M39.9823 231.768C33.2041 230.365 28.5064 241.135 37.111 244.675C47.7679 249.062 46.3464 233.086 39.9823 231.768Z" fill="#474749"/>
<path d="M438.751 246.83C431.154 245.663 427.35 257.29 434.806 259.38C443.27 261.761 447.035 248.101 438.751 246.83Z" fill="#474749"/>
<path d="M441.98 223.521C434.599 222.495 434.42 233.839 440.191 234.639C448.109 235.74 447.751 224.321 441.98 223.521Z" fill="#474749"/>
<path d="M382.096 258.306C376.532 257.836 375.035 266.158 379.582 267.269C386.379 268.935 389.251 258.909 382.096 258.306Z" fill="#474749"/>
<path d="M353.759 255.792C344.712 254.032 347.028 265.216 354.117 264.039C359.775 263.098 358.513 256.715 353.759 255.792Z" fill="#474749"/>
<path d="M327.587 250.417C320.056 250.163 323.022 262.703 329.743 258.664C333.227 256.574 331.701 250.559 327.587 250.417Z" fill="#474749"/>
<path d="M343.366 235.712C336.767 235.524 337.623 246.991 344.797 243.959C349.419 242.01 348.101 235.844 343.366 235.712Z" fill="#474749"/>
<path d="M474.252 253.289C467.144 251.754 467.079 263.758 474.61 261.893C478.498 260.933 477.698 254.033 474.252 253.289Z" fill="#474749"/>
<path d="M9.499 232.126C3.00318 231.288 3.56802 243.103 10.93 241.446C16.3808 240.222 11.1653 236.268 11.1088 235.891C11.0618 235.618 13.6695 232.662 9.499 232.126Z" fill="#474749"/>
<path d="M56.1181 214.191C49.0104 212.854 49.6223 224.65 57.5491 222.08C62.1527 220.593 58.3869 214.615 56.1181 214.191Z" fill="#474749"/>
<path d="M84.446 248.261C76.0956 246.18 75.6249 256.941 83.0151 255.792C86.8561 255.199 87.7881 249.099 84.446 248.261Z" fill="#474749"/>
<path d="M335.477 218.503C326.75 216.366 329.122 228.2 335.477 226.035C339.525 224.651 338.527 219.247 335.477 218.503Z" fill="#474749"/>
<path d="M375.996 250.06C368.314 247.65 368.332 262.289 375.638 257.233C379.159 254.795 377.831 250.634 375.996 250.06Z" fill="#474749"/>
<path d="M455.97 218.861C448.777 217.562 449.596 229.904 455.97 226.392C459.321 224.547 459.331 219.473 455.97 218.861Z" fill="#474749"/>
<path d="M75.4835 216.347C67.905 214.699 68.1969 225.065 75.8412 223.163C79.2304 222.316 78.6937 217.044 75.4835 216.347Z" fill="#474749"/>
<path d="M306.354 252.118C301.026 250.941 300.132 258.934 304.566 259.649C309.715 260.478 310.403 253.012 306.354 252.118Z" fill="#474749"/>
<path d="M377.426 223.163C374.084 222.796 372.955 230.148 376.711 231.052C383.583 232.709 380.881 223.54 377.426 223.163Z" fill="#474749"/>
<path d="M159.402 236.428C152.652 234.95 155.571 246.152 160.118 244.674C161.718 244.157 162.17 237.03 159.402 236.428Z" fill="#474749"/>
<path d="M362.731 227.108C356.583 226.533 359.069 236.541 364.52 233.924C367.532 232.474 366.111 227.428 362.731 227.108Z" fill="#474749"/>
<path d="M130.35 240.015C128.862 239.647 125.511 240.796 125.153 242.349C124.494 245.174 128.128 244.383 128.919 247.188C134.718 246.878 132.713 240.589 130.35 240.015Z" fill="#474749"/>
<path d="M415.084 260.453C411.111 259.558 407.571 267.005 411.854 267.984C416.119 268.954 418.011 261.112 415.084 260.453Z" fill="#474749"/>
<path d="M469.95 237.143C464.226 235.336 464.056 245.532 469.95 244.317C473.631 243.555 470.646 239.789 471.202 238.396C470.797 238.104 470.176 237.209 469.95 237.143Z" fill="#474749"/>
<path d="M84.446 260.095C79.7295 259.652 79.7954 268.558 85.1615 267.269C88.2211 266.534 87.7033 260.406 84.446 260.095Z" fill="#474749"/>
<path d="M74.0524 234.639C69.8443 234.036 69.0346 241.069 72.2637 241.813C77.0085 242.905 77.884 235.185 74.0524 234.639Z" fill="#474749"/>
<path d="M324.358 231.052C323.031 230.817 321.798 231.24 320.95 232.304C322.645 234.884 317.721 239.638 324.716 237.858C328.115 237.002 327.531 231.617 324.358 231.043V231.052Z" fill="#474749"/>
<path d="M90.9038 237.143C89.0774 236.569 81.7908 241.653 87.6747 243.959C92.9279 246.011 92.3724 237.614 90.9038 237.143Z" fill="#474749"/>
<path d="M431.219 231.41C424.959 229.979 426.437 240.118 431.935 237.51C434.42 236.333 433.799 232.003 431.219 231.41Z" fill="#474749"/>
<path d="M93.0504 227.465C86.6299 226.044 87.9668 234.987 91.2617 233.923C91.836 233.735 92.0808 232.031 92.6927 231.768C92.7962 231.72 94.4626 232.85 95.0274 231.589C95.6205 230.242 94.6038 227.804 93.0504 227.465Z" fill="#474749"/>
<path d="M407.194 253.289C402.835 252.366 402.242 258.655 405.406 259.389C410.009 260.444 410.555 254.004 407.194 253.289Z" fill="#474749"/>
<path d="M451.3 240.014C446.772 238.593 445.83 245.032 449.144 245.747C453.522 246.698 453.785 240.796 451.3 240.014Z" fill="#474749"/>
<path d="M183.427 260.095C178.193 263.71 185.8 268.728 187.551 263.861C189.452 258.561 184.246 262.063 183.427 260.095Z" fill="#474749"/>
<path d="M107.04 219.218C102.521 217.91 100.733 226.816 106.325 225.319C108.283 224.792 108.895 219.755 107.04 219.218Z" fill="#474749"/>
<path d="M410.066 217.42C405.829 216.45 405.104 222.438 408.277 223.153C412.513 224.123 413.238 218.136 410.066 217.42Z" fill="#474749"/>
<path d="M60.0629 228.896C54.3861 227.522 55.5064 237.397 61.315 234.451C60.4677 232.417 63.0943 229.63 60.0629 228.896Z" fill="#474749"/>
<path d="M170.511 251.848C166.868 251.142 165.446 256.725 167.997 257.582C171.98 258.918 174.145 252.545 170.511 251.848Z" fill="#474749"/>
<path d="M146.128 240.73C142.099 239.629 141.638 244.778 144.697 246.106C149.677 248.281 148.472 241.361 146.128 240.73Z" fill="#474749"/>
<path d="M118.516 232.841C114.223 232.154 114.506 239.732 119.231 238.574C122.197 237.849 120.662 233.18 118.516 232.841Z" fill="#474749"/>
<path d="M120.672 261.178C117.17 260.208 114.524 267.909 120.314 266.553C123.242 265.866 122.395 261.658 120.672 261.178Z" fill="#474749"/>
<path d="M419.744 251.848C415.997 250.728 416.797 259.031 421.175 257.581C424.197 256.583 421.005 252.225 419.744 251.848Z" fill="#474749"/>
<path d="M43.2115 255.435C39.7282 254.493 39.3328 261.178 42.496 261.168C45.4709 261.168 45.2261 255.971 43.2115 255.435Z" fill="#474749"/>
<path d="M409.35 235.712C405.189 234.893 406.356 242.443 410.423 241.088C412.626 240.353 410.499 235.938 409.35 235.712Z" fill="#474749"/>
<path d="M155.458 257.233C151.183 256.442 153.462 264.2 156.888 261.893C158.875 260.566 156.983 257.516 155.458 257.233Z" fill="#474749"/>
<path d="M460.272 253.288C458.097 252.582 456.036 254.634 456.149 255.981C456.525 260.603 464.885 254.795 460.272 253.288Z" fill="#474749"/>
<path d="M36.038 216.705C33.6185 215.951 30.7848 220.809 33.8821 221.722C37.4784 222.786 37.6949 217.222 36.038 216.705Z" fill="#474749"/>
<path d="M132.863 225.309C130.764 224.669 128.232 226.91 129.098 229.075C130.35 232.182 136.789 226.505 132.863 225.309Z" fill="#474749"/>
<path d="M46.4405 219.219C39.5964 217.496 43.974 224.415 47.8715 223.163C49.9615 222.485 47.6832 219.529 46.4405 219.219Z" fill="#474749"/>
<path d="M23.8466 224.594C20.4198 223.587 19.6761 228.764 22.4156 229.254C25.72 229.847 26.1436 225.262 23.8466 224.594Z" fill="#474749"/>
<path d="M417.955 239.657C414.754 239.421 415.31 244.27 416.524 244.675C418.614 245.371 422.634 239.996 417.955 239.657Z" fill="#474749"/>
<path d="M423.33 225.667C421.382 225.394 421.325 228.265 422.615 228.538C424.761 228.999 426.013 226.043 423.33 225.667Z" fill="#474749"/>
<path d="M98.0778 254.719C96.1573 254.428 95.6019 255.953 95.7431 256.329C96.4774 258.193 102.201 255.341 98.0778 254.719Z" fill="#474749"/>
<path d="M133.28 250.114C134.927 249.775 138.09 250.246 139.738 250.829C149.02 254.134 141.404 267.427 132.564 262.305C128.177 259.763 127.575 251.291 133.28 250.114Z" fill="#474749"/>
<path d="M309.537 232.004C317.068 231.75 314.103 244.289 307.381 240.251C303.898 238.161 305.423 232.145 309.537 232.004Z" fill="#474749"/>
<path d="M351.487 219.002C358.086 218.814 357.229 230.281 350.056 227.249C345.433 225.3 346.751 219.134 351.487 219.002Z" fill="#474749"/>
<path d="M246.282 233.259C255.009 231.122 252.636 242.956 246.282 240.791C242.233 239.407 243.231 234.003 246.282 233.259Z" fill="#474749"/>
<path d="M305.28 216.859C312.473 215.56 311.654 227.902 305.28 224.39C301.929 222.545 301.919 217.471 305.28 216.859Z" fill="#474749"/>
<path d="M415.158 223.32C418.547 222.887 419.63 233.177 414.085 232.283C408.361 231.36 412.268 223.688 415.158 223.32Z" fill="#474749"/>
<path d="M279.908 244.013C283.25 243.646 284.38 250.999 280.623 251.902C273.751 253.559 276.453 244.39 279.908 244.013Z" fill="#474749"/>
<path d="M396.151 221.174C402.035 219.686 402.129 228.234 397.939 228.705C393.402 229.213 393.411 221.861 396.151 221.174Z" fill="#474749"/>
<path d="M415.438 101.024C421.586 100.45 419.1 110.457 413.649 107.84C410.637 106.39 412.058 101.344 415.438 101.024Z" fill="#474749"/>
<path d="M148.297 230.709C152.269 229.815 155.809 237.261 151.526 238.24C147.261 239.21 145.369 231.368 148.297 230.709Z" fill="#474749"/>
<path d="M98.5697 238.091C103.87 236.999 104.35 246.103 98.2119 244.549C95.2464 243.796 95.8584 238.656 98.5697 238.091Z" fill="#474749"/>
<path d="M108.183 232.092C112.654 231.169 113.059 237.477 109.971 238.192C105.5 239.219 104.568 232.836 108.183 232.092Z" fill="#474749"/>
<path d="M156.186 223.545C160.545 222.622 161.138 228.911 157.975 229.645C153.371 230.7 152.825 224.261 156.186 223.545Z" fill="#474749"/>
<path d="M117.219 242.393C121.456 241.424 122.18 247.411 119.008 248.127C114.771 249.096 114.047 243.109 117.219 242.393Z" fill="#474749"/>
<path d="M143.636 222.104C147.383 220.984 146.583 229.287 142.206 227.838C139.184 226.84 142.375 222.481 143.636 222.104Z" fill="#474749"/>
<path d="M225.018 232.803C226.665 232.465 229.828 232.935 231.476 233.519C240.758 236.823 233.142 250.116 224.302 244.995C219.915 242.453 219.313 233.98 225.018 232.803Z" fill="#474749"/>
<path d="M181.985 244.279C189.583 243.112 193.386 254.739 185.93 256.828C177.466 259.21 173.701 245.55 181.985 244.279Z" fill="#474749"/>
<path d="M178.756 220.97C186.137 219.943 186.316 231.288 180.545 232.088C172.627 233.189 172.985 221.77 178.756 220.97Z" fill="#474749"/>
<path d="M238.64 255.755C244.204 255.284 245.701 263.607 241.154 264.718C234.357 266.384 231.485 256.358 238.64 255.755Z" fill="#474749"/>
<path d="M266.977 253.241C276.024 251.481 273.708 262.665 266.619 261.488C260.961 260.547 262.223 254.164 266.977 253.241Z" fill="#474749"/>
<path d="M293.149 247.866C300.68 247.612 297.715 260.152 290.993 256.113C287.51 254.023 289.035 248.007 293.149 247.866Z" fill="#474749"/>
<path d="M372.299 84.0023C378.899 83.814 378.042 95.2806 370.868 92.2492C366.246 90.3004 367.564 84.1341 372.299 84.0023Z" fill="#474749"/>
<path d="M285.259 215.952C293.986 213.815 291.614 225.649 285.259 223.483C281.211 222.1 282.209 216.696 285.259 215.952Z" fill="#474749"/>
<path d="M244.741 247.509C252.423 245.098 252.404 259.738 245.098 254.682C241.577 252.244 242.905 248.083 244.741 247.509Z" fill="#474749"/>
<path d="M164.766 216.31C171.959 215.011 171.14 227.353 164.766 223.841C161.415 221.996 161.406 216.922 164.766 216.31Z" fill="#474749"/>
<path d="M81.158 224.013C84.5472 223.58 85.6298 233.87 80.0848 232.976C74.361 232.053 78.2679 224.38 81.158 224.013Z" fill="#474749"/>
<path d="M51.3474 235.118C56.6759 233.941 57.5702 241.934 53.1361 242.649C47.9865 243.478 47.2993 236.012 51.3474 235.118Z" fill="#474749"/>
<path d="M243.31 220.612C246.652 220.245 247.781 227.597 244.025 228.501C237.153 230.158 239.855 220.988 243.31 220.612Z" fill="#474749"/>
<path d="M258.005 224.557C264.153 223.982 261.667 233.99 256.216 231.372C253.204 229.923 254.625 224.877 258.005 224.557Z" fill="#474749"/>
<path d="M205.653 257.902C209.625 257.007 213.165 264.454 208.882 265.433C204.617 266.403 202.725 258.561 205.653 257.902Z" fill="#474749"/>
<path d="M303.403 242.016C308.901 241.555 307.752 251.251 301.972 248.474C299.053 247.071 300.579 242.261 303.403 242.016Z" fill="#474749"/>
<path d="M458.201 230.07C463.567 229.091 463.097 238.694 457.486 236.886C454.991 236.077 455.584 230.55 458.201 230.07Z" fill="#474749"/>
<path d="M189.517 228.858C195.777 227.428 194.299 237.567 188.801 234.959C186.316 233.782 186.937 229.452 189.517 228.858Z" fill="#474749"/>
<path d="M376.183 236.092C380.654 235.169 381.059 241.477 377.971 242.192C373.5 243.219 372.568 236.836 376.183 236.092Z" fill="#474749"/>
<path d="M213.542 250.738C217.901 249.815 218.494 256.104 215.33 256.838C210.727 257.892 210.181 251.453 213.542 250.738Z" fill="#474749"/>
<path d="M148.481 249.125C151.569 248.174 154.506 252.928 152.068 254.5C148.105 257.051 144.96 250.207 148.481 249.125Z" fill="#474749"/>
<path d="M169.436 237.463C173.964 236.041 174.906 242.481 171.592 243.196C167.214 244.147 166.951 238.244 169.436 237.463Z" fill="#474749"/>
<path d="M68.8088 245.05C73.8077 244.268 72.4521 253.033 67.7356 250.425C65.3161 249.088 66.9448 245.341 68.8088 245.05Z" fill="#474749"/>
<path d="M29.5833 248.104C33.3301 246.984 32.5299 255.287 28.1523 253.838C25.1303 252.84 28.3218 248.481 29.5833 248.104Z" fill="#474749"/>
<path d="M339.366 253.062C343.527 252.243 342.36 259.794 338.293 258.438C336.09 257.704 338.218 253.288 339.366 253.062Z" fill="#474749"/>
<path d="M160.464 250.737C162.639 250.031 164.7 252.083 164.587 253.43C164.211 258.052 155.851 252.243 160.464 250.737Z" fill="#474749"/>
<path d="M225.584 253.008C228.785 252.773 228.229 257.621 227.015 258.026C224.925 258.723 220.905 253.347 225.584 253.008Z" fill="#474749"/>
<path d="M108.954 258.13C113.539 256.915 112.475 264.691 108.597 262.432C106.912 261.453 107.476 258.525 108.954 258.13Z" fill="#474749"/>
<path d="M106.242 248.07C109.33 247.354 109.951 252.372 107.315 252.73C104.303 253.144 103.907 248.616 106.242 248.07Z" fill="#474749"/>
<path d="M78.4703 113.013C85.3992 112.74 81.0686 116.845 78.828 115.884C78.2914 115.649 77.4724 113.456 78.4703 113.013Z" fill="#474749"/>
<path d="M197.406 223.116C199.354 222.843 199.411 225.714 198.121 225.987C195.975 226.448 194.723 223.492 197.406 223.116Z" fill="#474749"/>
<path d="M319.506 214.202C310.762 215.697 317.929 229.007 323.788 222.34C326.426 219.334 323.088 213.587 319.506 214.202Z" fill="#474749"/>
<path d="M119.103 215.069C109.463 213.883 109.227 228.306 117.672 229.059C126.615 229.85 127.632 216.124 119.103 215.069Z" fill="#474749"/>
<path d="M316.807 243.019C311.243 242.549 309.746 250.871 314.293 251.982C321.09 253.648 323.962 243.622 316.807 243.019Z" fill="#474749"/>
<path d="M8.35933 215.106C1.25157 213.769 1.86352 225.565 9.79031 222.995C14.3939 221.508 10.6282 215.53 8.35933 215.106Z" fill="#474749"/>
<path d="M222.28 216.114C223.927 215.775 227.09 216.246 228.738 216.829C238.02 220.134 230.404 233.427 221.564 228.305C217.177 225.763 216.575 217.291 222.28 216.114Z" fill="#474749"/>
<path d="M20.995 234.082C28.5923 232.915 32.3957 244.541 24.9396 246.631C16.4762 249.013 12.7105 235.353 20.995 234.082Z" fill="#474749"/>
<path d="M392.118 252.066C399.499 251.039 399.677 262.384 393.907 263.184C385.989 264.285 386.347 252.866 392.118 252.066Z" fill="#474749"/>
<path d="M294.347 231.118C299.676 229.941 300.57 237.934 296.136 238.649C290.987 239.478 290.299 232.012 294.347 231.118Z" fill="#474749"/>
<path d="M359.297 245.709C363.269 244.815 366.809 252.261 362.526 253.24C358.261 254.21 356.369 246.368 359.297 245.709Z" fill="#474749"/>
<path d="M367.186 238.545C371.545 237.622 372.138 243.911 368.975 244.645C364.371 245.7 363.825 239.261 367.186 238.545Z" fill="#474749"/>
<path d="M354.636 237.104C358.383 235.984 357.583 244.287 353.206 242.838C350.184 241.84 353.375 237.481 354.636 237.104Z" fill="#474749"/>
<path d="M15.957 250.417C2.79592 248.318 6.55221 270.677 18.1129 264.04C23.319 261.046 21.3514 251.274 15.957 250.417Z" fill="#474749"/>
<path d="M395.718 235.355C394.071 235.016 390.908 235.486 389.26 236.07C379.978 239.374 387.594 252.667 396.434 247.546C400.821 245.004 401.423 236.531 395.718 235.355Z" fill="#474749"/>
<path d="M58.6321 246.83C48.9919 245.644 48.7565 260.067 57.2011 260.82C66.1446 261.611 67.1614 247.885 58.6321 246.83Z" fill="#474749"/>
<path d="M39.9823 231.768C33.2041 230.365 28.5064 241.135 37.111 244.675C47.7679 249.062 46.3464 233.086 39.9823 231.768Z" fill="#474749"/>
<path d="M438.751 246.83C431.154 245.663 427.35 257.29 434.806 259.38C443.27 261.761 447.035 248.101 438.751 246.83Z" fill="#474749"/>
<path d="M441.98 223.521C434.599 222.495 434.42 233.839 440.191 234.639C448.109 235.74 447.751 224.321 441.98 223.521Z" fill="#474749"/>
<path d="M382.096 258.306C376.532 257.836 375.035 266.158 379.582 267.269C386.379 268.935 389.251 258.909 382.096 258.306Z" fill="#474749"/>
<path d="M353.759 255.792C344.712 254.032 347.028 265.216 354.117 264.039C359.775 263.098 358.513 256.715 353.759 255.792Z" fill="#474749"/>
<path d="M327.587 250.417C320.056 250.163 323.022 262.703 329.743 258.664C333.227 256.574 331.701 250.559 327.587 250.417Z" fill="#474749"/>
<path d="M343.366 235.712C336.767 235.524 337.623 246.991 344.797 243.959C349.419 242.01 348.101 235.844 343.366 235.712Z" fill="#474749"/>
<path d="M474.252 253.289C467.144 251.754 467.079 263.758 474.61 261.893C478.498 260.933 477.698 254.033 474.252 253.289Z" fill="#474749"/>
<path d="M9.499 232.126C3.00318 231.288 3.56802 243.103 10.93 241.446C16.3808 240.222 11.1653 236.268 11.1088 235.891C11.0618 235.618 13.6695 232.662 9.499 232.126Z" fill="#474749"/>
<path d="M56.1181 214.191C49.0104 212.854 49.6223 224.65 57.5491 222.08C62.1527 220.593 58.3869 214.615 56.1181 214.191Z" fill="#474749"/>
<path d="M84.446 248.261C76.0956 246.18 75.6249 256.941 83.0151 255.792C86.8561 255.199 87.7881 249.099 84.446 248.261Z" fill="#474749"/>
<path d="M335.477 218.503C326.75 216.366 329.122 228.2 335.477 226.035C339.525 224.651 338.527 219.247 335.477 218.503Z" fill="#474749"/>
<path d="M375.996 250.06C368.314 247.65 368.332 262.289 375.638 257.233C379.159 254.795 377.831 250.634 375.996 250.06Z" fill="#474749"/>
<path d="M455.97 218.861C448.777 217.562 449.596 229.904 455.97 226.392C459.321 224.547 459.331 219.473 455.97 218.861Z" fill="#474749"/>
<path d="M75.4835 216.347C67.905 214.699 68.1969 225.065 75.8412 223.163C79.2304 222.316 78.6937 217.044 75.4835 216.347Z" fill="#474749"/>
<path d="M306.354 252.118C301.026 250.941 300.132 258.934 304.566 259.649C309.715 260.478 310.403 253.012 306.354 252.118Z" fill="#474749"/>
<path d="M377.426 223.163C374.084 222.796 372.955 230.148 376.711 231.052C383.583 232.709 380.881 223.54 377.426 223.163Z" fill="#474749"/>
<path d="M159.402 236.428C152.652 234.95 155.571 246.152 160.118 244.674C161.718 244.157 162.17 237.03 159.402 236.428Z" fill="#474749"/>
<path d="M362.731 227.108C356.583 226.533 359.069 236.541 364.52 233.924C367.532 232.474 366.111 227.428 362.731 227.108Z" fill="#474749"/>
<path d="M130.35 240.015C128.862 239.647 125.511 240.796 125.153 242.349C124.494 245.174 128.128 244.383 128.919 247.188C134.718 246.878 132.713 240.589 130.35 240.015Z" fill="#474749"/>
<path d="M415.084 260.453C411.111 259.558 407.571 267.005 411.854 267.984C416.119 268.954 418.011 261.112 415.084 260.453Z" fill="#474749"/>
<path d="M469.95 237.143C464.226 235.336 464.056 245.532 469.95 244.317C473.631 243.555 470.646 239.789 471.202 238.396C470.797 238.104 470.176 237.209 469.95 237.143Z" fill="#474749"/>
<path d="M84.446 260.095C79.7295 259.652 79.7954 268.558 85.1615 267.269C88.2211 266.534 87.7033 260.406 84.446 260.095Z" fill="#474749"/>
<path d="M74.0524 234.639C69.8443 234.036 69.0346 241.069 72.2637 241.813C77.0085 242.905 77.884 235.185 74.0524 234.639Z" fill="#474749"/>
<path d="M324.358 231.052C323.031 230.817 321.798 231.24 320.95 232.304C322.645 234.884 317.721 239.638 324.716 237.858C328.115 237.002 327.531 231.617 324.358 231.043V231.052Z" fill="#474749"/>
<path d="M90.9038 237.143C89.0774 236.569 81.7908 241.653 87.6747 243.959C92.9279 246.011 92.3724 237.614 90.9038 237.143Z" fill="#474749"/>
<path d="M431.219 231.41C424.959 229.979 426.437 240.118 431.935 237.51C434.42 236.333 433.799 232.003 431.219 231.41Z" fill="#474749"/>
<path d="M93.0504 227.465C86.6299 226.044 87.9668 234.987 91.2617 233.923C91.836 233.735 92.0808 232.031 92.6927 231.768C92.7962 231.72 94.4626 232.85 95.0274 231.589C95.6205 230.242 94.6038 227.804 93.0504 227.465Z" fill="#474749"/>
<path d="M407.194 253.289C402.835 252.366 402.242 258.655 405.406 259.389C410.009 260.444 410.555 254.004 407.194 253.289Z" fill="#474749"/>
<path d="M451.3 240.014C446.772 238.593 445.83 245.032 449.144 245.747C453.522 246.698 453.785 240.796 451.3 240.014Z" fill="#474749"/>
<path d="M206.81 223C201.576 226.615 209.183 231.633 210.934 226.766C212.835 221.465 207.629 224.968 206.81 223Z" fill="#474749"/>
<path d="M107.04 219.218C102.521 217.91 100.733 226.816 106.325 225.319C108.283 224.792 108.895 219.755 107.04 219.218Z" fill="#474749"/>
<path d="M410.066 217.42C405.829 216.45 405.104 222.438 408.277 223.153C412.513 224.123 413.238 218.136 410.066 217.42Z" fill="#474749"/>
<path d="M60.0629 228.896C54.3861 227.522 55.5064 237.397 61.315 234.451C60.4677 232.417 63.0943 229.63 60.0629 228.896Z" fill="#474749"/>
<path d="M170.511 251.848C166.868 251.142 165.446 256.725 167.997 257.582C171.98 258.918 174.145 252.545 170.511 251.848Z" fill="#474749"/>
<path d="M146.128 240.73C142.099 239.629 141.638 244.778 144.697 246.106C149.677 248.281 148.472 241.361 146.128 240.73Z" fill="#474749"/>
<path d="M118.516 232.841C114.223 232.154 114.506 239.732 119.231 238.574C122.197 237.849 120.662 233.18 118.516 232.841Z" fill="#474749"/>
<path d="M120.672 261.178C117.17 260.208 114.524 267.909 120.314 266.553C123.242 265.866 122.395 261.658 120.672 261.178Z" fill="#474749"/>
<path d="M419.744 251.848C415.997 250.728 416.797 259.031 421.175 257.581C424.197 256.583 421.005 252.225 419.744 251.848Z" fill="#474749"/>
<path d="M43.2115 255.435C39.7282 254.493 39.3328 261.178 42.496 261.168C45.4709 261.168 45.2261 255.971 43.2115 255.435Z" fill="#474749"/>
<path d="M409.35 235.712C405.189 234.893 406.356 242.443 410.423 241.088C412.626 240.353 410.499 235.938 409.35 235.712Z" fill="#474749"/>
<path d="M155.458 257.233C151.183 256.442 153.462 264.2 156.888 261.893C158.875 260.566 156.983 257.516 155.458 257.233Z" fill="#474749"/>
<path d="M460.272 253.288C458.097 252.582 456.036 254.634 456.149 255.981C456.525 260.603 464.885 254.795 460.272 253.288Z" fill="#474749"/>
<path d="M36.038 216.705C33.6185 215.951 30.7848 220.809 33.8821 221.722C37.4784 222.786 37.6949 217.222 36.038 216.705Z" fill="#474749"/>
<path d="M132.863 225.309C130.764 224.669 128.232 226.91 129.098 229.075C130.35 232.182 136.789 226.505 132.863 225.309Z" fill="#474749"/>
<path d="M46.4405 219.219C39.5964 217.496 43.974 224.415 47.8715 223.163C49.9615 222.485 47.6832 219.529 46.4405 219.219Z" fill="#474749"/>
<path d="M23.8466 224.594C20.4198 223.587 19.6761 228.764 22.4156 229.254C25.72 229.847 26.1436 225.262 23.8466 224.594Z" fill="#474749"/>
<path d="M417.955 239.657C414.754 239.421 415.31 244.27 416.524 244.675C418.614 245.371 422.634 239.996 417.955 239.657Z" fill="#474749"/>
<path d="M423.33 225.667C421.382 225.394 421.325 228.265 422.615 228.538C424.761 228.999 426.013 226.043 423.33 225.667Z" fill="#474749"/>
<path d="M98.0778 254.719C96.1573 254.428 95.6019 255.953 95.7431 256.329C96.4774 258.193 102.201 255.341 98.0778 254.719Z" fill="#474749"/>
<path d="M133.28 250.114C134.927 249.775 138.09 250.246 139.738 250.829C149.02 254.134 141.404 267.427 132.564 262.305C128.177 259.763 127.575 251.291 133.28 250.114Z" fill="#474749"/>
<path d="M309.537 232.004C317.068 231.75 314.103 244.289 307.381 240.251C303.898 238.161 305.423 232.145 309.537 232.004Z" fill="#474749"/>
<path d="M351.487 219.002C358.086 218.814 357.229 230.281 350.056 227.249C345.433 225.3 346.751 219.134 351.487 219.002Z" fill="#474749"/>
<path d="M246.282 233.259C255.009 231.122 252.636 242.956 246.282 240.791C242.233 239.407 243.231 234.003 246.282 233.259Z" fill="#474749"/>
<path d="M305.28 216.859C312.473 215.56 311.654 227.902 305.28 224.39C301.929 222.545 301.919 217.471 305.28 216.859Z" fill="#474749"/>
<path d="M415.158 223.32C418.547 222.887 419.63 233.177 414.085 232.283C408.361 231.36 412.268 223.688 415.158 223.32Z" fill="#474749"/>
<path d="M279.908 244.013C283.25 243.646 284.38 250.999 280.623 251.902C273.751 253.559 276.453 244.39 279.908 244.013Z" fill="#474749"/>
<path d="M396.151 221.174C402.035 219.686 402.129 228.234 397.939 228.705C393.402 229.213 393.411 221.861 396.151 221.174Z" fill="#474749"/>
<path d="M120.438 106.024C126.586 105.45 124.1 115.457 118.649 112.84C115.637 111.39 117.058 106.344 120.438 106.024Z" fill="#474749"/>
<path d="M148.297 230.709C152.269 229.815 155.809 237.261 151.526 238.24C147.261 239.21 145.369 231.368 148.297 230.709Z" fill="#474749"/>
<path d="M98.5697 238.091C103.87 236.999 104.35 246.103 98.2119 244.549C95.2464 243.796 95.8584 238.656 98.5697 238.091Z" fill="#474749"/>
<path d="M108.183 232.092C112.654 231.169 113.059 237.477 109.971 238.192C105.5 239.219 104.568 232.836 108.183 232.092Z" fill="#474749"/>
<path d="M156.186 223.545C160.545 222.622 161.138 228.911 157.975 229.645C153.371 230.7 152.825 224.261 156.186 223.545Z" fill="#474749"/>
<path d="M117.219 242.393C121.456 241.424 122.18 247.411 119.008 248.127C114.771 249.096 114.047 243.109 117.219 242.393Z" fill="#474749"/>
<path d="M143.636 222.104C147.383 220.984 146.583 229.287 142.206 227.838C139.184 226.84 142.375 222.481 143.636 222.104Z" fill="#474749"/>
<path d="M225.018 232.803C226.665 232.465 229.828 232.935 231.476 233.519C240.758 236.823 233.142 250.116 224.302 244.995C219.915 242.453 219.313 233.98 225.018 232.803Z" fill="#474749"/>
<path d="M181.985 244.279C189.583 243.112 193.386 254.739 185.93 256.828C177.466 259.21 173.701 245.55 181.985 244.279Z" fill="#474749"/>
<path d="M178.756 220.97C186.137 219.943 186.316 231.288 180.545 232.088C172.627 233.189 172.985 221.77 178.756 220.97Z" fill="#474749"/>
<path d="M238.64 255.755C244.204 255.284 245.701 263.607 241.154 264.718C234.357 266.384 231.485 256.358 238.64 255.755Z" fill="#474749"/>
<path d="M266.977 253.241C276.024 251.481 273.708 262.665 266.619 261.488C260.961 260.547 262.223 254.164 266.977 253.241Z" fill="#474749"/>
<path d="M293.149 247.866C300.68 247.612 297.715 260.152 290.993 256.113C287.51 254.023 289.035 248.007 293.149 247.866Z" fill="#474749"/>
<path d="M383.299 101.002C389.899 100.814 389.042 112.281 381.868 109.249C377.246 107.3 378.564 101.134 383.299 101.002Z" fill="#474749"/>
<path d="M285.259 215.952C293.986 213.815 291.614 225.649 285.259 223.483C281.211 222.1 282.209 216.696 285.259 215.952Z" fill="#474749"/>
<path d="M244.741 247.509C252.423 245.098 252.404 259.738 245.098 254.682C241.577 252.244 242.905 248.083 244.741 247.509Z" fill="#474749"/>
<path d="M164.766 216.31C171.959 215.011 171.14 227.353 164.766 223.841C161.415 221.996 161.406 216.922 164.766 216.31Z" fill="#474749"/>
<path d="M81.158 224.013C84.5472 223.58 85.6298 233.87 80.0848 232.976C74.361 232.053 78.2679 224.38 81.158 224.013Z" fill="#474749"/>
<path d="M51.3474 235.118C56.6759 233.941 57.5702 241.934 53.1361 242.649C47.9865 243.478 47.2993 236.012 51.3474 235.118Z" fill="#474749"/>
<path d="M243.31 220.612C246.652 220.245 247.781 227.597 244.025 228.501C237.153 230.158 239.855 220.988 243.31 220.612Z" fill="#474749"/>
<path d="M258.005 224.557C264.153 223.982 261.667 233.99 256.216 231.372C253.204 229.923 254.625 224.877 258.005 224.557Z" fill="#474749"/>
<path d="M205.653 257.902C209.625 257.007 213.165 264.454 208.882 265.433C204.617 266.403 202.725 258.561 205.653 257.902Z" fill="#474749"/>
<path d="M303.403 242.016C308.901 241.555 307.752 251.251 301.972 248.474C299.053 247.071 300.579 242.261 303.403 242.016Z" fill="#474749"/>
<path d="M458.201 230.07C463.567 229.091 463.097 238.694 457.486 236.886C454.991 236.077 455.584 230.55 458.201 230.07Z" fill="#474749"/>
<path d="M189.517 228.858C195.777 227.428 194.299 237.567 188.801 234.959C186.316 233.782 186.937 229.452 189.517 228.858Z" fill="#474749"/>
<path d="M376.183 236.092C380.654 235.169 381.059 241.477 377.971 242.192C373.5 243.219 372.568 236.836 376.183 236.092Z" fill="#474749"/>
<path d="M213.542 250.738C217.901 249.815 218.494 256.104 215.33 256.838C210.727 257.892 210.181 251.453 213.542 250.738Z" fill="#474749"/>
<path d="M148.481 249.125C151.569 248.174 154.506 252.928 152.068 254.5C148.105 257.051 144.96 250.207 148.481 249.125Z" fill="#474749"/>
<path d="M169.436 237.463C173.964 236.041 174.906 242.481 171.592 243.196C167.214 244.147 166.951 238.244 169.436 237.463Z" fill="#474749"/>
<path d="M68.8088 245.05C73.8077 244.268 72.4521 253.033 67.7356 250.425C65.3161 249.088 66.9448 245.341 68.8088 245.05Z" fill="#474749"/>
<path d="M29.5833 248.104C33.3301 246.984 32.5299 255.287 28.1523 253.838C25.1303 252.84 28.3218 248.481 29.5833 248.104Z" fill="#474749"/>
<path d="M339.366 253.062C343.527 252.243 342.36 259.794 338.293 258.438C336.09 257.704 338.218 253.288 339.366 253.062Z" fill="#474749"/>
<path d="M160.464 250.737C162.639 250.031 164.7 252.083 164.587 253.43C164.211 258.052 155.851 252.243 160.464 250.737Z" fill="#474749"/>
<path d="M225.584 253.008C228.785 252.773 228.229 257.621 227.015 258.026C224.925 258.723 220.905 253.347 225.584 253.008Z" fill="#474749"/>
<path d="M108.954 258.13C113.539 256.915 112.475 264.691 108.597 262.432C106.912 261.453 107.476 258.525 108.954 258.13Z" fill="#474749"/>
<path d="M106.242 248.07C109.33 247.354 109.951 252.372 107.315 252.73C104.303 253.144 103.907 248.616 106.242 248.07Z" fill="#474749"/>
<path d="M130.47 117.013C137.399 116.74 133.069 120.845 130.828 119.884C130.291 119.649 129.472 117.456 130.47 117.013Z" fill="#474749"/>
<path d="M197.406 223.116C199.354 222.843 199.411 225.714 198.121 225.987C195.975 226.448 194.723 223.492 197.406 223.116Z" fill="#474749"/>
<path d="M319.506 214.202C310.762 215.697 317.929 229.007 323.788 222.34C326.426 219.334 323.088 213.587 319.506 214.202Z" fill="#474749"/>
<path d="M119.103 215.069C109.463 213.883 109.227 228.306 117.672 229.059C126.615 229.85 127.632 216.124 119.103 215.069Z" fill="#474749"/>
<path d="M316.807 243.019C311.243 242.549 309.746 250.871 314.293 251.982C321.09 253.648 323.962 243.622 316.807 243.019Z" fill="#474749"/>
<path d="M8.35933 215.106C1.25157 213.769 1.86352 225.565 9.79031 222.995C14.3939 221.508 10.6282 215.53 8.35933 215.106Z" fill="#474749"/>
<path d="M222.28 216.114C223.927 215.775 227.09 216.246 228.738 216.829C238.02 220.134 230.404 233.427 221.564 228.305C217.177 225.763 216.575 217.291 222.28 216.114Z" fill="#474749"/>
<path d="M20.995 234.082C28.5923 232.915 32.3957 244.541 24.9396 246.631C16.4762 249.013 12.7105 235.353 20.995 234.082Z" fill="#474749"/>
<path d="M392.118 252.066C399.499 251.039 399.677 262.384 393.907 263.184C385.989 264.285 386.347 252.866 392.118 252.066Z" fill="#474749"/>
<path d="M294.347 231.118C299.676 229.941 300.57 237.934 296.136 238.649C290.987 239.478 290.299 232.012 294.347 231.118Z" fill="#474749"/>
<path d="M359.297 245.709C363.269 244.815 366.809 252.261 362.526 253.24C358.261 254.21 356.369 246.368 359.297 245.709Z" fill="#474749"/>
<path d="M367.186 238.545C371.545 237.622 372.138 243.911 368.975 244.645C364.371 245.7 363.825 239.261 367.186 238.545Z" fill="#474749"/>
<path d="M354.636 237.104C358.383 235.984 357.583 244.287 353.206 242.838C350.184 241.84 353.375 237.481 354.636 237.104Z" fill="#474749"/>
<path d="M206.204 152.393C205.215 151.941 203.521 153.598 203.869 154.37C204.792 156.384 208.614 153.494 206.204 152.393Z" fill="#474749"/>
<path d="M469.507 107.756C476.888 106.73 477.066 118.074 471.295 118.874C463.378 119.976 463.736 108.556 469.507 107.756Z" fill="#474749"/>
<path d="M455.517 103.096C462.71 101.797 461.891 114.139 455.517 110.628C452.166 108.782 452.156 103.708 455.517 103.096Z" fill="#474749"/>
<path d="M23.0807 110.26C18.7506 111.708 17.5977 105.494 20.5784 104.416C24.8962 102.864 26.5816 109.091 23.0807 110.26Z" fill="#474749"/>
<path d="M37.2984 114.329C33.1848 115.448 33.7046 109.346 35.9054 108.722C39.4626 107.708 40.6964 113.41 37.2984 114.329Z" fill="#474749"/>
<path d="M63.5573 110.848C59.1498 112.6 59.2801 104.753 63.4002 106.534C65.19 107.306 64.9777 110.28 63.5573 110.848Z" fill="#474749"/>
<path d="M47.6548 107.313C43.7435 109.09 43.3773 101.53 47.1426 103.041C48.9547 103.763 49.1295 106.643 47.6548 107.313Z" fill="#474749"/>
<path d="M32.6714 104.145C40.2964 105.345 36.3143 93.4868 31.2347 98.1731C29.0585 100.188 30.8244 103.845 32.6714 104.145Z" fill="#474749"/>
</svg>
