<svg width="134" height="1751" viewBox="0 0 134 1751" fill="none" xmlns="http://www.w3.org/2000/svg">
<mask id="path-1-inside-1_61_1158" fill="white">
<path d="M54.9536 69.6301C55.0936 69.4001 55.3136 69.2101 55.7636 68.6801L55.8636 68.7301C55.9236 69.5701 55.9636 70.0201 55.9836 70.4701C56.4636 81.8101 57.0036 93.1601 57.4136 104.51C57.7536 113.86 57.9136 123.22 57.2036 132.57C57.1136 133.75 56.8236 134.64 55.9136 135.49C53.6836 137.56 51.5436 139.71 49.4636 141.93C45.1336 146.55 40.9936 151.33 37.7336 156.78C36.5536 158.76 35.6336 160.91 34.8036 163.06C34.2136 164.59 34.8736 165.79 36.1336 166.15C37.2936 166.48 38.1236 165.81 38.7936 164.36C39.8836 161.98 40.9136 159.52 42.3336 157.34C45.9636 151.75 50.4636 146.86 55.0936 142.09C55.3336 141.84 55.6936 141.72 56.2936 141.37C56.0736 142.89 55.9136 144.07 55.7336 145.25C53.0536 162.47 46.8336 178.21 36.2936 192.17C35.9536 192.62 35.5936 193.06 35.3336 193.55C34.8036 194.54 35.0636 195.43 35.9036 196.11C36.7736 196.8 37.7136 196.75 38.5136 196C39.0436 195.51 39.4636 194.92 39.8936 194.34C45.7236 186.55 50.4136 178.13 53.8536 169.01C54.1536 168.22 54.5036 167.46 54.9436 166.41C55.7536 169.56 73 217 74 219.5C74.5 220.5 74.58 220.84 75 221.5C75.52 222.33 76.32 222.77 77.26 222.43C78.3 222.05 78.66 221.08 78.5 220C78.41 219.38 78.19 219.11 78 218.5C75.5 210.34 55.4526 168 59.3836 149.09C59.9636 145.63 60.5136 142.15 60.8836 138.65C62.0436 127.57 62.1536 116.46 61.5836 105.34C61.2336 98.5505 60.9036 91.7608 60.5736 84.9712L60.5736 84.9701C60.5436 84.1301 60.5736 83.3001 60.5736 82.0101C61.0436 82.6101 61.2836 82.8101 61.3936 83.0701C63.5936 88.3001 65.7936 93.5201 67.9436 98.7701C68.2036 99.4101 68.2535 100.18 68.2336 100.89C68.1936 102.89 68.1036 104.89 67.9636 106.88C67.3236 116.07 66.9536 125.26 67.2536 134.46C67.3236 136.7 67.5636 138.93 67.8636 141.15C68.0736 142.66 69.1036 143.47 70.2436 143.31C71.4236 143.14 72.0936 142.18 71.9836 140.61C71.8836 139.1 71.5536 137.59 71.5536 136.08C71.5336 129.37 71.5736 122.65 71.6236 115.93C71.6336 115.27 71.8036 114.6 71.8936 113.94C72.5136 114.77 72.7936 115.58 72.9636 116.42C75.0736 126.68 77.1636 136.94 79.2636 147.19C79.4236 147.97 79.5336 148.78 79.8336 149.51C80.2036 150.42 81.0135 150.78 81.9936 150.63C82.9936 150.48 83.5835 149.84 83.6336 148.86C83.6736 148.07 83.5736 147.26 83.4136 146.48C81.5236 137.08 79.7736 127.65 77.6836 118.29C74.7536 105.16 70.9236 92.3101 64.7436 80.2601C63.2536 77.3501 62.0236 74.2901 60.8836 71.2301C60.3636 69.8501 60.1436 68.2801 60.1636 66.8001C60.2836 56.7201 60.6336 46.6501 60.6536 36.5701C60.6636 28.0901 60.4736 19.6101 58.7636 11.2501C58.6936 10.8901 58.8136 10.4901 58.8736 9.8301C59.5136 10.0901 60.1036 10.1601 60.4236 10.4901C64.6336 14.8001 68.2636 19.5401 71.0436 24.9201C71.5336 25.8601 71.4936 26.6001 71.1536 27.6101C69.0136 33.9001 67.3335 40.3201 66.4136 46.9101C66.0936 49.2001 66.0936 51.5401 65.9936 53.8501C65.9636 54.4901 66.0636 55.1401 66.1936 55.7601C66.4836 57.1101 67.3436 57.7701 68.5436 57.6001C69.6436 57.4401 70.2236 56.7101 70.2536 55.3701C70.2936 53.3001 70.0436 51.1801 70.3936 49.1601C71.2536 44.2001 72.3836 39.3001 73.4336 34.3801C73.5536 33.8201 73.8536 33.3001 74.1736 32.5001C74.4636 33.1701 74.6535 33.5301 74.7736 33.9001C77.2136 41.7801 78.2836 49.8401 77.4636 58.0601C76.4336 68.3401 76.9836 78.4901 79.1036 88.5901C80.7536 96.4501 83.2436 104.03 86.5036 111.35C87.4136 113.4 87.7836 115.44 87.6936 117.62C87.6436 118.66 87.5736 119.7 87.5836 120.74C87.6536 126.73 87.6136 132.73 87.8936 138.72C88.0136 141.24 88.7036 143.76 89.3536 146.22C89.7336 147.65 90.9936 148.16 92.1536 147.72C93.1936 147.32 93.6135 146.3 93.2736 144.94C93.0236 143.93 92.7136 142.94 92.5236 141.92C91.4836 136.21 91.6436 130.45 91.6736 124.69C91.6736 124.19 91.8036 123.7 91.9436 122.65C92.7036 123.97 93.1736 124.79 93.6436 125.61C99.3936 135.54 106.014 144.84 113.764 153.31C114.204 153.78 114.624 154.28 115.124 154.66C116.094 155.39 117.194 155.31 117.934 154.49C118.674 153.67 118.724 152.76 118.074 151.87C117.694 151.36 117.224 150.91 116.794 150.44C106.434 138.96 97.9436 126.24 91.4236 112.21C91.0736 111.45 90.7836 110.66 90.2436 109.34C91.7136 109.98 92.6736 110.33 93.5536 110.81C103.264 116.14 112.694 121.83 119.074 131.32C119.874 132.52 121.234 132.66 122.164 131.78C123.064 130.93 123.114 129.89 122.454 128.95C121.224 127.19 120.024 125.37 118.544 123.82C112.194 117.15 104.744 111.93 96.6036 107.71C94.3536 106.54 91.9036 105.73 89.5036 104.87C88.6036 104.55 88.0736 104.15 87.6736 103.23C85.7136 98.6801 83.7836 94.1101 82.9636 89.2001C82.9236 88.9701 82.8936 88.8601 82.8636 88.7301C82.4936 86.7901 82.4436 84.8001 82.2536 82.8301C82.1336 81.6201 82.0636 81.7301 81.7536 79.5201C81.4136 77.1501 81.4336 76.5301 81.3536 74.7901C81.2436 72.4601 81.3236 70.1301 81.3236 67.4601C82.5293 69.8915 83.5861 72.015 84.6423 74.1375L84.6536 74.1601C85.3736 75.6101 85.8736 76.4901 86.7836 77.6801C87.7136 79.2601 88.7036 80.1001 89.5736 81.0001C91.3236 82.8201 93.1936 84.5501 95.1836 86.0901C98.1136 88.3601 101.494 89.8301 105.044 90.9001L105.09 90.9143C105.606 91.07 106.14 91.2313 106.674 91.2701C107.744 91.3501 108.544 90.9101 108.884 89.8401C109.214 88.7801 108.734 87.8001 107.644 87.3001C107.214 87.1001 106.734 87.0001 106.274 86.8701C99.5536 84.9201 94.3036 80.9301 90.3036 75.2501C86.5636 69.9301 84.1836 64.0001 83.0536 57.6401C82.1536 52.6101 81.8436 47.4801 81.0736 42.4301C79.4536 31.8001 75.6136 22.1001 68.7836 13.6801C68.5536 13.4001 68.4636 13.0101 68.1636 12.3601C68.9636 12.6001 69.4736 12.7601 69.9936 12.9001C73.4636 13.8701 76.6036 15.6301 79.8936 17.0501C82.7436 18.2801 84.2836 20.0701 85.0636 23.2101C86.7836 30.1401 89.5836 36.7001 93.6036 42.6601C94.1336 43.4501 94.7136 44.2401 95.4036 44.8901C96.1136 45.5601 97.0036 45.5801 97.8136 44.9601C98.6636 44.3101 99.0136 43.4601 98.5036 42.4401C98.2636 41.9401 97.9036 41.5001 97.5836 41.0401C93.8236 35.6701 91.3335 29.7201 89.4836 23.4801C89.4536 23.3601 89.5836 23.2101 89.6736 22.9601C90.0236 23.1701 90.3736 23.3401 90.6836 23.5701C102.784 32.2601 110.914 43.6301 114.134 58.3201C114.594 60.4501 115.434 61.3801 116.704 61.1301C117.814 60.9101 118.794 59.9201 118.244 57.4701C116.084 47.8401 111.904 39.2401 105.544 31.7001C105.034 31.0901 104.564 30.4501 104.074 29.8301C105.154 29.7401 105.76 30.76 106.5 31C109.856 34.69 114.194 36.26 118.244 37.5C119.914 38.02 128.684 40.23 130.414 40.48C131.854 40.68 132.924 39.84 133.074 38.66C133.224 37.5 132.354 36.6 130.894 36.3C124.5 35.5 119.22 34.09 117.5 33.5C109.64 30.81 103.294 24.3801 95.4636 21.6001C94.8736 21.3901 94.3136 21.0601 93.7736 20.7301C90.2336 18.5801 86.7036 16.3901 83.1536 14.2501C77.4336 10.8001 75.29 10.05 69 8C68.09 7.7 64.4 5.81 63.5 5.5C63.5 5.5 60.6536 4.91891 58.8736 5.5C58.5 5.62195 60.1636 0.5 60.1636 0.5L54.6036 1C54.6036 1 55.0866 6.63498 53 6.21106C49.5 5.5 47 6.73009 47 6.73009C41.77 9.12009 39.8736 12.0501 34.6336 14.4101C32.9636 15.1601 31.2936 15.9701 29.5336 16.4201C26.1536 17.3001 22.7236 17.9901 19.2936 18.6501C15.6936 19.3501 11.71 21.6001 8.09 22.2201C6.99 22.4101 5.87 22.5101 4.78 22.7601C3.48 23.0601 2.79 24.1001 3 25.2001C3.2 26.2401 4.07 26.8801 5.3 26.8801C5.62 26.8801 5.94 26.8201 6.25 26.7701C8.46 26.4001 10.67 26.0401 12.87 25.6601C15.84 25.1501 19.1536 22.9501 22.5536 22.3601L21.1136 23.5601C13.3936 29.9101 6.92356 37.3701 1.44356 45.7201C1.05356 46.3201 0.643559 46.9301 0.363559 47.5801C-0.0764409 48.5901 0.22356 49.5101 1.13356 50.0901C2.04356 50.6601 3.00356 50.5501 3.74356 49.7301C4.22356 49.2001 4.59356 48.5701 4.98356 47.9701C8.86356 42.0701 13.2736 36.6001 18.3436 31.6801C18.9536 31.0901 19.5936 30.5401 20.2236 29.9801C20.1636 31.4901 19.7836 32.7701 19.4036 34.0501C17.9636 38.9101 16.9636 43.8301 17.2436 48.9301C17.3036 49.9601 17.4236 51.0101 17.7036 52.0001C18.0036 53.0601 18.8836 53.5001 19.9536 53.3101C20.9136 53.1401 21.5236 52.5301 21.5836 51.5101C21.6136 50.9501 21.4936 50.3901 21.5236 49.8301C21.6636 46.9701 21.5036 44.0401 22.0536 41.2501C22.8036 37.4301 24.1136 33.7101 25.1436 29.9401C25.4636 28.7901 25.9036 27.6001 25.8536 26.4501C25.7936 24.9901 26.5136 24.2901 27.5836 23.6701C28.2736 23.2701 28.9736 22.8901 29.6236 22.4401C35.2536 18.5801 41.3036 15.5201 47.5836 12.8901C47.9936 12.7201 48.4236 12.6001 49.0936 12.3801C47.6336 15.0201 46.2136 17.3201 45.0436 19.7401C42.1336 25.7401 40.2836 32.1101 38.7836 38.5901C37.7136 43.1801 36.7136 47.7901 35.5736 52.3601C35.3336 53.3201 34.7936 54.3201 34.1036 55.0201C27.6036 61.6501 20.8336 67.9901 13.3536 73.5201C10.7936 75.4001 8.10356 77.1201 5.39356 78.7801C4.11356 79.5601 2.62356 79.9901 1.27356 80.6701C-0.0564411 81.3401 -0.28644 82.1401 0.31356 83.4101C0.81356 84.4701 1.47356 84.6901 2.80356 84.2801C3.10356 84.1901 3.42356 84.1801 3.72356 84.0701C8.19356 82.4501 12.0336 79.7101 15.7436 76.8701C20.3036 73.3801 24.6036 69.5401 29.0136 65.8501C29.4336 65.5001 29.8736 65.1801 30.3036 64.8501C30.3736 65.4301 30.2436 65.7901 30.0636 66.1401C25.8936 74.3301 21.1136 82.1501 15.1436 89.1501C10.6936 94.3801 5.96356 99.3801 1.36356 104.48C1.05356 104.83 0.673559 105.16 0.443559 105.57C-0.046441 106.43 0.0635606 107.29 0.763561 107.99C1.45356 108.68 2.28356 108.89 3.16356 108.36C3.63356 108.08 4.06356 107.71 4.46356 107.32C5.61356 106.21 6.75356 105.08 7.87356 103.94C13.2136 98.5201 18.0436 92.6701 22.5036 86.5201C24.3236 84.0201 25.8736 81.3201 27.5836 78.7401C28.2736 77.7001 29.0536 76.7401 30.0236 75.4201C30.0736 76.1601 30.1336 76.4601 30.1136 76.7501C29.7136 84.6601 28.7536 92.4901 26.6936 100.15C25.8436 103.32 24.8036 106.42 22.8336 109.13C21.5936 110.83 21.5836 112.12 22.7336 112.87C23.8736 113.61 25.2436 113.26 26.2536 111.44C27.7136 108.8 29.1036 106.07 30.0736 103.22C32.5536 95.9101 33.2636 88.2501 33.9636 80.6201C34.3636 76.2501 34.3836 71.8501 34.6636 67.4701C34.7236 66.5401 35.1136 65.6201 35.4236 64.7301C37.1236 59.9101 38.9836 55.1501 40.4936 50.2701C41.4636 47.1501 41.8436 43.8601 42.5936 40.6701C43.3436 37.4701 44.2336 34.3001 45.0636 31.1101C45.2436 31.1401 45.4136 31.1601 45.5936 31.1801C45.8236 33.1501 46.1036 35.1201 46.2536 37.1001C46.7236 43.1501 47.3936 49.2101 46.5136 55.2901C46.3836 56.1601 46.1436 57.0201 46.0936 57.8901C46.0336 58.9801 46.6336 59.7301 47.6736 60.0101C48.7636 60.3001 49.5436 59.7801 50.0236 58.8301C50.2336 58.4101 50.3436 57.9201 50.3836 57.4501C50.6336 54.8301 51.0136 52.2101 51.0436 49.5801C51.1236 41.8901 50.5736 34.2001 49.1736 26.6601C48.3736 22.3701 49.7336 19.1901 52.0236 16.0201C52.7336 15.0301 53.5836 14.1401 54.6036 12.9201C54.8436 13.7601 55.0036 14.1201 55.0436 14.5001C55.3836 17.6001 55.8136 20.6901 56.0036 23.8001C56.7036 35.2301 56.5936 46.6601 56.1036 58.1001C56.0836 58.6401 56.0936 59.2601 55.8436 59.7101C54.1636 62.7001 52.4136 65.6401 50.7036 68.6101C46.4636 75.9701 43.7036 83.8601 42.5836 92.2601C42.0536 96.2201 41.9736 100.23 41.6736 104.21C41.3836 108.02 41.0736 111.83 40.7836 115.45C39.9536 115.91 39.4236 116.13 38.9936 116.46C38.5536 116.79 38.1936 117.24 37.8036 117.64C33.1036 122.46 28.1236 126.96 22.4336 130.6C20.0136 132.15 17.5236 133.63 14.4136 133.23C13.3336 133.09 12.5936 133.73 12.3636 134.83C12.1336 135.93 12.6536 136.94 13.8536 137.18C14.9936 137.41 16.3036 137.57 17.3736 137.23C19.7136 136.48 22.0536 135.6 24.1936 134.4C28.5436 131.97 32.2936 128.69 35.9336 125.32C36.6336 124.68 37.3236 124.03 38.0136 123.39C38.1536 124.24 38.0236 124.92 37.7836 125.56C35.2936 132.36 31.9436 138.7 27.5236 144.46C27.1336 144.97 26.6736 145.45 26.4236 146.02C25.9936 146.99 26.1736 147.91 27.0836 148.57C27.8936 149.16 28.7636 149.14 29.5036 148.48C30.0936 147.96 30.6136 147.33 31.0936 146.7C36.9736 138.97 41.1736 130.4 43.5836 120.99C44.4936 117.42 45.0636 113.75 45.8636 109.77C46.1136 110.93 46.3836 111.77 46.4536 112.63C46.6636 115.01 46.8036 117.4 46.9436 119.79C47.0236 121.15 47.7036 122.04 48.8336 122.14C49.8336 122.23 50.6836 121.56 51.0236 120.32C51.1436 119.87 51.1836 119.37 51.1836 118.9C51.1636 117.63 51.2436 116.32 51.0036 115.08C49.7736 108.65 48.4736 102.23 47.1636 95.8101C46.8436 94.2401 46.6336 92.7101 46.9336 91.0801C48.3336 83.4501 51.0136 76.3101 54.9536 69.6301Z"/>
</mask>
<path d="M54.9536 69.6301C55.0936 69.4001 55.3136 69.2101 55.7636 68.6801L55.8636 68.7301C55.9236 69.5701 55.9636 70.0201 55.9836 70.4701C56.4636 81.8101 57.0036 93.1601 57.4136 104.51C57.7536 113.86 57.9136 123.22 57.2036 132.57C57.1136 133.75 56.8236 134.64 55.9136 135.49C53.6836 137.56 51.5436 139.71 49.4636 141.93C45.1336 146.55 40.9936 151.33 37.7336 156.78C36.5536 158.76 35.6336 160.91 34.8036 163.06C34.2136 164.59 34.8736 165.79 36.1336 166.15C37.2936 166.48 38.1236 165.81 38.7936 164.36C39.8836 161.98 40.9136 159.52 42.3336 157.34C45.9636 151.75 50.4636 146.86 55.0936 142.09C55.3336 141.84 55.6936 141.72 56.2936 141.37C56.0736 142.89 55.9136 144.07 55.7336 145.25C53.0536 162.47 46.8336 178.21 36.2936 192.17C35.9536 192.62 35.5936 193.06 35.3336 193.55C34.8036 194.54 35.0636 195.43 35.9036 196.11C36.7736 196.8 37.7136 196.75 38.5136 196C39.0436 195.51 39.4636 194.92 39.8936 194.34C45.7236 186.55 50.4136 178.13 53.8536 169.01C54.1536 168.22 54.5036 167.46 54.9436 166.41C55.7536 169.56 73 217 74 219.5C74.5 220.5 74.58 220.84 75 221.5C75.52 222.33 76.32 222.77 77.26 222.43C78.3 222.05 78.66 221.08 78.5 220C78.41 219.38 78.19 219.11 78 218.5C75.5 210.34 55.4526 168 59.3836 149.09C59.9636 145.63 60.5136 142.15 60.8836 138.65C62.0436 127.57 62.1536 116.46 61.5836 105.34C61.2336 98.5505 60.9036 91.7608 60.5736 84.9712L60.5736 84.9701C60.5436 84.1301 60.5736 83.3001 60.5736 82.0101C61.0436 82.6101 61.2836 82.8101 61.3936 83.0701C63.5936 88.3001 65.7936 93.5201 67.9436 98.7701C68.2036 99.4101 68.2535 100.18 68.2336 100.89C68.1936 102.89 68.1036 104.89 67.9636 106.88C67.3236 116.07 66.9536 125.26 67.2536 134.46C67.3236 136.7 67.5636 138.93 67.8636 141.15C68.0736 142.66 69.1036 143.47 70.2436 143.31C71.4236 143.14 72.0936 142.18 71.9836 140.61C71.8836 139.1 71.5536 137.59 71.5536 136.08C71.5336 129.37 71.5736 122.65 71.6236 115.93C71.6336 115.27 71.8036 114.6 71.8936 113.94C72.5136 114.77 72.7936 115.58 72.9636 116.42C75.0736 126.68 77.1636 136.94 79.2636 147.19C79.4236 147.97 79.5336 148.78 79.8336 149.51C80.2036 150.42 81.0135 150.78 81.9936 150.63C82.9936 150.48 83.5835 149.84 83.6336 148.86C83.6736 148.07 83.5736 147.26 83.4136 146.48C81.5236 137.08 79.7736 127.65 77.6836 118.29C74.7536 105.16 70.9236 92.3101 64.7436 80.2601C63.2536 77.3501 62.0236 74.2901 60.8836 71.2301C60.3636 69.8501 60.1436 68.2801 60.1636 66.8001C60.2836 56.7201 60.6336 46.6501 60.6536 36.5701C60.6636 28.0901 60.4736 19.6101 58.7636 11.2501C58.6936 10.8901 58.8136 10.4901 58.8736 9.8301C59.5136 10.0901 60.1036 10.1601 60.4236 10.4901C64.6336 14.8001 68.2636 19.5401 71.0436 24.9201C71.5336 25.8601 71.4936 26.6001 71.1536 27.6101C69.0136 33.9001 67.3335 40.3201 66.4136 46.9101C66.0936 49.2001 66.0936 51.5401 65.9936 53.8501C65.9636 54.4901 66.0636 55.1401 66.1936 55.7601C66.4836 57.1101 67.3436 57.7701 68.5436 57.6001C69.6436 57.4401 70.2236 56.7101 70.2536 55.3701C70.2936 53.3001 70.0436 51.1801 70.3936 49.1601C71.2536 44.2001 72.3836 39.3001 73.4336 34.3801C73.5536 33.8201 73.8536 33.3001 74.1736 32.5001C74.4636 33.1701 74.6535 33.5301 74.7736 33.9001C77.2136 41.7801 78.2836 49.8401 77.4636 58.0601C76.4336 68.3401 76.9836 78.4901 79.1036 88.5901C80.7536 96.4501 83.2436 104.03 86.5036 111.35C87.4136 113.4 87.7836 115.44 87.6936 117.62C87.6436 118.66 87.5736 119.7 87.5836 120.74C87.6536 126.73 87.6136 132.73 87.8936 138.72C88.0136 141.24 88.7036 143.76 89.3536 146.22C89.7336 147.65 90.9936 148.16 92.1536 147.72C93.1936 147.32 93.6135 146.3 93.2736 144.94C93.0236 143.93 92.7136 142.94 92.5236 141.92C91.4836 136.21 91.6436 130.45 91.6736 124.69C91.6736 124.19 91.8036 123.7 91.9436 122.65C92.7036 123.97 93.1736 124.79 93.6436 125.61C99.3936 135.54 106.014 144.84 113.764 153.31C114.204 153.78 114.624 154.28 115.124 154.66C116.094 155.39 117.194 155.31 117.934 154.49C118.674 153.67 118.724 152.76 118.074 151.87C117.694 151.36 117.224 150.91 116.794 150.44C106.434 138.96 97.9436 126.24 91.4236 112.21C91.0736 111.45 90.7836 110.66 90.2436 109.34C91.7136 109.98 92.6736 110.33 93.5536 110.81C103.264 116.14 112.694 121.83 119.074 131.32C119.874 132.52 121.234 132.66 122.164 131.78C123.064 130.93 123.114 129.89 122.454 128.95C121.224 127.19 120.024 125.37 118.544 123.82C112.194 117.15 104.744 111.93 96.6036 107.71C94.3536 106.54 91.9036 105.73 89.5036 104.87C88.6036 104.55 88.0736 104.15 87.6736 103.23C85.7136 98.6801 83.7836 94.1101 82.9636 89.2001C82.9236 88.9701 82.8936 88.8601 82.8636 88.7301C82.4936 86.7901 82.4436 84.8001 82.2536 82.8301C82.1336 81.6201 82.0636 81.7301 81.7536 79.5201C81.4136 77.1501 81.4336 76.5301 81.3536 74.7901C81.2436 72.4601 81.3236 70.1301 81.3236 67.4601C82.5293 69.8915 83.5861 72.015 84.6423 74.1375L84.6536 74.1601C85.3736 75.6101 85.8736 76.4901 86.7836 77.6801C87.7136 79.2601 88.7036 80.1001 89.5736 81.0001C91.3236 82.8201 93.1936 84.5501 95.1836 86.0901C98.1136 88.3601 101.494 89.8301 105.044 90.9001L105.09 90.9143C105.606 91.07 106.14 91.2313 106.674 91.2701C107.744 91.3501 108.544 90.9101 108.884 89.8401C109.214 88.7801 108.734 87.8001 107.644 87.3001C107.214 87.1001 106.734 87.0001 106.274 86.8701C99.5536 84.9201 94.3036 80.9301 90.3036 75.2501C86.5636 69.9301 84.1836 64.0001 83.0536 57.6401C82.1536 52.6101 81.8436 47.4801 81.0736 42.4301C79.4536 31.8001 75.6136 22.1001 68.7836 13.6801C68.5536 13.4001 68.4636 13.0101 68.1636 12.3601C68.9636 12.6001 69.4736 12.7601 69.9936 12.9001C73.4636 13.8701 76.6036 15.6301 79.8936 17.0501C82.7436 18.2801 84.2836 20.0701 85.0636 23.2101C86.7836 30.1401 89.5836 36.7001 93.6036 42.6601C94.1336 43.4501 94.7136 44.2401 95.4036 44.8901C96.1136 45.5601 97.0036 45.5801 97.8136 44.9601C98.6636 44.3101 99.0136 43.4601 98.5036 42.4401C98.2636 41.9401 97.9036 41.5001 97.5836 41.0401C93.8236 35.6701 91.3335 29.7201 89.4836 23.4801C89.4536 23.3601 89.5836 23.2101 89.6736 22.9601C90.0236 23.1701 90.3736 23.3401 90.6836 23.5701C102.784 32.2601 110.914 43.6301 114.134 58.3201C114.594 60.4501 115.434 61.3801 116.704 61.1301C117.814 60.9101 118.794 59.9201 118.244 57.4701C116.084 47.8401 111.904 39.2401 105.544 31.7001C105.034 31.0901 104.564 30.4501 104.074 29.8301C105.154 29.7401 105.76 30.76 106.5 31C109.856 34.69 114.194 36.26 118.244 37.5C119.914 38.02 128.684 40.23 130.414 40.48C131.854 40.68 132.924 39.84 133.074 38.66C133.224 37.5 132.354 36.6 130.894 36.3C124.5 35.5 119.22 34.09 117.5 33.5C109.64 30.81 103.294 24.3801 95.4636 21.6001C94.8736 21.3901 94.3136 21.0601 93.7736 20.7301C90.2336 18.5801 86.7036 16.3901 83.1536 14.2501C77.4336 10.8001 75.29 10.05 69 8C68.09 7.7 64.4 5.81 63.5 5.5C63.5 5.5 60.6536 4.91891 58.8736 5.5C58.5 5.62195 60.1636 0.5 60.1636 0.5L54.6036 1C54.6036 1 55.0866 6.63498 53 6.21106C49.5 5.5 47 6.73009 47 6.73009C41.77 9.12009 39.8736 12.0501 34.6336 14.4101C32.9636 15.1601 31.2936 15.9701 29.5336 16.4201C26.1536 17.3001 22.7236 17.9901 19.2936 18.6501C15.6936 19.3501 11.71 21.6001 8.09 22.2201C6.99 22.4101 5.87 22.5101 4.78 22.7601C3.48 23.0601 2.79 24.1001 3 25.2001C3.2 26.2401 4.07 26.8801 5.3 26.8801C5.62 26.8801 5.94 26.8201 6.25 26.7701C8.46 26.4001 10.67 26.0401 12.87 25.6601C15.84 25.1501 19.1536 22.9501 22.5536 22.3601L21.1136 23.5601C13.3936 29.9101 6.92356 37.3701 1.44356 45.7201C1.05356 46.3201 0.643559 46.9301 0.363559 47.5801C-0.0764409 48.5901 0.22356 49.5101 1.13356 50.0901C2.04356 50.6601 3.00356 50.5501 3.74356 49.7301C4.22356 49.2001 4.59356 48.5701 4.98356 47.9701C8.86356 42.0701 13.2736 36.6001 18.3436 31.6801C18.9536 31.0901 19.5936 30.5401 20.2236 29.9801C20.1636 31.4901 19.7836 32.7701 19.4036 34.0501C17.9636 38.9101 16.9636 43.8301 17.2436 48.9301C17.3036 49.9601 17.4236 51.0101 17.7036 52.0001C18.0036 53.0601 18.8836 53.5001 19.9536 53.3101C20.9136 53.1401 21.5236 52.5301 21.5836 51.5101C21.6136 50.9501 21.4936 50.3901 21.5236 49.8301C21.6636 46.9701 21.5036 44.0401 22.0536 41.2501C22.8036 37.4301 24.1136 33.7101 25.1436 29.9401C25.4636 28.7901 25.9036 27.6001 25.8536 26.4501C25.7936 24.9901 26.5136 24.2901 27.5836 23.6701C28.2736 23.2701 28.9736 22.8901 29.6236 22.4401C35.2536 18.5801 41.3036 15.5201 47.5836 12.8901C47.9936 12.7201 48.4236 12.6001 49.0936 12.3801C47.6336 15.0201 46.2136 17.3201 45.0436 19.7401C42.1336 25.7401 40.2836 32.1101 38.7836 38.5901C37.7136 43.1801 36.7136 47.7901 35.5736 52.3601C35.3336 53.3201 34.7936 54.3201 34.1036 55.0201C27.6036 61.6501 20.8336 67.9901 13.3536 73.5201C10.7936 75.4001 8.10356 77.1201 5.39356 78.7801C4.11356 79.5601 2.62356 79.9901 1.27356 80.6701C-0.0564411 81.3401 -0.28644 82.1401 0.31356 83.4101C0.81356 84.4701 1.47356 84.6901 2.80356 84.2801C3.10356 84.1901 3.42356 84.1801 3.72356 84.0701C8.19356 82.4501 12.0336 79.7101 15.7436 76.8701C20.3036 73.3801 24.6036 69.5401 29.0136 65.8501C29.4336 65.5001 29.8736 65.1801 30.3036 64.8501C30.3736 65.4301 30.2436 65.7901 30.0636 66.1401C25.8936 74.3301 21.1136 82.1501 15.1436 89.1501C10.6936 94.3801 5.96356 99.3801 1.36356 104.48C1.05356 104.83 0.673559 105.16 0.443559 105.57C-0.046441 106.43 0.0635606 107.29 0.763561 107.99C1.45356 108.68 2.28356 108.89 3.16356 108.36C3.63356 108.08 4.06356 107.71 4.46356 107.32C5.61356 106.21 6.75356 105.08 7.87356 103.94C13.2136 98.5201 18.0436 92.6701 22.5036 86.5201C24.3236 84.0201 25.8736 81.3201 27.5836 78.7401C28.2736 77.7001 29.0536 76.7401 30.0236 75.4201C30.0736 76.1601 30.1336 76.4601 30.1136 76.7501C29.7136 84.6601 28.7536 92.4901 26.6936 100.15C25.8436 103.32 24.8036 106.42 22.8336 109.13C21.5936 110.83 21.5836 112.12 22.7336 112.87C23.8736 113.61 25.2436 113.26 26.2536 111.44C27.7136 108.8 29.1036 106.07 30.0736 103.22C32.5536 95.9101 33.2636 88.2501 33.9636 80.6201C34.3636 76.2501 34.3836 71.8501 34.6636 67.4701C34.7236 66.5401 35.1136 65.6201 35.4236 64.7301C37.1236 59.9101 38.9836 55.1501 40.4936 50.2701C41.4636 47.1501 41.8436 43.8601 42.5936 40.6701C43.3436 37.4701 44.2336 34.3001 45.0636 31.1101C45.2436 31.1401 45.4136 31.1601 45.5936 31.1801C45.8236 33.1501 46.1036 35.1201 46.2536 37.1001C46.7236 43.1501 47.3936 49.2101 46.5136 55.2901C46.3836 56.1601 46.1436 57.0201 46.0936 57.8901C46.0336 58.9801 46.6336 59.7301 47.6736 60.0101C48.7636 60.3001 49.5436 59.7801 50.0236 58.8301C50.2336 58.4101 50.3436 57.9201 50.3836 57.4501C50.6336 54.8301 51.0136 52.2101 51.0436 49.5801C51.1236 41.8901 50.5736 34.2001 49.1736 26.6601C48.3736 22.3701 49.7336 19.1901 52.0236 16.0201C52.7336 15.0301 53.5836 14.1401 54.6036 12.9201C54.8436 13.7601 55.0036 14.1201 55.0436 14.5001C55.3836 17.6001 55.8136 20.6901 56.0036 23.8001C56.7036 35.2301 56.5936 46.6601 56.1036 58.1001C56.0836 58.6401 56.0936 59.2601 55.8436 59.7101C54.1636 62.7001 52.4136 65.6401 50.7036 68.6101C46.4636 75.9701 43.7036 83.8601 42.5836 92.2601C42.0536 96.2201 41.9736 100.23 41.6736 104.21C41.3836 108.02 41.0736 111.83 40.7836 115.45C39.9536 115.91 39.4236 116.13 38.9936 116.46C38.5536 116.79 38.1936 117.24 37.8036 117.64C33.1036 122.46 28.1236 126.96 22.4336 130.6C20.0136 132.15 17.5236 133.63 14.4136 133.23C13.3336 133.09 12.5936 133.73 12.3636 134.83C12.1336 135.93 12.6536 136.94 13.8536 137.18C14.9936 137.41 16.3036 137.57 17.3736 137.23C19.7136 136.48 22.0536 135.6 24.1936 134.4C28.5436 131.97 32.2936 128.69 35.9336 125.32C36.6336 124.68 37.3236 124.03 38.0136 123.39C38.1536 124.24 38.0236 124.92 37.7836 125.56C35.2936 132.36 31.9436 138.7 27.5236 144.46C27.1336 144.97 26.6736 145.45 26.4236 146.02C25.9936 146.99 26.1736 147.91 27.0836 148.57C27.8936 149.16 28.7636 149.14 29.5036 148.48C30.0936 147.96 30.6136 147.33 31.0936 146.7C36.9736 138.97 41.1736 130.4 43.5836 120.99C44.4936 117.42 45.0636 113.75 45.8636 109.77C46.1136 110.93 46.3836 111.77 46.4536 112.63C46.6636 115.01 46.8036 117.4 46.9436 119.79C47.0236 121.15 47.7036 122.04 48.8336 122.14C49.8336 122.23 50.6836 121.56 51.0236 120.32C51.1436 119.87 51.1836 119.37 51.1836 118.9C51.1636 117.63 51.2436 116.32 51.0036 115.08C49.7736 108.65 48.4736 102.23 47.1636 95.8101C46.8436 94.2401 46.6336 92.7101 46.9336 91.0801C48.3336 83.4501 51.0136 76.3101 54.9536 69.6301Z" fill="#E2E4D0" stroke="#E2E4D0" stroke-width="2" mask="url(#path-1-inside-1_61_1158)"/>
<path d="M76 219C79 225.5 92.5002 266.5 70 301.5C42.8032 343.806 56.4999 350 56.5001 385.5C56.5002 421 52 1751 52 1751" stroke="#E2E4D0" stroke-width="4"/>
</svg>
