<svg width="345" height="380" viewBox="0 0 345 380" fill="none" preserveAspectRation="xMidYMax meet" xmlns="http://www.w3.org/2000/svg">
<path d="M155.581 280.144C182.488 307.498 169.917 379.674 169.917 379.674L190.068 377.556C190.068 377.556 189.433 329.933 187.385 321.952C191.787 314.019 197.272 306.933 203.981 300.883C207.747 315.196 225.685 321.646 238.962 319.716C249.32 318.209 265.446 302.06 277.969 300.436C260.526 274.212 214.857 252.601 205.346 295.045L186.961 314.325C184.277 276.778 176.32 256.415 199.955 224.211C203.957 218.75 209.183 214.253 213.844 209.404C225.238 221.527 252.428 223.317 267.659 219.268C288.21 213.806 300.898 186.734 326.393 181.155C297.296 167.996 273.967 148.504 239.857 160.981C219.518 168.419 215.233 183.533 213.397 203.566C199.414 215.878 190.092 229.673 183.359 247.046C182.818 213.712 184.795 156.649 203.981 129.577C207.206 128.847 223.355 154.013 265.846 129.577C312.716 102.623 304.335 47.7495 344.307 17.9469C308.926 12.0852 273.991 10.6492 241.622 28.2577C210.949 44.9246 175.944 91.1351 199.932 125.552C180.44 158.909 193.411 158.462 180.205 108.508C207.7 69.8072 170.859 13.1681 128.65 3.13973C110.759 2.03331 91.5265 -0.155981 74.3888 0.00880455C90.114 27.1984 80.7684 67.0765 104.921 96.8085C111.324 104.742 127.732 116.818 137.643 118.772C157.841 122.727 172.883 107.543 176.65 113.828C177.45 115.17 183.594 141.63 183.83 144.314C185.525 164.112 176.156 195.703 174.414 217.384C167.445 205.237 159.159 194.102 149.743 183.768C162.102 137.934 111.277 108.555 72.176 106.201C47.5523 104.718 24.1293 114.064 0 117.407C21.1867 133.179 29.4495 159.403 45.7397 179.272C72.3172 211.711 116.951 226.706 146.612 188.688C157.629 199.281 166.41 211.876 173.966 225.012L173.519 300.789C169.423 289.372 157.982 277.578 157.817 276.119C157.441 272.823 168.811 261.123 150.637 240.242C128.085 214.3 101.131 225.153 73.5178 234.852C86.3711 244.338 89.0782 261.382 98.6358 273.411C112.337 290.69 143.175 301.048 155.581 280.144Z" fill="#272727"/>
<path d="M293.547 28.9451L287.322 40.8505C309.486 33.5104 322.905 27.1364 292.652 42.8125L306.029 45.034L286.745 44.8595C271.429 54.5403 256.745 65.1129 243.962 78.0316C257.935 82.2508 272.604 80.9105 286.944 80.3132C272.476 84.8868 257.23 82.181 242.526 80.2228L226.268 97.1983C240.14 104.523 259.353 98.8779 274.638 99.6536C259.8 102.543 238.864 104.647 224.855 99.3902C199.031 128.893 210.427 120.24 254.227 120.523C242.606 125.188 217.812 121.303 213.351 122.337C212.934 122.436 209.664 121.345 207.164 124.845C206.164 125.944 203.164 127.944 202.164 126.345C207.164 118.345 204.44 118.444 204.099 117.092C198.002 92.9416 198.451 89.9181 206.377 115.823L215.314 103.11C210.61 90.4752 211.824 78.4081 215.458 98.6396L217.65 100.053C219.206 97.8183 228.96 88.2172 229.269 87.4263C230.476 84.3092 228.1 64.5186 231.117 57.8798C234.439 50.5442 227.675 82.7821 232.528 83.5039C249.014 75.486 248.58 41.485 248.266 68.7492L268.1 51.8892C274.166 31.052 283.42 20.1628 269.974 49.2646C269.667 52.9525 283.508 43.7187 284.535 42.5506C285.878 41.063 288.838 31.8315 293.5 28.9435L293.547 28.9451Z" fill="white"/>
<path d="M71.0775 118.852C84.5192 134.624 75.409 136.484 99.7737 147.548C101.28 136.837 90.6869 125.043 90.3574 123.795C88.5212 116.615 100.598 133.282 102.905 148.913C119.407 159.059 123.338 168.688 119.054 148.019C117.594 141.004 113.757 134.53 111.426 127.844C120.019 135.26 121.243 159.695 123.974 163.72C124.609 164.639 134.379 170.571 136.521 173.584C138.122 141.992 137.886 147.76 139.652 174.926C140.5 179 143.652 180.5 148.5 185.5C148.898 186.515 147.5 187 147.5 187C140 180.405 137 180 134.708 180.764C132.831 181.39 116.182 190.675 97.0429 191.522V189.733C102.081 190.792 133.978 181.305 134.261 178.528L117.665 164.639C102.575 171.018 86.5202 174.149 70.1358 175.397V173.608C75.15 174.832 115.005 166.781 114.534 162.402L91.6756 147.595C80.9646 153.88 68.8882 156.752 56.694 158.353V156.564C60.9078 157.482 89.1332 150.067 88.5212 146.253C63.3326 131.517 70.7714 137.708 48.6196 144.017C45.2062 142.581 64.3683 139.238 63.874 135.048C56.6705 132.764 47.6309 126.95 40.5686 128.762C40.1684 124.172 30.1401 125.325 25.7615 122.03L57.5886 128.762C58.6479 128.127 53.3983 120.57 56.694 121.582L60.2723 130.552C82.9185 136.178 83.3422 142.722 71.0304 118.899L71.0775 118.852Z" fill="white"/>
<path d="M95.0235 19.8039C109.767 30.0098 107.198 24.9906 107.904 25.3754C108.268 25.5671 108.182 29.0615 113.639 31.3484C116.41 11.8588 116.502 16.8521 115.997 33.4558L127.813 44.0148C130.393 42.5023 122.006 9.06858 129.367 31.8084C128.491 47.6785 132.873 47.1964 142.933 57.5477C145.386 56.726 140.903 30.665 144.134 39.0658C147.031 46.5658 138.82 57.7788 157.36 74.7033C161.827 30.8331 157.4 69.1131 159.769 77.7038C159.975 78.4466 167.999 87.8042 169.006 90.1997C170.262 90.3177 173.868 80.2123 174.206 78.6843C177.083 65.2718 174.733 43.17 176.583 73.1514C167.356 96.4934 176.214 111.887 184.236 89.3438L184.808 91.5515C182.472 94.1083 182.5 99.5 177.5 102.5C177.15 103.961 176.188 107 179 109C178.062 111.608 177.158 111.374 175 109.501C173.5 103.985 173.807 103.156 170.653 103.57C167.5 103.985 147.334 103.985 147.334 103.985C102.324 94.3243 168.786 107.259 169.981 99.576L159.698 84.4274C107.701 80.0875 91.3629 76.3373 155.975 81.9488C140.802 48.9908 133.231 70.3534 105.797 60.059C136.914 62.46 149.926 65.7606 125.161 45.0598C107.674 48.141 97.5257 46.7072 122.802 42.9525L95 19.8052L95.0235 19.8039Z" fill="white"/>
<path d="M244.691 177.024L239.3 191.36C250.058 185.592 265.454 188.111 272.469 177.918C265.831 190.724 295.633 173.728 284.569 181.049C291.372 184.392 299.588 183.568 306.98 184.627L293.985 185.074L300.271 189.547C291.278 188.606 291.5 180 275.153 184.156C277.734 186.385 278.707 187.479 278.5 187.5C276.5 186 274.21 184.809 272.469 185.051C251.141 188.017 259.074 188.182 271.575 196.704C257.45 192.16 259.098 185.781 242.878 194.02C241.395 196.539 284.781 217.537 255.426 204.778C240.642 195.315 242.478 191.995 227.177 201.647C255.331 221.633 227.436 202.801 225.835 202.989C221 201.647 217.5 204.5 214.5 207C214.5 207 214 207 213.827 206C219.662 201.647 220.641 201.233 220.891 200.753C222.869 197.057 222.892 182.885 223.128 200.305C242.266 190.913 234.663 191.289 244.644 177L244.691 177.024Z" fill="white"/>
<path d="M111.655 234C119.235 241.839 114.244 245.888 129.593 253.727L125.12 236.684C133.571 248.383 126.65 253.327 141.269 263.591C144.094 249.796 142.446 262.202 143.505 264.933C144.353 267.075 148.967 268.581 150.238 270.771C152.214 259.91 152.058 259.562 152.067 262.5C152.073 264.807 150 274 154.5 274C154.5 274.5 153 275.5 157 277.5C157.145 278.098 156.5 278.5 156.182 278.609C155.62 278.755 153.865 277.386 153.5 277C152.5 275.94 151.732 275.781 150.5 276.5C144.5 280 135.83 282.439 127.827 281.552C160.384 278.963 143.764 268.44 142.163 268.111C141.292 267.922 117.069 273.501 129.616 269.005C130.982 268.511 136.89 269.17 139.927 265.874C126.579 250.149 124.72 263.638 107.653 261.401L127.38 256.011C114.809 243.016 113.867 251.82 107.205 252.88C92.0216 255.257 114.479 249.325 113.938 247.042L96 238.967L105.416 239.414L115.28 245.7C115.28 245.7 116.251 246.07 116.622 245.7C116.992 245.329 116.622 244.358 116.622 244.358L111.678 234.047L111.655 234Z" fill="white"/>
<path d="M217.682 282.006L219.628 281.469C209.458 295.57 220.883 295.471 227.545 284.689C222.719 295.259 231.123 287.844 231.571 290.527C231.571 290.527 228.128 291.969 224.128 291.969C223.103 291.969 222.602 294.106 222.602 294.106C240.799 313.15 233.336 310.49 220.365 293.658C219.235 295 213.892 296.413 213.633 297.684C213.275 299.459 217.611 302.766 217.128 302.5C216.628 302.969 212.128 298.969 211.128 298.469C210.747 298.279 209.384 296.993 207.347 297.366C206.992 297.432 205.435 298.348 205.128 298.469C204.066 297.684 206.628 297 207.347 296.789C207.628 296.5 212.291 297.284 217.658 281.982L217.682 282.006Z" fill="white"/>
<path d="M236.653 292.126C236.653 291.962 238.112 289.914 238.442 289.443C241.549 284.852 251.201 281.792 239.336 290.785C246.398 290.902 267.609 301.025 249.647 294.81C252.707 301.095 242.914 290.008 238.889 292.126C245.127 307.546 236.276 296.199 236.653 292.126Z" fill="white"/>
<path d="M238.442 289.443C238.112 289.914 236.653 291.962 236.653 292.126C236.653 292.126 232.5 290.5 229 291.245C227.462 291.573 230 290 230 290C230 290 232.122 289.57 233.5 289.443C235.422 289.266 238.442 289.443 238.442 289.443Z" fill="white"/>
</svg>
