<svg width="400" height="70" viewBox="0 0 400 70" fill="none" xmlns="http://www.w3.org/2000/svg">
<path d="M10 0.000255376C19.857 0.000222834 84 0.000255382 85 0.000255376C86 0.00025537 87 0.000268459 87 0.000268459C87 0.000268459 87 3 87 4.00026C87 5.00051 88 7.00013 90 7.00013C92 7.00013 125.5 7.00013 128 7.00013C130.5 7.00013 131 5.00028 131 4.00026C131 3.00023 131 0.000158936 131 0.000158936C131 0.000158936 132 0.00013423 133 0.00013423C134 0.00013423 286.705 0.00013423 384 0.00013423L400 17.0001V70.0003H3.05176e-05C3.05176e-05 70.0003 3.05305e-05 15.0003 3.05176e-05 12.0003C3.05047e-05 9.00024 0.14307 0.000287918 10 0.000255376Z" fill="#E2E4D0"/>
</svg>
